<svg width="20" height="20" viewBox="0 0 20 20" fill="none" xmlns="http://www.w3.org/2000/svg">
<path d="M0.712024 10.7117C0.318308 10.7117 0.00537109 10.3886 0.00537109 9.99491C0.00537109 9.6012 0.318308 9.28826 0.712024 9.28826H9.28282V0.71683C9.28345 0.323114 9.60657 0 10.0003 0C10.394 0 10.7069 0.323114 10.7069 0.71683V9.28826H19.2777C19.6714 9.28826 19.9946 9.6012 19.9946 9.99491C19.9946 10.3886 19.6714 10.7117 19.2777 10.7117H10.7069V19.2832C10.7069 19.6769 10.394 20 10.0003 20C9.60657 20 9.28345 19.6769 9.28345 19.2832V10.7117H0.712024Z" fill="#333333"/>
</svg>
