<svg width="37" height="37" viewBox="0 0 37 37" fill="none" xmlns="http://www.w3.org/2000/svg">
<path d="M20.2917 9.54166H16.7083V16.7083H9.54168V20.2917H16.7083V27.4583H20.2917V20.2917H27.4583V16.7083H20.2917V9.54166ZM18.5 0.583328C8.61001 0.583328 0.583344 8.60999 0.583344 18.5C0.583344 28.39 8.61001 36.4167 18.5 36.4167C28.39 36.4167 36.4167 28.39 36.4167 18.5C36.4167 8.60999 28.39 0.583328 18.5 0.583328ZM18.5 32.8333C10.5988 32.8333 4.16668 26.4012 4.16668 18.5C4.16668 10.5987 10.5988 4.16666 18.5 4.16666C26.4013 4.16666 32.8333 10.5987 32.8333 18.5C32.8333 26.4012 26.4013 32.8333 18.5 32.8333Z" fill="#14B268"/>
</svg>
