<svg width="297" height="186" viewBox="0 0 297 186" fill="none" xmlns="http://www.w3.org/2000/svg">
<path d="M0 8C0 3.58173 3.58172 0 8 0H288.863C293.281 0 296.863 3.58172 296.863 8V178C296.863 182.418 293.281 186 288.863 186H8C3.58172 186 0 182.418 0 178V8Z" fill="black"/>
<mask id="mask0" mask-type="alpha" maskUnits="userSpaceOnUse" x="0" y="0" width="297" height="186">
<path d="M0 8C0 3.58173 3.58172 0 8 0H288.863C293.281 0 296.863 3.58172 296.863 8V178C296.863 182.418 293.281 186 288.863 186H8C3.58172 186 0 182.418 0 178V8Z" fill="black"/>
</mask>
<g mask="url(#mask0)">
<path opacity="0.1" d="M939.07 161.813C939.07 158.31 937.244 155.065 934.241 153.262C862.818 110.379 779.257 66.0306 684.076 76.925C615.362 84.7865 570.149 128.137 509.7 149.251C431.179 176.654 369.62 141.659 299.364 118.119C204.559 86.4038 87.4243 95.029 2.85809 139.952C-12.4224 148.089 -27.3239 157.452 -42.2646 166.806C-50.9512 172.244 -47.0489 186.312 -36.8004 186.312H929.07C934.592 186.312 939.07 181.835 939.07 176.312V161.813Z" fill="white"/>
<path opacity="0.1" d="M618.967 186.284C618.967 186.297 618.954 186.305 618.943 186.3C613.708 183.698 608.473 181.142 603.3 178.585C479.257 118.389 329.986 87.3468 181.949 90.8508C57.1425 93.8474 -63.5169 122.003 -170.612 168.207C-180.348 172.407 -177.256 186.267 -166.653 186.267H618.95C618.96 186.267 618.967 186.275 618.967 186.284Z" fill="white"/>
</g>
</svg>
