<svg width="16" height="16" viewBox="0 0 16 16" fill="none" xmlns="http://www.w3.org/2000/svg">
<path d="M7.23505 7.9465L0.153051 15.0285C-0.0436992 15.2253 -0.0436992 15.544 0.153051 15.7408C0.251301 15.8393 0.380301 15.8883 0.509051 15.8883C0.638051 15.8883 0.766801 15.8393 0.865051 15.7408L8.0003 8.6055L15.1356 15.7408C15.2341 15.8393 15.3628 15.8883 15.4916 15.8883C15.6203 15.8883 15.7493 15.8393 15.8476 15.7408C16.0443 15.544 16.0443 15.2253 15.8476 15.0285L8.7658 7.9465L15.8523 0.859503C16.0491 0.662753 16.0491 0.344003 15.8523 0.147253C15.6556 -0.0492471 15.3368 -0.0492471 15.1403 0.147253L8.00055 7.2875L0.860051 0.147503C0.663301 -0.0489971 0.344801 -0.0489971 0.148051 0.147503C-0.0486992 0.344253 -0.0486992 0.663003 0.148051 0.859753L7.23505 7.9465Z" fill="#A5A8AA"/>
</svg>
