<svg width="60" height="44" viewBox="0 0 60 44" fill="none" xmlns="http://www.w3.org/2000/svg">
<path d="M0.582597 18.5799C3.49947 11.47 13.4107 11.0509 16.9175 17.8891L18 20H0L0.582597 18.5799Z" fill="url(#paint0_linear)"/>
<g filter="url(#filter0_d)">
<path d="M8 13H11.375H51C53.7614 13 56 15.2386 56 18V33.507L33.3125 39L11.375 33.507V17.7485C11.375 16.4327 11.1914 15.0179 10.25 14.0986C9.6875 13.5493 8 13 8 13Z" fill="#41B864"/>
</g>
<path d="M22.0336 23.072C21.6056 23.072 21.2176 22.98 20.8696 22.796C20.5256 22.608 20.2536 22.35 20.0536 22.022C19.8576 21.69 19.7596 21.316 19.7596 20.9C19.7596 20.484 19.8576 20.112 20.0536 19.784C20.2536 19.452 20.5256 19.194 20.8696 19.01C21.2176 18.822 21.6076 18.728 22.0396 18.728C22.4036 18.728 22.7316 18.792 23.0236 18.92C23.3196 19.048 23.5676 19.232 23.7676 19.472L23.1436 20.048C22.8596 19.72 22.5076 19.556 22.0876 19.556C21.8276 19.556 21.5956 19.614 21.3916 19.73C21.1876 19.842 21.0276 20 20.9116 20.204C20.7996 20.408 20.7436 20.64 20.7436 20.9C20.7436 21.16 20.7996 21.392 20.9116 21.596C21.0276 21.8 21.1876 21.96 21.3916 22.076C21.5956 22.188 21.8276 22.244 22.0876 22.244C22.5076 22.244 22.8596 22.078 23.1436 21.746L23.7676 22.322C23.5676 22.566 23.3196 22.752 23.0236 22.88C22.7276 23.008 22.3976 23.072 22.0336 23.072ZM26.7701 23.072C26.3341 23.072 25.9401 22.978 25.5881 22.79C25.2401 22.602 24.9661 22.344 24.7661 22.016C24.5701 21.684 24.4721 21.312 24.4721 20.9C24.4721 20.488 24.5701 20.118 24.7661 19.79C24.9661 19.458 25.2401 19.198 25.5881 19.01C25.9401 18.822 26.3341 18.728 26.7701 18.728C27.2061 18.728 27.5981 18.822 27.9461 19.01C28.2941 19.198 28.5681 19.458 28.7681 19.79C28.9681 20.118 29.0681 20.488 29.0681 20.9C29.0681 21.312 28.9681 21.684 28.7681 22.016C28.5681 22.344 28.2941 22.602 27.9461 22.79C27.5981 22.978 27.2061 23.072 26.7701 23.072ZM26.7701 22.244C27.0181 22.244 27.2421 22.188 27.4421 22.076C27.6421 21.96 27.7981 21.8 27.9101 21.596C28.0261 21.392 28.0841 21.16 28.0841 20.9C28.0841 20.64 28.0261 20.408 27.9101 20.204C27.7981 20 27.6421 19.842 27.4421 19.73C27.2421 19.614 27.0181 19.556 26.7701 19.556C26.5221 19.556 26.2981 19.614 26.0981 19.73C25.8981 19.842 25.7401 20 25.6241 20.204C25.5121 20.408 25.4561 20.64 25.4561 20.9C25.4561 21.16 25.5121 21.392 25.6241 21.596C25.7401 21.8 25.8981 21.96 26.0981 22.076C26.2981 22.188 26.5221 22.244 26.7701 22.244ZM34.0206 23L34.0146 20.48L32.7786 22.556H32.3406L31.1106 20.534V23H30.1986V18.8H31.0026L32.5746 21.41L34.1226 18.8H34.9206L34.9326 23H34.0206ZM36.3291 18.8H37.3011V23H36.3291V18.8ZM42.5498 18.8V23H41.7518L39.6578 20.45V23H38.6978V18.8H39.5018L41.5898 21.35V18.8H42.5498ZM46.7815 20.834H47.6695V22.538C47.4415 22.71 47.1775 22.842 46.8775 22.934C46.5775 23.026 46.2755 23.072 45.9715 23.072C45.5355 23.072 45.1435 22.98 44.7955 22.796C44.4475 22.608 44.1735 22.35 43.9735 22.022C43.7775 21.69 43.6795 21.316 43.6795 20.9C43.6795 20.484 43.7775 20.112 43.9735 19.784C44.1735 19.452 44.4495 19.194 44.8015 19.01C45.1535 18.822 45.5495 18.728 45.9895 18.728C46.3575 18.728 46.6915 18.79 46.9915 18.914C47.2915 19.038 47.5435 19.218 47.7475 19.454L47.1235 20.03C46.8235 19.714 46.4615 19.556 46.0375 19.556C45.7695 19.556 45.5315 19.612 45.3235 19.724C45.1155 19.836 44.9535 19.994 44.8375 20.198C44.7215 20.402 44.6635 20.636 44.6635 20.9C44.6635 21.16 44.7215 21.392 44.8375 21.596C44.9535 21.8 45.1135 21.96 45.3175 22.076C45.5255 22.188 45.7615 22.244 46.0255 22.244C46.3055 22.244 46.5575 22.184 46.7815 22.064V20.834ZM25.6796 31.072C25.3476 31.072 25.0256 31.028 24.7136 30.94C24.4056 30.848 24.1576 30.73 23.9696 30.586L24.2996 29.854C24.4796 29.986 24.6936 30.092 24.9416 30.172C25.1896 30.252 25.4376 30.292 25.6856 30.292C25.9616 30.292 26.1656 30.252 26.2976 30.172C26.4296 30.088 26.4956 29.978 26.4956 29.842C26.4956 29.742 26.4556 29.66 26.3756 29.596C26.2996 29.528 26.1996 29.474 26.0756 29.434C25.9556 29.394 25.7916 29.35 25.5836 29.302C25.2636 29.226 25.0016 29.15 24.7976 29.074C24.5936 28.998 24.4176 28.876 24.2696 28.708C24.1256 28.54 24.0536 28.316 24.0536 28.036C24.0536 27.792 24.1196 27.572 24.2516 27.376C24.3836 27.176 24.5816 27.018 24.8456 26.902C25.1136 26.786 25.4396 26.728 25.8236 26.728C26.0916 26.728 26.3536 26.76 26.6096 26.824C26.8656 26.888 27.0896 26.98 27.2816 27.1L26.9816 27.838C26.5936 27.618 26.2056 27.508 25.8176 27.508C25.5456 27.508 25.3436 27.552 25.2116 27.64C25.0836 27.728 25.0196 27.844 25.0196 27.988C25.0196 28.132 25.0936 28.24 25.2416 28.312C25.3936 28.38 25.6236 28.448 25.9316 28.516C26.2516 28.592 26.5136 28.668 26.7176 28.744C26.9216 28.82 27.0956 28.94 27.2396 29.104C27.3876 29.268 27.4616 29.49 27.4616 29.77C27.4616 30.01 27.3936 30.23 27.2576 30.43C27.1256 30.626 26.9256 30.782 26.6576 30.898C26.3896 31.014 26.0636 31.072 25.6796 31.072ZM30.5597 31.072C30.1237 31.072 29.7297 30.978 29.3777 30.79C29.0297 30.602 28.7557 30.344 28.5557 30.016C28.3597 29.684 28.2617 29.312 28.2617 28.9C28.2617 28.488 28.3597 28.118 28.5557 27.79C28.7557 27.458 29.0297 27.198 29.3777 27.01C29.7297 26.822 30.1237 26.728 30.5597 26.728C30.9957 26.728 31.3877 26.822 31.7357 27.01C32.0837 27.198 32.3577 27.458 32.5577 27.79C32.7577 28.118 32.8577 28.488 32.8577 28.9C32.8577 29.312 32.7577 29.684 32.5577 30.016C32.3577 30.344 32.0837 30.602 31.7357 30.79C31.3877 30.978 30.9957 31.072 30.5597 31.072ZM30.5597 30.244C30.8077 30.244 31.0317 30.188 31.2317 30.076C31.4317 29.96 31.5877 29.8 31.6997 29.596C31.8157 29.392 31.8737 29.16 31.8737 28.9C31.8737 28.64 31.8157 28.408 31.6997 28.204C31.5877 28 31.4317 27.842 31.2317 27.73C31.0317 27.614 30.8077 27.556 30.5597 27.556C30.3117 27.556 30.0877 27.614 29.8877 27.73C29.6877 27.842 29.5297 28 29.4137 28.204C29.3017 28.408 29.2457 28.64 29.2457 28.9C29.2457 29.16 29.3017 29.392 29.4137 29.596C29.5297 29.8 29.6877 29.96 29.8877 30.076C30.0877 30.188 30.3117 30.244 30.5597 30.244ZM36.0222 31.072C35.5862 31.072 35.1922 30.978 34.8402 30.79C34.4922 30.602 34.2182 30.344 34.0182 30.016C33.8222 29.684 33.7242 29.312 33.7242 28.9C33.7242 28.488 33.8222 28.118 34.0182 27.79C34.2182 27.458 34.4922 27.198 34.8402 27.01C35.1922 26.822 35.5862 26.728 36.0222 26.728C36.4582 26.728 36.8502 26.822 37.1982 27.01C37.5462 27.198 37.8202 27.458 38.0202 27.79C38.2202 28.118 38.3202 28.488 38.3202 28.9C38.3202 29.312 38.2202 29.684 38.0202 30.016C37.8202 30.344 37.5462 30.602 37.1982 30.79C36.8502 30.978 36.4582 31.072 36.0222 31.072ZM36.0222 30.244C36.2702 30.244 36.4942 30.188 36.6942 30.076C36.8942 29.96 37.0502 29.8 37.1622 29.596C37.2782 29.392 37.3362 29.16 37.3362 28.9C37.3362 28.64 37.2782 28.408 37.1622 28.204C37.0502 28 36.8942 27.842 36.6942 27.73C36.4942 27.614 36.2702 27.556 36.0222 27.556C35.7742 27.556 35.5502 27.614 35.3502 27.73C35.1502 27.842 34.9922 28 34.8762 28.204C34.7642 28.408 34.7082 28.64 34.7082 28.9C34.7082 29.16 34.7642 29.392 34.8762 29.596C34.9922 29.8 35.1502 29.96 35.3502 30.076C35.5502 30.188 35.7742 30.244 36.0222 30.244ZM43.3027 26.8V31H42.5047L40.4107 28.45V31H39.4507V26.8H40.2547L42.3427 29.35V26.8H43.3027Z" fill="white"/>
<defs>
<filter id="filter0_d" x="4" y="10" width="56" height="34" filterUnits="userSpaceOnUse" color-interpolation-filters="sRGB">
<feFlood flood-opacity="0" result="BackgroundImageFix"/>
<feColorMatrix in="SourceAlpha" type="matrix" values="0 0 0 0 0 0 0 0 0 0 0 0 0 0 0 0 0 0 127 0"/>
<feOffset dy="1"/>
<feGaussianBlur stdDeviation="2"/>
<feColorMatrix type="matrix" values="0 0 0 0 0 0 0 0 0 0 0 0 0 0 0 0 0 0 0.25 0"/>
<feBlend mode="normal" in2="BackgroundImageFix" result="effect1_dropShadow"/>
<feBlend mode="normal" in="SourceGraphic" in2="effect1_dropShadow" result="shape"/>
</filter>
<linearGradient id="paint0_linear" x1="9" y1="13.5" x2="9" y2="20" gradientUnits="userSpaceOnUse">
<stop stop-color="#41B864"/>
<stop offset="1" stop-color="#0C472B"/>
</linearGradient>
</defs>
</svg>
