<svg width="16" height="16" viewBox="0 0 16 16" fill="none" xmlns="http://www.w3.org/2000/svg">
<path d="M3.13446 15.6445C3.13446 15.8408 3.29355 15.9999 3.48982 15.9999H12.5101C12.7063 15.9999 12.8654 15.8408 12.8654 15.6445V4.13074H3.13446V15.6445ZM9.99883 6.09015H11.3314V13.8374H9.99883V6.09015ZM7.33364 6.09015H8.66623V13.8374H7.33364V6.09015ZM4.66845 6.09015H6.00105V13.8374H4.66845V6.09015Z" fill="#AFAFAF"/>
<path d="M10.9952 1.63307V0.355358C10.9952 0.159094 10.8361 0 10.6398 0H5.36009C5.16383 0 5.00473 0.159094 5.00473 0.355358V1.63307V1.85517V2.07726H2.52076C2.3245 2.07726 2.16541 2.23636 2.16541 2.43262V3.33125C2.16541 3.5275 2.3245 3.68661 2.52076 3.68661H3.13448H12.8654H13.4792C13.6754 3.68661 13.8345 3.5275 13.8345 3.33125V2.43262C13.8345 2.23636 13.6754 2.07726 13.4792 2.07726H10.9952V1.85517V1.63307ZM9.66259 2.0042H6.33733V1.85515V1.63305V1.33259H9.66259V1.63307V1.85517V2.0042Z" fill="#AFAFAF"/>
</svg>
