<svg width="20" height="20" viewBox="0 0 20 20" fill="none" xmlns="http://www.w3.org/2000/svg">
<g clip-path="url(#clip0)">
<path d="M18.4592 12.5639C18.1841 12.5639 17.9611 12.7869 17.9611 13.062V17.4846C17.9601 18.3096 17.2918 18.9781 16.4668 18.9789H2.49052C1.66553 18.9781 0.99718 18.3096 0.996207 17.4846V4.50451C0.99718 3.67972 1.66553 3.01117 2.49052 3.0102H6.91313C7.18826 3.0102 7.41124 2.78722 7.41124 2.5121C7.41124 2.23717 7.18826 2.01399 6.91313 2.01399H2.49052C1.11567 2.01555 0.00155657 3.12967 0 4.50451V17.4848C0.00155657 18.8596 1.11567 19.9738 2.49052 19.9753H16.4668C17.8416 19.9738 18.9558 18.8596 18.9573 17.4848V13.062C18.9573 12.7869 18.7343 12.5639 18.4592 12.5639Z" fill="white"/>
<path d="M18.7602 0.732354C17.8848 -0.143024 16.4656 -0.143024 15.5903 0.732354L6.70377 9.61883C6.64287 9.67973 6.59889 9.75523 6.57593 9.83811L5.40734 14.057C5.35928 14.23 5.40811 14.4152 5.53498 14.5423C5.66203 14.6691 5.84726 14.718 6.02024 14.6701L10.2391 13.5013C10.322 13.4784 10.3975 13.4344 10.4584 13.3735L19.3447 4.48681C20.2187 3.61085 20.2187 2.19281 19.3447 1.31685L18.7602 0.732354ZM7.78909 9.9426L15.062 2.66951L17.4076 5.01507L10.1345 12.2882L7.78909 9.9426ZM7.32056 10.8828L9.19448 12.7569L6.6024 13.475L7.32056 10.8828ZM18.6404 3.78246L18.1121 4.31072L15.7663 1.96497L16.2948 1.4367C16.781 0.950469 17.5694 0.950469 18.0557 1.4367L18.6404 2.0212C19.1258 2.50802 19.1258 3.29584 18.6404 3.78246Z" fill="white"/>
</g>
<defs>
<clipPath id="clip0">
<rect width="20" height="20" fill="white"/>
</clipPath>
</defs>
</svg>
