<svg width="20" height="20" xmlns="http://www.w3.org/2000/svg" fill="green">
 <defs>
  <clipPath id="clip0">
   <rect width="20" height="20" fill="green" id="svg_1"/>
  </clipPath>
 </defs>
 <g>
  <title>Layer 1</title>
  <g clip-path="url(#clip0)" id="svg_2">
   <path d="m18.4592,12.5639c-0.2751,0 -0.4981,0.223 -0.4981,0.4981l0,4.4226c-0.001,0.825 -0.6693,1.4935 -1.4943,1.4943l-13.97628,0c-0.82499,-0.0008 -1.49334,-0.6693 -1.49431,-1.4943l0,-12.98009c0.00097,-0.82479 0.66932,-1.49334 1.49431,-1.49431l4.42261,0c0.27513,0 0.49811,-0.22298 0.49811,-0.4981c0,-0.27493 -0.22298,-0.49811 -0.49811,-0.49811l-4.42261,0c-1.37485,0.00156 -2.48896,1.11568 -2.49052,2.49052l0,12.98029c0.00156,1.3748 1.11567,2.489 2.49052,2.4905l13.97628,0c1.3748,-0.0015 2.489,-1.1157 2.4905,-2.4905l0,-4.4228c0,-0.2751 -0.223,-0.4981 -0.4981,-0.4981z" fill="#0C372C" id="svg_3"/>
   <path d="m18.7602,0.73235c-0.8754,-0.87537 -2.2946,-0.87537 -3.1699,0l-8.88653,8.88648c-0.0609,0.0609 -0.10488,0.1364 -0.12784,0.21928l-1.16859,4.21889c-0.04806,0.173 0.00077,0.3582 0.12764,0.4853c0.12705,0.1268 0.31228,0.1757 0.48526,0.1278l4.21886,-1.1688c0.0829,-0.0229 0.1584,-0.0669 0.2193,-0.1278l8.8863,-8.88669c0.874,-0.87596 0.874,-2.294 0,-3.16996l-0.5845,-0.5845zm-10.97111,9.21025l7.27291,-7.27309l2.3456,2.34556l-7.2731,7.27313l-2.34541,-2.3456zm-0.46853,0.9402l1.87392,1.8741l-2.59208,0.7181l0.71816,-2.5922zm11.31984,-7.10034l-0.5283,0.52826l-2.3458,-2.34575l0.5285,-0.52827c0.4862,-0.48623 1.2746,-0.48623 1.7609,0l0.5847,0.5845c0.4854,0.48682 0.4854,1.27464 0,1.76126z" fill="#0C372C" id="svg_4"/>
  </g>
 </g>
</svg>