<svg xmlns="http://www.w3.org/2000/svg" width="512" height="512" viewBox="0 0 512 512" version="1.1"><path d="M 104.500 30.924 C 97.592 32.631, 92.011 37.153, 88.364 44 C 86.562 47.383, 86.500 54.483, 86.500 256 L 86.500 464.500 88.658 468.500 C 91.184 473.180, 95.101 477.027, 100 479.636 C 103.371 481.431, 109.122 481.500, 256 481.500 C 402.878 481.500, 408.629 481.431, 412 479.636 C 416.899 477.027, 420.816 473.180, 423.342 468.500 L 425.500 464.500 425.500 296.500 C 425.500 161.800, 425.244 127.806, 424.210 125 C 422.365 119.994, 338.018 34.707, 332.500 32.268 C 328.761 30.615, 321.293 30.490, 218 30.342 C 157.225 30.255, 106.150 30.517, 104.500 30.924 M 105 49 C 103.013 50.987, 103 52.333, 103 256 C 103 459.667, 103.013 461.013, 105 463 C 106.982 464.982, 108.333 465, 256 465 C 403.667 465, 405.018 464.982, 407 463 C 408.984 461.016, 409 459.667, 409 298.558 L 409 136.117 373.750 135.808 C 340.265 135.515, 338.275 135.394, 334 133.380 C 328.606 130.839, 324.745 126.917, 322.303 121.500 C 320.697 117.936, 320.466 113.654, 320.192 82.250 L 319.883 47 213.442 47 C 108.333 47, 106.975 47.025, 105 49 M 337 87 C 337 113.667, 337.095 115.095, 339 117 C 340.906 118.906, 342.333 119, 369.244 119 L 397.487 119 367.500 89 C 351.007 72.500, 337.397 59, 337.256 59 C 337.115 59, 337 71.600, 337 87 M 134.455 121.455 C 132.907 123.002, 132 125.052, 132 127 C 132 128.948, 132.907 130.998, 134.455 132.545 L 136.909 135 190.873 135 C 220.553 135, 245.565 134.720, 246.455 134.379 C 247.346 134.037, 248.758 132.435, 249.594 130.818 C 251.572 126.992, 250.026 121.789, 246.424 120.147 C 244.630 119.330, 228.523 119, 190.407 119 L 136.909 119 134.455 121.455 M 134.455 184.455 C 132.907 186.002, 132 188.052, 132 190 C 132 191.948, 132.907 193.998, 134.455 195.545 L 136.909 198 171.766 198 C 205.463 198, 206.696 197.932, 208.811 195.961 C 212.265 192.743, 212.079 187.569, 208.389 184.250 C 205.898 182.008, 205.758 182, 171.399 182 L 136.909 182 134.455 184.455 M 234.455 184.455 C 232.907 186.002, 232 188.052, 232 190 C 232 191.948, 232.907 193.998, 234.455 195.545 L 236.909 198 306 198 L 375.091 198 377.545 195.545 C 380.793 192.298, 380.793 187.702, 377.545 184.455 L 375.091 182 306 182 L 236.909 182 234.455 184.455 M 134.455 239.455 C 132.907 241.002, 132 243.052, 132 245 C 132 246.948, 132.907 248.998, 134.455 250.545 L 136.909 253 256 253 L 375.091 253 377.545 250.545 C 379.093 248.998, 380 246.948, 380 245 C 380 243.052, 379.093 241.002, 377.545 239.455 L 375.091 237 256 237 L 136.909 237 134.455 239.455 M 134.455 294.455 C 132.907 296.002, 132 298.052, 132 300 C 132 301.948, 132.907 303.998, 134.455 305.545 L 136.909 308 206 308 L 275.091 308 277.545 305.545 C 280.793 302.298, 280.793 297.702, 277.545 294.455 L 275.091 292 206 292 L 136.909 292 134.455 294.455 M 303.611 294.250 C 299.921 297.569, 299.735 302.743, 303.189 305.961 C 305.304 307.932, 306.537 308, 340.234 308 L 375.091 308 377.545 305.545 C 379.093 303.998, 380 301.948, 380 300 C 380 298.052, 379.093 296.002, 377.545 294.455 L 375.091 292 340.601 292 C 306.242 292, 306.102 292.008, 303.611 294.250 M 134.455 349.455 C 132.907 351.002, 132 353.052, 132 355 C 132 356.948, 132.907 358.998, 134.455 360.545 L 136.909 363 256 363 L 375.091 363 377.545 360.545 C 379.093 358.998, 380 356.948, 380 355 C 380 353.052, 379.093 351.002, 377.545 349.455 L 375.091 347 256 347 L 136.909 347 134.455 349.455 M 303.611 404.250 C 299.921 407.569, 299.735 412.743, 303.189 415.961 C 305.304 417.932, 306.537 418, 340.234 418 L 375.091 418 377.545 415.545 C 379.093 413.998, 380 411.948, 380 410 C 380 408.052, 379.093 406.002, 377.545 404.455 L 375.091 402 340.601 402 C 306.242 402, 306.102 402.008, 303.611 404.250" stroke="none" fill="#040404" fill-rule="evenodd"/></svg>