<svg xmlns="http://www.w3.org/2000/svg" width="512" height="410" viewBox="0 0 512 410" version="1.1"><path d="M 39.348 1.420 C 26.924 4.433, 13.919 14.121, 7.105 25.436 C 0.797 35.914, -0.007 41.105, 0.055 70.978 L 0.110 97.500 2.032 90.161 C 5.683 76.224, 14.691 64.619, 26.896 58.128 C 38.822 51.786, 34.536 52.025, 136.750 52.012 C 188.037 52.005, 230 51.659, 230 51.243 C 230 50.826, 218.634 39.126, 204.743 25.243 L 179.486 0 111.993 0.085 C 61.673 0.148, 43.189 0.488, 39.348 1.420" stroke="none" fill="#fca404" fill-rule="evenodd"/><path d="M 135 51.998 C 66.522 52.376, 38.593 52.852, 36.295 53.680 C 18.675 60.029, 6.426 73.195, 1.985 90.557 C 0.054 98.111, 0 101.922, 0 231.950 C 0 378.006, -0.265 371.090, 5.766 382.425 C 7.251 385.216, 11.623 390.692, 15.483 394.592 C 23.091 402.282, 31.284 406.911, 40.799 408.895 C 48.305 410.460, 463.695 410.460, 471.201 408.895 C 488.257 405.338, 504.926 390.242, 509.620 374.102 C 510.516 371.021, 511.652 367.600, 512.144 366.500 C 512.661 365.346, 512.920 307.639, 512.759 230 C 512.503 107.327, 512.330 95.028, 510.798 90.131 C 507.785 80.501, 503.822 73.805, 497.097 66.982 C 489.866 59.645, 479.828 54.090, 470.201 52.097 C 464.697 50.958, 330.614 50.918, 135 51.998 M 0.486 232 C 0.486 306.525, 0.605 337.013, 0.750 299.750 C 0.895 262.488, 0.895 201.513, 0.750 164.250 C 0.605 126.988, 0.486 157.475, 0.486 232" stroke="none" fill="#fccb23" fill-rule="evenodd"/></svg>