<svg xmlns="http://www.w3.org/2000/svg" width="1024" height="1024" viewBox="0 0 1024 1024" version="1.1"><path d="M 0.139 244.250 C 0.215 378.711, 0.643 483.780, 1.090 478 C 2.182 463.888, 3.966 446.726, 5.041 440 C 5.525 436.975, 6.424 431.350, 7.040 427.500 C 11.595 399.041, 23.961 352.064, 30.995 336.500 C 31.493 335.400, 32.571 332.475, 33.392 330 C 34.719 326.001, 37.088 320.165, 43.540 305 C 46.482 298.085, 64.188 262.565, 64.975 262 C 65.357 261.725, 67.031 259.025, 68.693 256 C 70.354 252.975, 72.775 248.700, 74.072 246.500 C 77.053 241.442, 96.159 212.670, 96.982 212 C 97.320 211.725, 98.678 209.925, 100 208 C 101.322 206.075, 102.672 204.275, 103 204 C 103.328 203.725, 104.678 201.925, 106 200 C 107.322 198.075, 108.650 196.275, 108.952 196 C 109.253 195.725, 111.137 193.475, 113.138 191 C 115.139 188.525, 117.614 185.543, 118.638 184.374 C 119.662 183.205, 122.525 179.854, 125 176.927 C 137.683 161.930, 160.341 139.280, 176.625 125.321 C 179.306 123.023, 183.075 119.749, 185 118.045 C 200.162 104.626, 246.984 72.377, 259.250 66.906 C 260.763 66.231, 262 65.301, 262 64.839 C 262 64.378, 262.900 64, 264 64 C 265.100 64, 266 63.645, 266 63.210 C 266 62.211, 311.417 40, 313.459 40 C 313.724 40, 316.362 38.892, 319.322 37.538 C 322.282 36.184, 326.908 34.362, 329.602 33.488 C 332.296 32.614, 335.400 31.497, 336.500 31.006 C 343.913 27.695, 367.958 20.219, 384.971 15.935 C 415.379 8.279, 444.588 3.587, 477 1.153 C 483.904 0.634, 390.884 0.231, 244.250 0.145 L 0 0 0.139 244.250 M 547 1.153 C 584.462 3.966, 625.249 11.165, 655 20.214 C 664.933 23.236, 685.253 29.927, 687.500 30.917 C 688.600 31.402, 691.075 32.346, 693 33.016 C 694.925 33.686, 697.850 34.822, 699.500 35.539 C 701.150 36.257, 704.975 37.814, 708 39 C 716.920 42.497, 719.505 43.689, 740.930 54.191 C 752.166 59.699, 762.516 64.997, 763.930 65.963 C 765.343 66.930, 769.875 69.690, 774 72.098 C 791.564 82.348, 826.849 107.290, 839 118.045 C 840.925 119.749, 844.694 123.023, 847.375 125.321 C 863.659 139.280, 886.317 161.930, 899 176.927 C 901.475 179.854, 904.338 183.205, 905.362 184.374 C 906.386 185.543, 908.861 188.525, 910.862 191 C 912.863 193.475, 914.747 195.725, 915.048 196 C 915.350 196.275, 916.678 198.075, 918 200 C 919.322 201.925, 920.672 203.725, 921 204 C 921.328 204.275, 922.678 206.075, 924 208 C 925.322 209.925, 926.680 211.725, 927.018 212 C 927.841 212.670, 946.947 241.442, 949.928 246.500 C 951.225 248.700, 953.640 252.975, 955.295 256 C 956.951 259.025, 959.096 262.638, 960.063 264.029 C 961.948 266.740, 977.261 297.537, 980.435 305 C 981.488 307.475, 983.208 311.525, 984.257 314 C 985.306 316.475, 986.769 319.850, 987.510 321.500 C 988.250 323.150, 989.585 326.750, 990.478 329.500 C 991.370 332.250, 992.507 335.400, 993.005 336.500 C 1000.039 352.064, 1012.405 399.041, 1016.960 427.500 C 1017.576 431.350, 1018.475 436.975, 1018.959 440 C 1020.034 446.726, 1021.818 463.888, 1022.910 478 C 1023.357 483.780, 1023.785 378.711, 1023.861 244.250 L 1024 0 779.750 0.145 C 633.116 0.231, 540.096 0.634, 547 1.153 M 284 233.926 C 272.849 238.228, 267.311 242.452, 260.840 251.588 C 253.423 262.060, 254 240.088, 254 512 C 254 783.912, 253.423 761.940, 260.840 772.412 C 267.413 781.692, 273.985 786.567, 285.176 790.465 C 288.977 791.789, 316.419 791.971, 512 791.971 C 754.760 791.971, 736.348 792.404, 748.175 786.411 C 753.874 783.524, 757.878 779.776, 763.133 772.412 C 770.581 761.975, 770 783.999, 770 512 C 770 240.088, 770.577 262.060, 763.160 251.588 C 756.587 242.308, 750.015 237.433, 738.824 233.535 C 735.020 232.210, 707.667 232.039, 511.500 232.110 C 302.310 232.185, 288.221 232.298, 284 233.926 M 297 511.998 L 297 749 511.878 749 L 726.757 749 727.441 655.750 C 727.818 604.462, 727.985 497.925, 727.813 419 L 727.500 275.500 512.250 275.248 L 297 274.995 297 511.998 M 332 340.500 L 332 373 364.500 373 L 397 373 397 340.500 L 397 308 364.500 308 L 332 308 332 340.500 M 430 340.514 L 430 373.027 462.750 372.764 L 495.500 372.500 495.764 340.250 L 496.028 308 463.014 308 L 430 308 430 340.514 M 528.236 340.250 L 528.500 372.500 561.250 372.764 L 594 373.027 594 340.514 L 594 308 560.986 308 L 527.972 308 528.236 340.250 M 627 340.500 L 627 373 659.430 373 L 691.861 373 692.180 370.750 C 692.356 369.512, 692.375 354.887, 692.222 338.250 L 691.943 308 659.472 308 L 627 308 627 340.500 M 332 454.467 L 332 486.962 334.250 487.523 C 335.488 487.832, 350 487.953, 366.500 487.792 L 396.500 487.500 396.500 455 L 396.500 422.500 364.250 422.236 L 332 421.972 332 454.467 M 430 454.981 L 430 487.962 462.750 487.731 L 495.500 487.500 495.764 454.750 L 496.027 422 463.014 422 L 430 422 430 454.981 M 528.236 454.750 L 528.500 487.500 561.250 487.731 L 594 487.962 594 454.981 L 594 422 560.986 422 L 527.973 422 528.236 454.750 M 627.454 423.259 C 627.188 423.952, 627.090 438.689, 627.235 456.009 L 627.500 487.500 659.750 487.732 L 692 487.964 692 454.982 L 692 422 659.969 422 C 635.141 422, 627.829 422.283, 627.454 423.259 M 0.139 779.750 L 0 1024 244.250 1023.855 C 390.884 1023.769, 483.904 1023.366, 477 1022.847 C 444.588 1020.413, 415.379 1015.721, 384.971 1008.065 C 367.958 1003.781, 343.913 996.305, 336.500 992.994 C 335.400 992.503, 332.296 991.386, 329.602 990.512 C 326.908 989.638, 322.282 987.816, 319.322 986.462 C 316.362 985.108, 313.724 984, 313.459 984 C 311.497 984, 268.127 962.857, 266.793 961.250 C 266.222 960.563, 264.910 960, 263.878 960 C 262.845 960, 262 959.622, 262 959.161 C 262 958.699, 260.762 957.769, 259.250 957.094 C 247.126 951.687, 199.867 919.175, 185.382 906.276 C 183.667 904.749, 179.866 901.475, 176.935 899 C 161.708 886.142, 137.959 862.396, 125 847.073 C 122.525 844.146, 119.662 840.795, 118.638 839.626 C 117.614 838.457, 115.139 835.475, 113.138 833 C 111.137 830.525, 109.253 828.275, 108.952 828 C 108.650 827.725, 107.322 825.925, 106 824 C 104.678 822.075, 103.350 820.275, 103.048 820 C 101.416 818.511, 95.267 809.829, 86.403 796.500 C 76.102 781.009, 73.834 777.358, 68.693 768 C 67.031 764.975, 65.357 762.275, 64.975 762 C 64.188 761.435, 46.482 725.915, 43.540 719 C 37.195 704.086, 34.716 698.001, 33.354 694 C 32.512 691.525, 30.297 685.382, 28.432 680.349 C 20.339 658.507, 11.283 623.011, 7.040 596.500 C 6.424 592.650, 5.525 587.025, 5.041 584 C 3.966 577.274, 2.182 560.112, 1.090 546 C 0.643 540.220, 0.215 645.289, 0.139 779.750 M 333.250 536.655 C 332.286 537.050, 332 544.592, 332 569.597 L 332 602.028 364.250 601.764 L 396.500 601.500 396.500 569 L 396.500 536.500 365.500 536.322 C 348.450 536.224, 333.938 536.374, 333.250 536.655 M 430 569.019 L 430 602 463.014 602 L 496.027 602 495.764 569.250 L 495.500 536.500 462.750 536.269 L 430 536.038 430 569.019 M 528.690 536.643 C 528.311 537.023, 528 551.883, 528 569.667 L 528 602 561 602 L 594 602 594 569.052 L 594 536.103 561.690 536.028 C 543.920 535.986, 529.070 536.263, 528.690 536.643 M 627.443 537.288 C 627.183 537.965, 627.090 552.689, 627.235 570.009 L 627.500 601.500 659.750 601.764 L 692 602.028 692 569.043 L 692 536.058 659.957 536.058 C 635.521 536.058, 627.803 536.350, 627.443 537.288 M 1022.586 548.250 C 1021.250 572.633, 1016.458 604.094, 1009.832 632 C 1005.797 648.990, 996.397 679.993, 993.005 687.500 C 992.507 688.600, 991.370 691.750, 990.478 694.500 C 989.585 697.250, 988.250 700.850, 987.510 702.500 C 986.769 704.150, 985.306 707.525, 984.257 710 C 983.208 712.475, 981.488 716.525, 980.435 719 C 977.261 726.463, 961.948 757.260, 960.063 759.971 C 959.096 761.362, 956.951 764.975, 955.295 768 C 953.640 771.025, 951.225 775.300, 949.928 777.500 C 946.947 782.558, 927.841 811.330, 927.018 812 C 926.680 812.275, 925.322 814.075, 924 816 C 922.678 817.925, 921.328 819.725, 921 820 C 920.672 820.275, 919.322 822.075, 918 824 C 916.678 825.925, 915.350 827.725, 915.048 828 C 914.747 828.275, 912.863 830.525, 910.862 833 C 908.861 835.475, 906.386 838.457, 905.362 839.626 C 904.338 840.795, 901.475 844.146, 899 847.073 C 886.085 862.344, 863.956 884.464, 847.375 898.679 C 844.694 900.977, 840.925 904.251, 839 905.955 C 826.849 916.710, 791.564 941.652, 774 951.902 C 769.875 954.310, 765.281 957.116, 763.790 958.140 C 762.300 959.163, 760.388 960, 759.540 960 C 758.693 960, 758 960.355, 758 960.790 C 758 961.789, 712.583 984, 710.541 984 C 710.276 984, 707.638 985.108, 704.678 986.462 C 701.718 987.816, 697.092 989.638, 694.398 990.512 C 691.704 991.386, 688.600 992.520, 687.500 993.032 C 685.435 993.994, 666.450 1000.288, 655 1003.806 C 641.705 1007.891, 613.412 1014.253, 596.500 1016.960 C 592.650 1017.576, 587.025 1018.487, 584 1018.984 C 577.630 1020.031, 561.079 1021.740, 546 1022.909 C 540.207 1023.358, 644.989 1023.785, 779.750 1023.861 L 1024 1024 1024 780 C 1024 645.800, 1023.833 536, 1023.628 536 C 1023.424 536, 1022.955 541.513, 1022.586 548.250 M 332 683.500 L 332 716 364.500 716 L 397 716 397 683.500 L 397 651 364.500 651 L 332 651 332 683.500 M 430 683.486 L 430 716 463.014 716 L 496.028 716 495.764 683.750 L 495.500 651.500 462.750 651.236 L 430 650.973 430 683.486 M 528.667 651.667 C 528.300 652.033, 528 666.658, 528 684.167 L 528 716 561 716 L 594 716 594 683.500 L 594 651 561.667 651 C 543.883 651, 529.033 651.300, 528.667 651.667 M 627 683.500 L 627 716 659.472 716 L 691.943 716 692.222 685.250 C 692.375 668.337, 692.335 653.712, 692.133 652.750 C 691.793 651.127, 689.418 651, 659.383 651 L 627 651 627 683.500" stroke="none" fill="#fbfbf9" fill-rule="evenodd"/><path d="M 472.500 1.555 C 441.464 4.014, 415.145 8.338, 384.971 15.935 C 367.958 20.219, 343.913 27.695, 336.500 31.006 C 335.400 31.497, 332.296 32.614, 329.602 33.488 C 326.908 34.362, 322.282 36.184, 319.322 37.538 C 316.362 38.892, 313.724 40, 313.459 40 C 311.417 40, 266 62.211, 266 63.210 C 266 63.645, 265.100 64, 264 64 C 262.900 64, 262 64.378, 262 64.839 C 262 65.301, 260.762 66.231, 259.250 66.906 C 246.984 72.377, 200.162 104.626, 185 118.045 C 183.075 119.749, 179.306 123.023, 176.625 125.321 C 160.341 139.280, 137.683 161.930, 125 176.927 C 122.525 179.854, 119.662 183.205, 118.638 184.374 C 117.614 185.543, 115.139 188.525, 113.138 191 C 111.137 193.475, 109.253 195.725, 108.952 196 C 108.650 196.275, 107.322 198.075, 106 200 C 104.678 201.925, 103.328 203.725, 103 204 C 102.672 204.275, 101.322 206.075, 100 208 C 98.678 209.925, 97.320 211.725, 96.982 212 C 96.159 212.670, 77.053 241.442, 74.072 246.500 C 72.775 248.700, 70.354 252.975, 68.693 256 C 67.031 259.025, 65.357 261.725, 64.975 262 C 64.188 262.565, 46.482 298.085, 43.540 305 C 37.088 320.165, 34.719 326.001, 33.392 330 C 32.571 332.475, 31.493 335.400, 30.995 336.500 C 23.964 352.058, 11.619 398.947, 7.037 427.500 C 6.420 431.350, 5.686 435.850, 5.408 437.500 C 2.646 453.878, 0.029 490.117, 0.029 512 C 0.029 533.883, 2.646 570.122, 5.408 586.500 C 5.686 588.150, 6.420 592.650, 7.037 596.500 C 11.306 623.102, 20.342 658.516, 28.432 680.349 C 30.297 685.382, 32.512 691.525, 33.354 694 C 34.716 698.001, 37.195 704.086, 43.540 719 C 46.482 725.915, 64.188 761.435, 64.975 762 C 65.357 762.275, 67.031 764.975, 68.693 768 C 73.834 777.358, 76.102 781.009, 86.403 796.500 C 95.267 809.829, 101.416 818.511, 103.048 820 C 103.350 820.275, 104.678 822.075, 106 824 C 107.322 825.925, 108.650 827.725, 108.952 828 C 109.253 828.275, 111.137 830.525, 113.138 833 C 115.139 835.475, 117.614 838.457, 118.638 839.626 C 119.662 840.795, 122.525 844.146, 125 847.073 C 137.959 862.396, 161.708 886.142, 176.935 899 C 179.866 901.475, 183.667 904.749, 185.382 906.276 C 199.867 919.175, 247.126 951.687, 259.250 957.094 C 260.762 957.769, 262 958.699, 262 959.161 C 262 959.622, 262.845 960, 263.878 960 C 264.910 960, 266.222 960.563, 266.793 961.250 C 268.127 962.857, 311.497 984, 313.459 984 C 313.724 984, 316.362 985.108, 319.322 986.462 C 322.282 987.816, 326.908 989.638, 329.602 990.512 C 332.296 991.386, 335.400 992.503, 336.500 992.994 C 340.057 994.583, 353.123 999.016, 363.440 1002.135 C 422.815 1020.086, 487.919 1027.212, 549.637 1022.516 C 571.542 1020.849, 574.088 1020.547, 596.750 1016.920 C 613.418 1014.252, 641.798 1007.863, 655 1003.806 C 666.450 1000.288, 685.435 993.994, 687.500 993.032 C 688.600 992.520, 691.704 991.386, 694.398 990.512 C 697.092 989.638, 701.718 987.816, 704.678 986.462 C 707.638 985.108, 710.276 984, 710.541 984 C 712.583 984, 758 961.789, 758 960.790 C 758 960.355, 758.693 960, 759.540 960 C 760.388 960, 762.300 959.163, 763.790 958.140 C 765.281 957.116, 769.875 954.310, 774 951.902 C 791.564 941.652, 826.849 916.710, 839 905.955 C 840.925 904.251, 844.694 900.977, 847.375 898.679 C 863.956 884.464, 886.085 862.344, 899 847.073 C 901.475 844.146, 904.338 840.795, 905.362 839.626 C 906.386 838.457, 908.861 835.475, 910.862 833 C 912.863 830.525, 914.747 828.275, 915.048 828 C 915.350 827.725, 916.678 825.925, 918 824 C 919.322 822.075, 920.672 820.275, 921 820 C 921.328 819.725, 922.678 817.925, 924 816 C 925.322 814.075, 926.680 812.275, 927.018 812 C 927.841 811.330, 946.947 782.558, 949.928 777.500 C 951.225 775.300, 953.640 771.025, 955.295 768 C 956.951 764.975, 959.096 761.362, 960.063 759.971 C 961.948 757.260, 977.261 726.463, 980.435 719 C 981.488 716.525, 983.208 712.475, 984.257 710 C 985.306 707.525, 986.769 704.150, 987.510 702.500 C 988.250 700.850, 989.585 697.250, 990.478 694.500 C 991.370 691.750, 992.507 688.600, 993.005 687.500 C 996.397 679.993, 1005.797 648.990, 1009.832 632 C 1016.461 604.085, 1021.249 572.635, 1022.587 548.229 C 1022.957 541.480, 1023.651 535.716, 1024.130 535.420 C 1024.608 535.124, 1025 524.082, 1025 510.882 C 1025 497.471, 1024.615 487.120, 1024.127 487.421 C 1023.647 487.718, 1022.953 482.457, 1022.585 475.730 C 1021.250 451.368, 1016.456 419.897, 1009.832 392 C 1005.797 375.010, 996.397 344.007, 993.005 336.500 C 992.507 335.400, 991.370 332.250, 990.478 329.500 C 989.585 326.750, 988.250 323.150, 987.510 321.500 C 986.769 319.850, 985.306 316.475, 984.257 314 C 983.208 311.525, 981.488 307.475, 980.435 305 C 977.261 297.537, 961.948 266.740, 960.063 264.029 C 959.096 262.638, 956.951 259.025, 955.295 256 C 953.640 252.975, 951.225 248.700, 949.928 246.500 C 946.947 241.442, 927.841 212.670, 927.018 212 C 926.680 211.725, 925.322 209.925, 924 208 C 922.678 206.075, 921.328 204.275, 921 204 C 920.672 203.725, 919.322 201.925, 918 200 C 916.678 198.075, 915.350 196.275, 915.048 196 C 914.747 195.725, 912.863 193.475, 910.862 191 C 908.861 188.525, 906.386 185.543, 905.362 184.374 C 904.338 183.205, 901.475 179.854, 899 176.927 C 886.317 161.930, 863.659 139.280, 847.375 125.321 C 844.694 123.023, 840.925 119.749, 839 118.045 C 826.849 107.290, 791.564 82.348, 774 72.098 C 769.875 69.690, 765.343 66.930, 763.930 65.963 C 762.516 64.997, 752.166 59.699, 740.930 54.191 C 719.505 43.689, 716.920 42.497, 708 39 C 704.975 37.814, 701.150 36.257, 699.500 35.539 C 697.850 34.822, 694.925 33.686, 693 33.016 C 691.075 32.346, 688.600 31.402, 687.500 30.917 C 685.253 29.927, 664.933 23.236, 655 20.214 C 646.028 17.485, 625.273 12.455, 611 9.551 C 570.003 1.208, 516.139 -1.902, 472.500 1.555 M 284 233.926 C 272.849 238.228, 267.311 242.452, 260.840 251.588 C 253.423 262.060, 254 240.088, 254 512 C 254 783.912, 253.423 761.940, 260.840 772.412 C 267.413 781.692, 273.985 786.567, 285.176 790.465 C 288.977 791.789, 316.419 791.971, 512 791.971 C 754.760 791.971, 736.348 792.404, 748.175 786.411 C 753.874 783.524, 757.878 779.776, 763.133 772.412 C 770.581 761.975, 770 783.999, 770 512 C 770 240.088, 770.577 262.060, 763.160 251.588 C 756.587 242.308, 750.015 237.433, 738.824 233.535 C 735.020 232.210, 707.667 232.039, 511.500 232.110 C 302.310 232.185, 288.221 232.298, 284 233.926 M 297 511.998 L 297 749 511.878 749 L 726.757 749 727.441 655.750 C 727.818 604.462, 727.985 497.925, 727.813 419 L 727.500 275.500 512.250 275.248 L 297 274.995 297 511.998 M 332 340.500 L 332 373 364.500 373 L 397 373 397 340.500 L 397 308 364.500 308 L 332 308 332 340.500 M 430 340.514 L 430 373.027 462.750 372.764 L 495.500 372.500 495.764 340.250 L 496.028 308 463.014 308 L 430 308 430 340.514 M 528.236 340.250 L 528.500 372.500 561.250 372.764 L 594 373.027 594 340.514 L 594 308 560.986 308 L 527.972 308 528.236 340.250 M 627 340.500 L 627 373 659.430 373 L 691.861 373 692.180 370.750 C 692.356 369.512, 692.375 354.887, 692.222 338.250 L 691.943 308 659.472 308 L 627 308 627 340.500 M 332 454.467 L 332 486.962 334.250 487.523 C 335.488 487.832, 350 487.953, 366.500 487.792 L 396.500 487.500 396.500 455 L 396.500 422.500 364.250 422.236 L 332 421.972 332 454.467 M 430 454.981 L 430 487.962 462.750 487.731 L 495.500 487.500 495.764 454.750 L 496.027 422 463.014 422 L 430 422 430 454.981 M 528.236 454.750 L 528.500 487.500 561.250 487.731 L 594 487.962 594 454.981 L 594 422 560.986 422 L 527.973 422 528.236 454.750 M 627.454 423.259 C 627.188 423.952, 627.090 438.689, 627.235 456.009 L 627.500 487.500 659.750 487.732 L 692 487.964 692 454.982 L 692 422 659.969 422 C 635.141 422, 627.829 422.283, 627.454 423.259 M 0.432 512 C 0.432 525.475, 0.574 530.987, 0.747 524.250 C 0.920 517.513, 0.920 506.488, 0.747 499.750 C 0.574 493.012, 0.432 498.525, 0.432 512 M 333.250 536.655 C 332.286 537.050, 332 544.592, 332 569.597 L 332 602.028 364.250 601.764 L 396.500 601.500 396.500 569 L 396.500 536.500 365.500 536.322 C 348.450 536.224, 333.938 536.374, 333.250 536.655 M 430 569.019 L 430 602 463.014 602 L 496.027 602 495.764 569.250 L 495.500 536.500 462.750 536.269 L 430 536.038 430 569.019 M 528.690 536.643 C 528.311 537.023, 528 551.883, 528 569.667 L 528 602 561 602 L 594 602 594 569.052 L 594 536.103 561.690 536.028 C 543.920 535.986, 529.070 536.263, 528.690 536.643 M 627.443 537.288 C 627.183 537.965, 627.090 552.689, 627.235 570.009 L 627.500 601.500 659.750 601.764 L 692 602.028 692 569.043 L 692 536.058 659.957 536.058 C 635.521 536.058, 627.803 536.350, 627.443 537.288 M 332 683.500 L 332 716 364.500 716 L 397 716 397 683.500 L 397 651 364.500 651 L 332 651 332 683.500 M 430 683.486 L 430 716 463.014 716 L 496.028 716 495.764 683.750 L 495.500 651.500 462.750 651.236 L 430 650.973 430 683.486 M 528.667 651.667 C 528.300 652.033, 528 666.658, 528 684.167 L 528 716 561 716 L 594 716 594 683.500 L 594 651 561.667 651 C 543.883 651, 529.033 651.300, 528.667 651.667 M 627 683.500 L 627 716 659.472 716 L 691.943 716 692.222 685.250 C 692.375 668.337, 692.335 653.712, 692.133 652.750 C 691.793 651.127, 689.418 651, 659.383 651 L 627 651 627 683.500" stroke="none" fill="#fb9405" fill-rule="evenodd"/></svg>