<svg width="25" height="25" viewBox="0 0 25 25" fill="none" xmlns="http://www.w3.org/2000/svg">
<path d="M23.9901 11.4901H1.00986C0.452148 11.4901 0 11.9422 0 12.5C0 13.0578 0.452148 13.5099 1.00986 13.5099H23.9901C24.5479 13.5099 25 13.0578 25 12.5C25 11.9423 24.5479 11.4901 23.9901 11.4901Z" fill="#929292"/>
<path d="M23.9901 3.83005H1.00986C0.452148 3.83005 0 4.2822 0 4.83991C0 5.39763 0.452148 5.84977 1.00986 5.84977H23.9901C24.5479 5.84977 25 5.39763 25 4.83991C25 4.2822 24.5479 3.83005 23.9901 3.83005Z" fill="#929292"/>
<path d="M23.9901 19.1502H1.00986C0.452148 19.1502 0 19.6023 0 20.1601C0 20.7179 0.452148 21.17 1.00986 21.17H23.9901C24.5479 21.17 25 20.7179 25 20.1601C25 19.6023 24.5479 19.1502 23.9901 19.1502Z" fill="#929292"/>
</svg>
