<svg xmlns="http://www.w3.org/2000/svg" width="225" height="225" viewBox="0 0 225 225" version="1.1"><path d="M 0 112.500 L 0 225 16.250 224.843 C 27.450 224.734, 30.424 224.501, 25.820 224.093 C 18.120 223.409, 14.663 221.347, 11.266 215.406 L 9.033 211.500 9.016 112.710 C 9 16.254, 9.047 13.829, 10.977 10.044 C 12.065 7.913, 14.427 5.118, 16.227 3.834 C 19.466 1.525, 19.863 1.494, 54 0.969 L 88.500 0.437 44.250 0.219 L 0 0 0 112.500 M 175 0.965 C 204.938 1.490, 205.560 1.543, 208.773 3.834 C 210.573 5.118, 212.935 7.913, 214.023 10.044 C 215.953 13.829, 216 16.254, 215.984 112.710 L 215.967 211.500 213.734 215.406 C 210.337 221.347, 206.880 223.409, 199.180 224.093 C 194.576 224.501, 197.550 224.734, 208.750 224.843 L 225 225 225 112.500 L 225 0 184.750 0.215 L 144.500 0.430 175 0.965 M 26.245 112.750 L 26.500 207.500 112.500 207.500 L 198.500 207.500 198.755 112.750 L 199.010 18 112.500 18 L 25.990 18 26.245 112.750 M 52 69.500 L 52 78 60.500 78 L 69 78 69 69.500 L 69 61 60.500 61 L 52 61 52 69.500 M 87 69.500 L 87 78 130 78 L 173 78 173 69.500 L 173 61 130 61 L 87 61 87 69.500 M 52 112.500 L 52 121 60.500 121 L 69 121 69 112.500 L 69 104 60.500 104 L 52 104 52 112.500 M 87 112.500 L 87 121 130 121 L 173 121 173 112.500 L 173 104 130 104 L 87 104 87 112.500 M 52 155.500 L 52 164 60.500 164 L 69 164 69 155.500 L 69 147 60.500 147 L 52 147 52 155.500 M 87 155.500 L 87 164 130 164 L 173 164 173 155.500 L 173 147 130 147 L 87 147 87 155.500" stroke="none" fill="#fcfbfb" fill-rule="evenodd"/><path d="M 54 0.969 C 19.863 1.494, 19.466 1.525, 16.227 3.834 C 14.427 5.118, 12.065 7.913, 10.977 10.044 C 9.047 13.829, 9 16.254, 9.016 112.710 L 9.033 211.500 11.266 215.406 C 14.775 221.541, 17.992 223.354, 26.792 224.156 C 36.837 225.071, 188.163 225.071, 198.208 224.156 C 207.008 223.354, 210.225 221.541, 213.734 215.406 L 215.967 211.500 215.984 112.710 C 216 16.254, 215.953 13.829, 214.023 10.044 C 212.935 7.913, 210.573 5.118, 208.773 3.834 C 205.542 1.530, 205.060 1.492, 171 0.871 C 132.367 0.166, 104.620 0.189, 54 0.969 M 26.245 112.750 L 26.500 207.500 112.500 207.500 L 198.500 207.500 198.755 112.750 L 199.010 18 112.500 18 L 25.990 18 26.245 112.750 M 52 69.500 L 52 78 60.500 78 L 69 78 69 69.500 L 69 61 60.500 61 L 52 61 52 69.500 M 87 69.500 L 87 78 130 78 L 173 78 173 69.500 L 173 61 130 61 L 87 61 87 69.500 M 52 112.500 L 52 121 60.500 121 L 69 121 69 112.500 L 69 104 60.500 104 L 52 104 52 112.500 M 87 112.500 L 87 121 130 121 L 173 121 173 112.500 L 173 104 130 104 L 87 104 87 112.500 M 52 155.500 L 52 164 60.500 164 L 69 164 69 155.500 L 69 147 60.500 147 L 52 147 52 155.500 M 87 155.500 L 87 164 130 164 L 173 164 173 155.500 L 173 147 130 147 L 87 147 87 155.500" stroke="none" fill="#fca609" fill-rule="evenodd"/></svg>