<svg width="20" height="20" viewBox="0 0 20 20" fill="none" xmlns="http://www.w3.org/2000/svg">
<path d="M14.7064 0.304075C14.3009 -0.101358 13.6436 -0.101358 13.238 0.304075C12.8325 0.709671 12.8325 1.36704 13.238 1.77247L13.5018 2.03626L7.84649 7.69154H4.73816C4.38536 7.69252 4.04733 7.8327 3.79735 8.08138C3.27788 8.60101 3.27788 9.44339 3.79735 9.96301L6.18317 12.3488L1.40015 17.1318C0.72297 17.8092 0.242655 18.6577 0.0103749 19.587C-0.0178885 19.7002 0.0154103 19.82 0.0979265 19.9026C0.180443 19.9851 0.300156 20.0183 0.413535 19.9902C1.34265 19.7579 2.19121 19.2774 2.86855 18.6002L7.65157 13.8172L10.0376 16.203C10.557 16.7225 11.3994 16.7225 11.919 16.203C12.1679 15.9531 12.3079 15.615 12.3089 15.2624V12.1539L17.9641 6.49863L18.2279 6.76242C18.6335 7.16786 19.2909 7.16786 19.6963 6.76242C20.1018 6.35699 20.1018 5.69962 19.6963 5.29403L14.7064 0.304075ZM2.39782 18.1298C1.956 18.5718 1.42891 18.9196 0.848694 19.1519C1.08097 18.5715 1.42858 18.0442 1.87056 17.6022L6.65358 12.8192L7.18116 13.3468L2.39782 18.1298ZM19.2259 6.29202C19.0784 6.43301 18.846 6.43301 18.6983 6.29202L18.1993 5.79302C18.0694 5.66324 17.8589 5.66324 17.7289 5.79302L11.741 11.781C11.6786 11.8433 11.6435 11.928 11.6435 12.0162V15.2624C11.643 15.4386 11.5729 15.6077 11.4486 15.7326C11.1851 15.9834 10.7713 15.9834 10.5078 15.7326L4.26775 9.4926C4.00802 9.23287 4.00802 8.81168 4.26775 8.55179C4.39283 8.42753 4.56176 8.35752 4.73816 8.35687H7.98423C8.07243 8.35687 8.15706 8.32178 8.21943 8.25941L14.2074 2.27147C14.3373 2.14152 14.3373 1.93101 14.2074 1.80106L13.7084 1.30207C13.563 1.15636 13.563 0.920347 13.7084 0.774482C13.856 0.63349 14.0885 0.63349 14.236 0.774482L19.2259 5.76443C19.3715 5.9103 19.3715 6.14631 19.2259 6.29202Z" fill="white"/>
</svg>
