<svg width="67" height="16" viewBox="0 0 67 16" fill="none" xmlns="http://www.w3.org/2000/svg">
<rect width="67" height="16" rx="5" fill="#14B268"/>
<path d="M14.914 5C15.8207 5 16.534 5.21667 17.054 5.65C17.574 6.08333 17.834 6.68 17.834 7.44C17.834 8.2 17.574 8.79667 17.054 9.23C16.534 9.66333 15.8207 9.88 14.914 9.88H13.184V12H12.184V5H14.914ZM14.884 9.01C15.5173 9.01 16.0007 8.87667 16.334 8.61C16.6673 8.33667 16.834 7.94667 16.834 7.44C16.834 6.93333 16.6673 6.54667 16.334 6.28C16.0007 6.00667 15.5173 5.87 14.884 5.87H13.184V9.01H14.884ZM19.6952 7.59C19.8619 7.28333 20.1086 7.05 20.4352 6.89C20.7619 6.73 21.1586 6.65 21.6252 6.65V7.58C21.5719 7.57333 21.4986 7.57 21.4052 7.57C20.8852 7.57 20.4752 7.72667 20.1752 8.04C19.8819 8.34667 19.7352 8.78667 19.7352 9.36V12H18.7752V6.7H19.6952V7.59ZM27.2496 9.38C27.2496 9.45333 27.2429 9.55 27.2296 9.67H22.9296C22.9896 10.1367 23.1929 10.5133 23.5396 10.8C23.8929 11.08 24.3296 11.22 24.8496 11.22C25.4829 11.22 25.9929 11.0067 26.3796 10.58L26.9096 11.2C26.6696 11.48 26.3696 11.6933 26.0096 11.84C25.6563 11.9867 25.2596 12.06 24.8196 12.06C24.2596 12.06 23.7629 11.9467 23.3296 11.72C22.8963 11.4867 22.5596 11.1633 22.3196 10.75C22.0863 10.3367 21.9696 9.87 21.9696 9.35C21.9696 8.83667 22.0829 8.37333 22.3096 7.96C22.5429 7.54667 22.8596 7.22667 23.2596 7C23.6663 6.76667 24.1229 6.65 24.6296 6.65C25.1363 6.65 25.5863 6.76667 25.9796 7C26.3796 7.22667 26.6896 7.54667 26.9096 7.96C27.1363 8.37333 27.2496 8.84667 27.2496 9.38ZM24.6296 7.46C24.1696 7.46 23.7829 7.6 23.4696 7.88C23.1629 8.16 22.9829 8.52667 22.9296 8.98H26.3296C26.2763 8.53333 26.0929 8.17 25.7796 7.89C25.4729 7.60333 25.0896 7.46 24.6296 7.46ZM34.9127 6.65C35.5793 6.65 36.106 6.84333 36.4927 7.23C36.886 7.61667 37.0827 8.19 37.0827 8.95V12H36.1227V9.06C36.1227 8.54667 36.0027 8.16 35.7627 7.9C35.5293 7.64 35.1927 7.51 34.7527 7.51C34.266 7.51 33.8793 7.66333 33.5927 7.97C33.306 8.27 33.1627 8.70333 33.1627 9.27V12H32.2027V9.06C32.2027 8.54667 32.0827 8.16 31.8427 7.9C31.6093 7.64 31.2727 7.51 30.8327 7.51C30.346 7.51 29.9593 7.66333 29.6727 7.97C29.386 8.27 29.2427 8.70333 29.2427 9.27V12H28.2827V6.7H29.2027V7.49C29.396 7.21667 29.6493 7.01 29.9627 6.87C30.276 6.72333 30.6327 6.65 31.0327 6.65C31.446 6.65 31.8127 6.73333 32.1327 6.9C32.4527 7.06667 32.6993 7.31 32.8727 7.63C33.0727 7.32333 33.3493 7.08333 33.7027 6.91C34.0627 6.73667 34.466 6.65 34.9127 6.65ZM38.5491 6.7H39.5091V12H38.5491V6.7ZM39.0291 5.68C38.8424 5.68 38.6857 5.62 38.5591 5.5C38.4391 5.38 38.3791 5.23333 38.3791 5.06C38.3791 4.88667 38.4391 4.74 38.5591 4.62C38.6857 4.49333 38.8424 4.43 39.0291 4.43C39.2157 4.43 39.3691 4.49 39.4891 4.61C39.6157 4.72333 39.6791 4.86667 39.6791 5.04C39.6791 5.22 39.6157 5.37333 39.4891 5.5C39.3691 5.62 39.2157 5.68 39.0291 5.68ZM45.982 6.7V12H45.072V11.2C44.8787 11.4733 44.622 11.6867 44.302 11.84C43.9887 11.9867 43.6454 12.06 43.272 12.06C42.5654 12.06 42.0087 11.8667 41.602 11.48C41.1954 11.0867 40.992 10.51 40.992 9.75V6.7H41.952V9.64C41.952 10.1533 42.0754 10.5433 42.322 10.81C42.5687 11.07 42.922 11.2 43.382 11.2C43.8887 11.2 44.2887 11.0467 44.582 10.74C44.8754 10.4333 45.022 10 45.022 9.44V6.7H45.982ZM54.1396 6.65C54.8063 6.65 55.3329 6.84333 55.7196 7.23C56.1129 7.61667 56.3096 8.19 56.3096 8.95V12H55.3496V9.06C55.3496 8.54667 55.2296 8.16 54.9896 7.9C54.7563 7.64 54.4196 7.51 53.9796 7.51C53.4929 7.51 53.1063 7.66333 52.8196 7.97C52.5329 8.27 52.3896 8.70333 52.3896 9.27V12H51.4296V9.06C51.4296 8.54667 51.3096 8.16 51.0696 7.9C50.8363 7.64 50.4996 7.51 50.0596 7.51C49.5729 7.51 49.1863 7.66333 48.8996 7.97C48.6129 8.27 48.4696 8.70333 48.4696 9.27V12H47.5096V6.7H48.4296V7.49C48.6229 7.21667 48.8763 7.01 49.1896 6.87C49.5029 6.72333 49.8596 6.65 50.2596 6.65C50.6729 6.65 51.0396 6.73333 51.3596 6.9C51.6796 7.06667 51.9263 7.31 52.0996 7.63C52.2996 7.32333 52.5763 7.08333 52.9296 6.91C53.2896 6.73667 53.6929 6.65 54.1396 6.65Z" fill="white"/>
</svg>
