<svg xmlns="http://www.w3.org/2000/svg" width="227" height="222" viewBox="0 0 227 222" version="1.1"><path d="M 55 33 C 54.175 33.533, 52.600 33.981, 51.500 33.995 C 49.256 34.024, 41.365 40.939, 38.424 45.453 C 34.327 51.741, 34.090 55.294, 34.044 111.282 C 34.002 163.155, 34.074 165.284, 36.080 171.282 C 38.379 178.156, 43.732 184.157, 50.609 187.569 C 54.289 189.395, 57.533 189.517, 110.500 189.813 C 147.996 190.023, 168.154 189.769, 171.505 189.046 C 178.500 187.537, 185.605 181.876, 189.134 175 L 191.957 169.500 191.978 110.888 L 192 52.277 189.144 46.888 C 185.770 40.521, 178.983 34.945, 172.497 33.210 C 166.803 31.688, 57.334 31.491, 55 33 M 48 39 C 48 39.550, 48.450 40, 49 40 C 49.550 40, 50 39.550, 50 39 C 50 38.450, 49.550 38, 49 38 C 48.450 38, 48 38.450, 48 39 M 42.665 43.991 C 39.907 47.087, 39.465 48.009, 40.750 47.988 C 41.163 47.981, 42.517 46.406, 43.759 44.488 C 46.529 40.211, 46.176 40.051, 42.665 43.991 M 64.333 54.097 C 62.591 54.602, 60.004 56.396, 58.583 58.084 L 56 61.153 56 110.910 L 56 160.667 59.385 164.583 L 62.771 168.500 112.733 168.500 C 167.904 168.500, 166.512 168.655, 169.589 162.172 C 171.086 159.017, 171.273 153.469, 171.311 110.971 C 171.354 63.621, 171.340 63.286, 169.161 59.761 C 164.932 52.918, 165.525 52.990, 113.849 53.090 C 88.357 53.140, 66.075 53.593, 64.333 54.097 M 142.151 74.768 C 140.309 76.271, 132.434 83.954, 124.651 91.841 C 116.868 99.729, 109.255 107.078, 107.733 108.171 L 104.967 110.160 96.233 101.621 C 85.390 91.019, 84.135 90.071, 80.885 90.032 C 78.042 89.997, 74.778 92.233, 68.356 98.617 C 58.435 108.477, 58.545 108.783, 79.618 130.064 C 89.309 139.849, 98.525 148.389, 100.099 149.041 C 101.682 149.697, 104.199 149.921, 105.731 149.543 C 107.547 149.094, 118.049 139.283, 136.250 121.029 C 163.876 93.324, 164 93.181, 164 88.944 C 164 83.749, 161.092 79.574, 154.371 75.122 C 148.611 71.307, 146.470 71.245, 142.151 74.768 M 141.739 77.449 C 140.783 78.148, 140.014 79.346, 140.032 80.110 C 140.057 81.194, 140.332 81.150, 141.282 79.912 C 141.952 79.039, 143.153 78.109, 143.951 77.845 C 144.749 77.582, 144.969 77.099, 144.440 76.772 C 143.911 76.445, 142.695 76.750, 141.739 77.449 M 135.149 83.604 C 133.327 85.665, 134.500 86.643, 136.452 84.690 C 137.304 83.839, 138 82.886, 138 82.571 C 138 81.521, 136.515 82.059, 135.149 83.604 M 131 88 C 130.207 88.490, 129.890 89.223, 130.296 89.629 C 130.701 90.035, 131.558 89.842, 132.200 89.200 C 133.711 87.689, 132.868 86.846, 131 88 M 128 92.358 C 128 93.169, 127.438 94.060, 126.750 94.338 C 125.965 94.655, 125.919 94.871, 126.628 94.921 C 128.362 95.042, 130.312 92.311, 129.049 91.530 C 128.472 91.174, 128 91.546, 128 92.358 M 74.424 94.377 C 73.832 95.018, 73.532 96.096, 73.757 96.772 C 73.982 97.447, 73.607 98, 72.923 98 C 71.596 98, 66 103.804, 66 105.180 C 66 106.531, 69.997 106.105, 70.032 104.750 C 70.080 102.853, 74.696 98, 76.452 98 C 77.303 98, 78 97.550, 78 97 C 78 96.450, 77.523 96, 76.941 96 C 76.359 96, 76.141 95.581, 76.457 95.069 C 77.342 93.638, 75.640 93.058, 74.424 94.377 M 117.209 101.753 C 115.398 103.677, 114.155 105.488, 114.445 105.779 C 115.040 106.373, 121.973 99.914, 121.989 98.750 C 122.010 97.315, 120.480 98.276, 117.209 101.753 M 110 109 C 110 109.550, 110.450 110, 111 110 C 111.550 110, 112 109.550, 112 109 C 112 108.450, 111.550 108, 111 108 C 110.450 108, 110 108.450, 110 109 M 168.250 166.496 C 166.604 168.366, 166.668 169.065, 168.423 168.391 C 169.925 167.815, 171.447 164.973, 170.219 165.038 C 169.823 165.059, 168.938 165.715, 168.250 166.496" stroke="none" fill="#40e435" fill-rule="evenodd"/><path d="M 0 111.004 L 0 222.009 113.750 221.754 L 227.500 221.500 227.754 110.750 L 228.009 0 114.004 0 L 0 0 0 111.004 M 0.483 111.500 C 0.483 172.550, 0.603 197.378, 0.750 166.673 C 0.897 135.968, 0.897 86.018, 0.750 55.673 C 0.603 25.328, 0.483 50.450, 0.483 111.500 M 55 33 C 54.175 33.533, 52.600 33.981, 51.500 33.995 C 49.256 34.024, 41.365 40.939, 38.424 45.453 C 34.327 51.741, 34.090 55.294, 34.044 111.282 C 34.002 163.155, 34.074 165.284, 36.080 171.282 C 38.379 178.156, 43.732 184.157, 50.609 187.569 C 54.289 189.395, 57.533 189.517, 110.500 189.813 C 147.996 190.023, 168.154 189.769, 171.505 189.046 C 178.500 187.537, 185.605 181.876, 189.134 175 L 191.957 169.500 191.978 110.888 L 192 52.277 189.144 46.888 C 185.770 40.521, 178.983 34.945, 172.497 33.210 C 166.803 31.688, 57.334 31.491, 55 33 M 48 39 C 48 39.550, 48.450 40, 49 40 C 49.550 40, 50 39.550, 50 39 C 50 38.450, 49.550 38, 49 38 C 48.450 38, 48 38.450, 48 39 M 42.665 43.991 C 39.907 47.087, 39.465 48.009, 40.750 47.988 C 41.163 47.981, 42.517 46.406, 43.759 44.488 C 46.529 40.211, 46.176 40.051, 42.665 43.991 M 64.333 54.097 C 62.591 54.602, 60.004 56.396, 58.583 58.084 L 56 61.153 56 110.910 L 56 160.667 59.385 164.583 L 62.771 168.500 112.733 168.500 C 167.904 168.500, 166.512 168.655, 169.589 162.172 C 171.086 159.017, 171.273 153.469, 171.311 110.971 C 171.354 63.621, 171.340 63.286, 169.161 59.761 C 164.932 52.918, 165.525 52.990, 113.849 53.090 C 88.357 53.140, 66.075 53.593, 64.333 54.097 M 142.151 74.768 C 140.309 76.271, 132.434 83.954, 124.651 91.841 C 116.868 99.729, 109.255 107.078, 107.733 108.171 L 104.967 110.160 96.233 101.621 C 85.390 91.019, 84.135 90.071, 80.885 90.032 C 78.042 89.997, 74.778 92.233, 68.356 98.617 C 58.435 108.477, 58.545 108.783, 79.618 130.064 C 89.309 139.849, 98.525 148.389, 100.099 149.041 C 101.682 149.697, 104.199 149.921, 105.731 149.543 C 107.547 149.094, 118.049 139.283, 136.250 121.029 C 163.876 93.324, 164 93.181, 164 88.944 C 164 83.749, 161.092 79.574, 154.371 75.122 C 148.611 71.307, 146.470 71.245, 142.151 74.768 M 141.739 77.449 C 140.783 78.148, 140.014 79.346, 140.032 80.110 C 140.057 81.194, 140.332 81.150, 141.282 79.912 C 141.952 79.039, 143.153 78.109, 143.951 77.845 C 144.749 77.582, 144.969 77.099, 144.440 76.772 C 143.911 76.445, 142.695 76.750, 141.739 77.449 M 135.149 83.604 C 133.327 85.665, 134.500 86.643, 136.452 84.690 C 137.304 83.839, 138 82.886, 138 82.571 C 138 81.521, 136.515 82.059, 135.149 83.604 M 131 88 C 130.207 88.490, 129.890 89.223, 130.296 89.629 C 130.701 90.035, 131.558 89.842, 132.200 89.200 C 133.711 87.689, 132.868 86.846, 131 88 M 128 92.358 C 128 93.169, 127.438 94.060, 126.750 94.338 C 125.965 94.655, 125.919 94.871, 126.628 94.921 C 128.362 95.042, 130.312 92.311, 129.049 91.530 C 128.472 91.174, 128 91.546, 128 92.358 M 74.424 94.377 C 73.832 95.018, 73.532 96.096, 73.757 96.772 C 73.982 97.447, 73.607 98, 72.923 98 C 71.596 98, 66 103.804, 66 105.180 C 66 106.531, 69.997 106.105, 70.032 104.750 C 70.080 102.853, 74.696 98, 76.452 98 C 77.303 98, 78 97.550, 78 97 C 78 96.450, 77.523 96, 76.941 96 C 76.359 96, 76.141 95.581, 76.457 95.069 C 77.342 93.638, 75.640 93.058, 74.424 94.377 M 117.209 101.753 C 115.398 103.677, 114.155 105.488, 114.445 105.779 C 115.040 106.373, 121.973 99.914, 121.989 98.750 C 122.010 97.315, 120.480 98.276, 117.209 101.753 M 110 109 C 110 109.550, 110.450 110, 111 110 C 111.550 110, 112 109.550, 112 109 C 112 108.450, 111.550 108, 111 108 C 110.450 108, 110 108.450, 110 109 M 168.250 166.496 C 166.604 168.366, 166.668 169.065, 168.423 168.391 C 169.925 167.815, 171.447 164.973, 170.219 165.038 C 169.823 165.059, 168.938 165.715, 168.250 166.496" stroke="none" fill="#f8fbf8" fill-rule="evenodd"/></svg>