<svg width="22" height="22" viewBox="0 0 22 22" fill="none" xmlns="http://www.w3.org/2000/svg">
<path d="M18.6386 11.5896C18.6793 11.2596 18.7065 10.9164 18.7065 10.56C18.7065 10.2036 18.6793 9.8604 18.625 9.5304L20.9196 7.788C21.1233 7.6296 21.1776 7.3392 21.0554 7.1148L18.883 3.4584C18.7472 3.2208 18.4621 3.1416 18.2177 3.2208L15.5158 4.2768C14.9455 3.8544 14.3481 3.5112 13.6828 3.2472L13.2755 0.4488C13.2348 0.1848 13.0039 0 12.7324 0H8.38761C8.11606 0 7.89882 0.1848 7.85809 0.4488L7.45076 3.2472C6.78547 3.5112 6.17448 3.8676 5.61781 4.2768L2.91589 3.2208C2.67149 3.1284 2.38637 3.2208 2.25059 3.4584L0.0781999 7.1148C-0.0575748 7.3524 -0.00326472 7.6296 0.213975 7.788L2.50857 9.5304C2.45426 9.8604 2.41352 10.2168 2.41352 10.56C2.41352 10.9032 2.44068 11.2596 2.49499 11.5896L0.200397 13.332C-0.00326504 13.4904 -0.0575748 13.7808 0.0646224 14.0052L2.23702 17.6616C2.37279 17.8992 2.65792 17.9784 2.90231 17.8992L5.60423 16.8432C6.17448 17.2656 6.77189 17.6088 7.43718 17.8728L7.84451 20.6712C7.89882 20.9352 8.11606 21.12 8.38761 21.12H12.7324C13.0039 21.12 13.2348 20.9352 13.2619 20.6712L13.6692 17.8728C14.3345 17.6088 14.9455 17.2524 15.5022 16.8432L18.2041 17.8992C18.4485 17.9916 18.7336 17.8992 18.8694 17.6616L21.0418 14.0052C21.1776 13.7676 21.1233 13.4904 20.906 13.332L18.6386 11.5896ZM10.56 14.52C8.31972 14.52 6.48676 12.738 6.48676 10.56C6.48676 8.382 8.31972 6.6 10.56 6.6C12.8003 6.6 14.6332 8.382 14.6332 10.56C14.6332 12.738 12.8003 14.52 10.56 14.52Z" fill="#AFAFAF"/>
</svg>
