<?xml version="1.0" standalone="no"?>
<!DOCTYPE svg PUBLIC "-//W3C//DTD SVG 20010904//EN"
 "http://www.w3.org/TR/2001/REC-SVG-20010904/DTD/svg10.dtd">
<svg version="1.0" xmlns="http://www.w3.org/2000/svg"
 width="512.000000pt" height="512.000000pt" viewBox="0 0 512.000000 512.000000"
 preserveAspectRatio="xMidYMid meet">

<g transform="translate(0.000000,512.000000) scale(0.100000,-0.100000)"
fill="#000000" stroke="none">
<path d="M1440 3976 c-670 -291 -1066 -468 -1068 -478 -2 -8 3 -19 10 -25 7
-5 490 -201 1073 -434 934 -373 1066 -423 1110 -422 41 1 244 79 1110 426 583
234 1064 432 1070 441 6 10 6 19 0 25 -6 5 -485 215 -1065 466 -950 412 -1061
458 -1115 461 -60 3 -68 0 -1125 -460z"/>
<path d="M795 2727 c-351 -152 -420 -185 -420 -202 0 -17 152 -81 1065 -447
952 -382 1071 -427 1120 -427 49 0 168 45 1120 427 914 366 1065 430 1065 447
0 17 -69 50 -424 204 l-424 183 -621 -248 -621 -249 -95 0 -95 0 -618 248
c-339 136 -621 247 -625 247 -4 0 -196 -83 -427 -183z"/>
<path d="M795 1760 c-225 -98 -414 -186 -420 -194 -6 -10 -6 -19 0 -25 6 -5
489 -201 1075 -435 852 -341 1074 -426 1110 -426 36 0 258 85 1110 426 586
234 1069 430 1075 435 6 6 6 15 0 25 -14 21 -835 376 -860 371 -11 -2 -292
-114 -625 -248 l-605 -243 -95 0 -95 0 -605 244 c-333 134 -616 244 -630 246
-15 2 -182 -66 -435 -176z"/>
</g>
</svg>
