<svg width="16" height="16" viewBox="0 0 16 16" fill="none" xmlns="http://www.w3.org/2000/svg">
<path d="M7.23511 7.9465L0.153112 15.0285C-0.0436382 15.2253 -0.0436382 15.544 0.153112 15.7408C0.251362 15.8393 0.380362 15.8883 0.509112 15.8883C0.638112 15.8883 0.766862 15.8393 0.865112 15.7408L8.00036 8.6055L15.1356 15.7408C15.2341 15.8393 15.3629 15.8883 15.4916 15.8883C15.6204 15.8883 15.7494 15.8393 15.8476 15.7408C16.0444 15.544 16.0444 15.2253 15.8476 15.0285L8.76586 7.9465L15.8524 0.859503C16.0491 0.662753 16.0491 0.344003 15.8524 0.147253C15.6556 -0.0492471 15.3369 -0.0492471 15.1404 0.147253L8.00061 7.2875L0.860112 0.147503C0.663362 -0.0489971 0.344862 -0.0489971 0.148112 0.147503C-0.0486382 0.344253 -0.0486382 0.663003 0.148112 0.859753L7.23511 7.9465Z" fill="#FFFFFF"/>
</svg>
