<svg width="39" height="59" viewBox="0 0 39 59" fill="none" xmlns="http://www.w3.org/2000/svg">
<path opacity="0.91" d="M11.3401 4.31999C10.5301 3.07999 10.5401 2.12999 11.4901 1.37999C12.3401 0.709994 13.4101 0.899994 14.2601 2.01999C16.4101 4.83999 18.3101 7.81999 19.5101 11.18C19.7801 11.93 20.1101 12.27 20.9001 12.45C27.2701 13.94 32.1601 17.54 35.5501 23.11C40.2401 30.82 38.6301 40.69 31.7701 46.5C28.7101 49.09 25.0101 50.16 21.1701 50.89C19.4401 51.22 17.7001 51.48 15.7901 51.81C15.9901 53.31 16.2001 54.74 16.3801 56.16C16.4901 57.02 16.4001 57.81 15.5101 58.28C14.6701 58.72 13.9501 58.51 13.2401 57.93C11.0001 56.11 8.74008 54.33 6.49008 52.52C5.27008 51.53 5.19009 50.75 6.19009 49.48C7.96009 47.25 9.75009 45.05 11.5001 42.81C12.0901 42.05 12.7601 41.65 13.7301 41.94C14.6801 42.22 14.9201 43 14.9901 43.86C15.1001 45.24 15.1701 46.63 15.2801 48.33C18.7301 47.54 21.8801 47.06 24.8701 46.09C30.9201 44.14 33.9201 39.62 34.4401 33.47C34.8801 28.34 32.6201 24.21 28.9601 20.79C26.6601 18.64 24.0401 16.99 20.8901 16.04C20.9701 17.08 21.0801 18.01 21.1201 18.94C21.3701 25.11 17.7401 30.86 12.4401 32.71C6.01009 34.96 0.0800893 30.33 0.810089 23.56C1.26009 19.4 3.5501 16.32 6.9501 14.02C9.5001 12.29 12.4101 11.6 15.8701 11.44C14.2701 8.91999 12.8301 6.60999 11.3401 4.31999ZM4.9101 21.96C3.4401 25.55 5.1301 29.13 8.5401 29.63C10.1201 29.86 11.5801 29.44 12.8501 28.52C15.5601 26.56 17.2101 23.94 17.3201 20.54C17.3701 18.79 17.1801 17.03 17.1001 15.38C11.5001 14.83 6.7201 17.54 4.9101 21.96Z" fill="#12B367"/>
</svg>
