<svg xmlns="http://www.w3.org/2000/svg" width="225" height="225" viewBox="0 0 225 225" version="1.1"><path d="M 0.099 16.250 C 0.189 30.985, 0.317 32.122, 1.479 28.446 C 5.694 15.103, 15.157 5.633, 28.500 1.402 C 32.098 0.261, 30.868 0.127, 16.250 0.067 L 0 0 0.099 16.250 M 196 1.431 C 209.841 5.282, 220.759 16.357, 223.914 29.746 C 224.551 32.449, 224.827 28.810, 224.900 16.750 L 225 0 208.250 0.089 C 193.017 0.171, 191.908 0.292, 196 1.431 M 16 11.059 C 16 11.641, 15.550 11.840, 15 11.500 C 14.450 11.160, 14 11.363, 14 11.950 C 14 12.538, 12.650 14.431, 11 16.157 C 8.436 18.840, 7.038 22, 8.414 22 C 9.257 22, 15.851 15.147, 16.907 13.174 C 18.260 10.646, 18.279 10, 17 10 C 16.450 10, 16 10.477, 16 11.059 M 41.500 31.411 C 37.764 33.097, 32.697 38.526, 31.131 42.522 C 30.249 44.772, 30.017 63.070, 30.223 114.096 L 30.500 182.648 33.184 186.703 C 34.800 189.145, 37.611 191.601, 40.250 192.879 C 44.584 194.977, 45.359 195, 112.566 194.978 C 176.343 194.957, 180.745 194.844, 184.500 193.119 C 189.258 190.934, 191.390 188.704, 193.462 183.746 C 194.795 180.554, 194.997 171.052, 194.978 112.282 C 194.957 47.856, 194.862 44.293, 193.057 40.316 C 191.862 37.684, 189.579 35.088, 186.902 33.316 L 182.647 30.500 113.574 30.278 C 57.274 30.098, 43.945 30.307, 41.500 31.411 M 56.500 41.156 C 53.358 42.876, 43 53.213, 41.424 56.200 C 39.420 60, 39.655 65.716, 41.965 69.382 C 43.045 71.097, 51.870 80.375, 61.576 90 C 71.281 99.625, 79.622 108.544, 80.112 109.819 C 81.875 114.408, 79.791 117.368, 62.736 134.500 C 39.074 158.268, 40 157.101, 40 163.168 C 40 168.185, 40.125 168.393, 47.839 176.264 C 55.214 183.789, 55.974 184.291, 60.673 184.743 C 67.445 185.393, 69.655 184.056, 81.162 172.338 C 104.140 148.941, 109.614 144, 112.555 144 C 114.878 144, 118.682 147.262, 133.940 162.337 C 156.819 184.940, 156.896 185, 163.268 185 C 168.156 185, 168.441 184.829, 176.184 177.239 C 181.976 171.563, 184.321 168.509, 184.917 165.869 C 186.484 158.919, 184.539 156.110, 163.565 135.041 C 147.205 118.605, 144 114.913, 144 112.500 C 144 110.090, 147.201 106.385, 163.385 90.057 C 174.047 79.301, 183.300 69.464, 183.948 68.197 C 185.422 65.318, 185.563 58.917, 184.209 56.401 C 183.646 55.355, 179.817 51.237, 175.699 47.250 C 168.484 40.262, 168.038 40.001, 163.357 40.015 C 160.685 40.024, 157.888 40.418, 157.141 40.892 C 156.393 41.365, 147.393 50.102, 137.141 60.307 C 126.888 70.511, 117.203 79.353, 115.618 79.956 C 114.033 80.558, 111.783 80.770, 110.618 80.428 C 109.453 80.085, 99.950 71.346, 89.500 61.009 C 79.050 50.671, 69.517 41.715, 68.316 41.106 C 65.543 39.702, 59.107 39.729, 56.500 41.156 M 158.615 43.155 C 155.160 45.162, 152.561 47.434, 144.496 55.498 C 140.093 59.899, 134.640 65.133, 132.377 67.128 C 130.115 69.124, 126.910 72.724, 125.256 75.128 L 122.249 79.500 124.689 79.648 C 126.032 79.730, 126.897 79.564, 126.613 79.279 C 125.973 78.639, 128.518 76, 129.775 76 C 130.280 76, 137.083 69.700, 144.894 62 C 157.629 49.446, 159.452 48, 162.548 48 C 164.446 48, 166 47.587, 166 47.082 C 166 45.195, 164.762 43.029, 163.964 43.522 C 163.510 43.803, 162.856 43.575, 162.510 43.016 C 161.726 41.747, 160.996 41.773, 158.615 43.155 M 53.265 47.790 C 50.385 49.831, 48.022 52.063, 48.015 52.750 C 48.007 53.438, 47.663 54.004, 47.250 54.008 C 46.352 54.017, 44 58.860, 44 60.699 C 44 61.415, 44.498 62, 45.107 62 C 45.716 62, 45.957 62.670, 45.643 63.488 C 45.313 64.348, 45.584 64.876, 46.286 64.738 C 46.954 64.607, 47.368 65.287, 47.206 66.250 C 46.993 67.522, 47.584 68, 49.373 68 C 52.220 68, 52.912 66.690, 52.278 62.500 C 51.801 59.344, 54.286 55.703, 62 48.259 C 63.925 46.402, 64.713 45.182, 63.750 45.548 C 62.736 45.934, 62 45.748, 62 45.107 C 62 43.011, 58.488 44.090, 53.265 47.790 M 83 121 C 83 121.550, 82.546 122, 81.991 122 C 80.522 122, 59.173 143.878, 58.465 146.110 C 58.135 147.150, 57.446 148, 56.933 148 C 56.420 148, 56 148.450, 56 149 C 56 151.012, 59.271 149.922, 62 147 C 63.541 145.350, 65.184 143.995, 65.651 143.989 C 66.958 143.973, 75.015 136.125, 80.012 130 C 82.481 126.975, 84.838 124.350, 85.250 124.167 C 86.648 123.545, 86.010 120, 84.500 120 C 83.675 120, 83 120.450, 83 121 M 190.223 192.557 C 188.065 194.068, 187.149 197, 188.835 197 C 189.294 197, 190.872 195.650, 192.342 194 C 195.205 190.787, 193.960 189.939, 190.223 192.557 M 0.089 208.250 L 0 225 16.750 224.900 C 28.810 224.827, 32.449 224.551, 29.746 223.914 C 16.357 220.759, 5.282 209.841, 1.431 196 C 0.292 191.908, 0.171 193.017, 0.089 208.250 M 224 194.366 C 224 198.499, 217.173 210.694, 212.697 214.556 C 207.796 218.785, 200.571 222.661, 195.254 223.914 C 192.551 224.551, 196.190 224.827, 208.250 224.900 L 225 225 225 208.500 C 225 199.425, 224.775 192, 224.500 192 C 224.225 192, 224 193.065, 224 194.366" stroke="none" fill="#faf7f5" fill-rule="evenodd"/><path d="M 28.500 1.402 C 14.926 5.706, 5.578 15.193, 1.423 28.881 C -0.594 35.529, -0.653 187.968, 1.359 195.500 C 4.540 207.408, 11.748 216.090, 22.799 221.326 L 29.500 224.500 112.500 224.500 L 195.500 224.500 202 221.374 C 205.575 219.655, 210.389 216.603, 212.697 214.592 C 217.143 210.718, 224 198.484, 224 194.425 C 224 193.156, 224.450 191.840, 225 191.500 C 225.653 191.096, 225.995 163.090, 225.985 110.691 C 225.975 58.549, 225.630 31.025, 225 32 C 224.232 33.189, 224.027 32.981, 224.015 31 C 223.988 26.824, 218.382 16.330, 213.652 11.600 C 208.630 6.578, 202.870 3.328, 195.500 1.359 C 188.398 -0.538, 34.493 -0.498, 28.500 1.402 M 16 11.059 C 16 11.641, 15.550 11.840, 15 11.500 C 14.450 11.160, 14 11.363, 14 11.950 C 14 12.538, 12.650 14.431, 11 16.157 C 8.436 18.840, 7.038 22, 8.414 22 C 9.257 22, 15.851 15.147, 16.907 13.174 C 18.260 10.646, 18.279 10, 17 10 C 16.450 10, 16 10.477, 16 11.059 M 41.500 31.411 C 37.764 33.097, 32.697 38.526, 31.131 42.522 C 30.249 44.772, 30.017 63.070, 30.223 114.096 L 30.500 182.648 33.184 186.703 C 34.800 189.145, 37.611 191.601, 40.250 192.879 C 44.584 194.977, 45.359 195, 112.566 194.978 C 176.343 194.957, 180.745 194.844, 184.500 193.119 C 189.258 190.934, 191.390 188.704, 193.462 183.746 C 194.795 180.554, 194.997 171.052, 194.978 112.282 C 194.957 47.856, 194.862 44.293, 193.057 40.316 C 191.862 37.684, 189.579 35.088, 186.902 33.316 L 182.647 30.500 113.574 30.278 C 57.274 30.098, 43.945 30.307, 41.500 31.411 M 0.477 112 C 0.477 156.275, 0.600 174.388, 0.750 152.250 C 0.900 130.113, 0.900 93.888, 0.750 71.750 C 0.600 49.613, 0.477 67.725, 0.477 112 M 56.500 41.156 C 53.358 42.876, 43 53.213, 41.424 56.200 C 39.420 60, 39.655 65.716, 41.965 69.382 C 43.045 71.097, 51.870 80.375, 61.576 90 C 71.281 99.625, 79.622 108.544, 80.112 109.819 C 81.875 114.408, 79.791 117.368, 62.736 134.500 C 39.074 158.268, 40 157.101, 40 163.168 C 40 168.185, 40.125 168.393, 47.839 176.264 C 55.214 183.789, 55.974 184.291, 60.673 184.743 C 67.445 185.393, 69.655 184.056, 81.162 172.338 C 104.140 148.941, 109.614 144, 112.555 144 C 114.878 144, 118.682 147.262, 133.940 162.337 C 156.819 184.940, 156.896 185, 163.268 185 C 168.156 185, 168.441 184.829, 176.184 177.239 C 181.976 171.563, 184.321 168.509, 184.917 165.869 C 186.484 158.919, 184.539 156.110, 163.565 135.041 C 147.205 118.605, 144 114.913, 144 112.500 C 144 110.090, 147.201 106.385, 163.385 90.057 C 174.047 79.301, 183.300 69.464, 183.948 68.197 C 185.422 65.318, 185.563 58.917, 184.209 56.401 C 183.646 55.355, 179.817 51.237, 175.699 47.250 C 168.484 40.262, 168.038 40.001, 163.357 40.015 C 160.685 40.024, 157.888 40.418, 157.141 40.892 C 156.393 41.365, 147.393 50.102, 137.141 60.307 C 126.888 70.511, 117.203 79.353, 115.618 79.956 C 114.033 80.558, 111.783 80.770, 110.618 80.428 C 109.453 80.085, 99.950 71.346, 89.500 61.009 C 79.050 50.671, 69.517 41.715, 68.316 41.106 C 65.543 39.702, 59.107 39.729, 56.500 41.156 M 158.615 43.155 C 155.160 45.162, 152.561 47.434, 144.496 55.498 C 140.093 59.899, 134.640 65.133, 132.377 67.128 C 130.115 69.124, 126.910 72.724, 125.256 75.128 L 122.249 79.500 124.689 79.648 C 126.032 79.730, 126.897 79.564, 126.613 79.279 C 125.973 78.639, 128.518 76, 129.775 76 C 130.280 76, 137.083 69.700, 144.894 62 C 157.629 49.446, 159.452 48, 162.548 48 C 164.446 48, 166 47.587, 166 47.082 C 166 45.195, 164.762 43.029, 163.964 43.522 C 163.510 43.803, 162.856 43.575, 162.510 43.016 C 161.726 41.747, 160.996 41.773, 158.615 43.155 M 53.265 47.790 C 50.385 49.831, 48.022 52.063, 48.015 52.750 C 48.007 53.438, 47.663 54.004, 47.250 54.008 C 46.352 54.017, 44 58.860, 44 60.699 C 44 61.415, 44.498 62, 45.107 62 C 45.716 62, 45.957 62.670, 45.643 63.488 C 45.313 64.348, 45.584 64.876, 46.286 64.738 C 46.954 64.607, 47.368 65.287, 47.206 66.250 C 46.993 67.522, 47.584 68, 49.373 68 C 52.220 68, 52.912 66.690, 52.278 62.500 C 51.801 59.344, 54.286 55.703, 62 48.259 C 63.925 46.402, 64.713 45.182, 63.750 45.548 C 62.736 45.934, 62 45.748, 62 45.107 C 62 43.011, 58.488 44.090, 53.265 47.790 M 83 121 C 83 121.550, 82.546 122, 81.991 122 C 80.522 122, 59.173 143.878, 58.465 146.110 C 58.135 147.150, 57.446 148, 56.933 148 C 56.420 148, 56 148.450, 56 149 C 56 151.012, 59.271 149.922, 62 147 C 63.541 145.350, 65.184 143.995, 65.651 143.989 C 66.958 143.973, 75.015 136.125, 80.012 130 C 82.481 126.975, 84.838 124.350, 85.250 124.167 C 86.648 123.545, 86.010 120, 84.500 120 C 83.675 120, 83 120.450, 83 121 M 190.223 192.557 C 188.065 194.068, 187.149 197, 188.835 197 C 189.294 197, 190.872 195.650, 192.342 194 C 195.205 190.787, 193.960 189.939, 190.223 192.557" stroke="none" fill="#ec4d4c" fill-rule="evenodd"/></svg>