<svg width="27" height="24" viewBox="0 0 27 24" fill="none" xmlns="http://www.w3.org/2000/svg">
<path d="M23.9282 6.58043C24.4482 6.38043 24.8282 6.08043 24.8382 5.48043C24.8482 4.88043 24.4682 4.57043 23.9582 4.36043C20.9582 3.12043 17.9582 1.88043 14.9582 0.63043C13.8082 0.15043 12.6682 0.17043 11.5182 0.65043C8.53822 1.89043 5.55822 3.12043 2.57822 4.35043C2.06822 4.56043 1.67822 4.85043 1.67822 5.46043C1.67822 6.06043 2.04822 6.36043 2.57822 6.56043C5.61822 7.76043 8.65821 8.97043 11.6982 10.1604C12.1882 10.3504 12.7182 10.4304 13.2682 10.5704C13.8082 10.4304 14.3582 10.3404 14.8682 10.1404C17.8882 8.98043 20.9082 7.77043 23.9282 6.58043Z" fill="#F7D132"/>
<path d="M26.3282 13.5005C26.3282 12.0105 26.3382 10.5105 26.3282 9.02052C26.3182 7.94052 25.6582 7.48052 24.6482 7.87052C21.2882 9.17052 17.9282 10.4805 14.5682 11.7805C13.8882 12.0405 13.6182 12.4905 13.6182 13.2105C13.6382 16.1305 13.6182 19.0505 13.6282 21.9805C13.6282 23.1405 14.2982 23.5905 15.3882 23.1705C18.7282 21.8805 22.0682 20.5705 25.4082 19.2905C26.0682 19.0405 26.3482 18.6305 26.3382 17.9305C26.3082 16.4405 26.3282 14.9705 26.3282 13.5005Z" fill="#43C6EB"/>
<path d="M0.188282 9.09035C0.178282 10.4703 0.188282 11.8503 0.188282 13.2303C0.188282 14.6303 0.178282 16.0403 0.188282 17.4403C0.198282 18.4903 0.958274 19.0003 1.89827 18.5503C4.41827 17.3503 6.92828 16.1403 9.43828 14.9403C7.28828 13.0503 3.82827 9.98035 1.54827 7.80035C0.758268 7.65035 0.198282 8.16035 0.188282 9.09035Z" fill="#ED3149"/>
<path d="M12.4283 12.7503C12.3983 12.2103 12.0783 11.9103 11.6083 11.7303C8.38834 10.4503 5.16835 9.17028 1.93835 7.90028C1.80835 7.85028 1.67835 7.81028 1.55835 7.79028C3.83835 9.98028 7.29833 13.0403 9.44833 14.9303C10.2083 14.5703 10.9584 14.2103 11.7184 13.8403C12.1684 13.6303 12.4483 13.2903 12.4283 12.7503Z" fill="#C62842"/>
</svg>
