<svg width="24" height="23" viewBox="0 0 24 23" fill="none" xmlns="http://www.w3.org/2000/svg">
<path d="M11.7838 10.8899C14.617 10.8899 16.9138 8.5931 16.9138 5.75988C16.9138 2.92666 14.617 0.629883 11.7838 0.629883C8.95059 0.629883 6.65381 2.92666 6.65381 5.75988C6.65381 8.5931 8.95059 10.8899 11.7838 10.8899Z" fill="#EF6A6A"/>
<path d="M5.19397 22.51C8.02719 22.51 10.324 20.2132 10.324 17.38C10.324 14.5468 8.02719 12.25 5.19397 12.25C2.36075 12.25 0.0639648 14.5468 0.0639648 17.38C0.0639648 20.2132 2.36075 22.51 5.19397 22.51Z" fill="#EF6A6A"/>
<path d="M18.484 22.51C21.3172 22.51 23.614 20.2132 23.614 17.38C23.614 14.5468 21.3172 12.25 18.484 12.25C15.6508 12.25 13.354 14.5468 13.354 17.38C13.354 20.2132 15.6508 22.51 18.484 22.51Z" fill="#EF6A6A"/>
</svg>
