<svg width="24" height="24" viewBox="0 0 24 24" fill="none" xmlns="http://www.w3.org/2000/svg">
<path d="M20.73 0.469971H3.56003C1.81003 0.469971 0.400024 1.88997 0.400024 3.62997V17.59C0.450024 17.4 0.560016 17.22 0.720016 17.1L7.23003 12.65C7.59003 12.4 8.08002 12.47 8.36002 12.81L11.49 16.54C11.83 16.95 12.46 16.94 12.8 16.53L19.57 8.28997C19.86 7.93997 20.37 7.87997 20.73 8.14997L23.56 10.24C23.78 10.4 23.9 10.65 23.9 10.92V3.61997C23.89 1.88997 22.48 0.469971 20.73 0.469971Z" fill="#79377B"/>
<path d="M20.72 8.15998C20.36 7.88998 19.84 7.94998 19.56 8.29998L12.79 16.54C12.45 16.95 11.82 16.95 11.48 16.55L8.35002 12.82C8.07002 12.49 7.58002 12.42 7.22002 12.66L0.710022 17.11C0.540022 17.22 0.440015 17.4 0.390015 17.6V20.82C0.390015 22.57 1.81002 23.98 3.55002 23.98H20.72C22.47 23.98 23.88 22.56 23.88 20.82V10.94C23.88 10.67 23.75 10.42 23.54 10.26L20.72 8.15998Z" fill="#E88AB9"/>
<path d="M22.25 10.98C22.29 11.33 22.19 11.7 21.96 11.99L12.97 23.05L11.18 23.28L11.04 21.5L20.03 10.44C20.26 10.15 20.6 9.94997 20.97 9.91997C21.61 9.86997 22.18 10.33 22.25 10.98Z" fill="#79377B"/>
<path d="M7.83 10.26C9.55865 10.26 10.96 8.85865 10.96 7.13C10.96 5.40135 9.55865 4 7.83 4C6.10135 4 4.70001 5.40135 4.70001 7.13C4.70001 8.85865 6.10135 10.26 7.83 10.26Z" fill="#B3D236"/>
</svg>
