<svg width="28" height="31" viewBox="0 0 28 31" fill="none" xmlns="http://www.w3.org/2000/svg">
<path d="M26.5085 29.7301H1.49646C0.975379 29.7301 0.554504 29.3101 0.554504 28.7901V4.31006C0.554504 3.79006 0.975379 3.37006 1.49646 3.37006H26.5085C27.0296 3.37006 27.4505 3.79006 27.4505 4.31006V28.7901C27.4505 29.3101 27.0296 29.7301 26.5085 29.7301Z" fill="white"/>
<path d="M0.554504 12.31V4.30005C0.554504 3.78005 0.975379 3.36005 1.49646 3.36005H26.5085C27.0296 3.36005 27.4505 3.78005 27.4505 4.30005V12.31H0.554504Z" fill="#64CDF5"/>
<path d="M6.45678 5.95006C6.9106 5.95006 7.27849 5.58293 7.27849 5.13006C7.27849 4.67718 6.9106 4.31006 6.45678 4.31006C6.00296 4.31006 5.63507 4.67718 5.63507 5.13006C5.63507 5.58293 6.00296 5.95006 6.45678 5.95006Z" fill="white"/>
<path d="M6.45678 5.72003C6.06597 5.72003 5.7453 5.40003 5.7453 5.01003V1.24003C5.7453 0.850029 6.06597 0.530029 6.45678 0.530029C6.84759 0.530029 7.16826 0.850029 7.16826 1.24003V5.01003C7.15824 5.40003 6.84759 5.72003 6.45678 5.72003Z" fill="#424D52"/>
<path d="M21.0772 5.95006C21.531 5.95006 21.8989 5.58293 21.8989 5.13006C21.8989 4.67718 21.531 4.31006 21.0772 4.31006C20.6234 4.31006 20.2555 4.67718 20.2555 5.13006C20.2555 5.58293 20.6234 5.95006 21.0772 5.95006Z" fill="white"/>
<path d="M21.0772 5.72003C20.6864 5.72003 20.3657 5.40003 20.3657 5.01003V1.24003C20.3657 0.850029 20.6864 0.530029 21.0772 0.530029C21.468 0.530029 21.7887 0.850029 21.7887 1.24003V5.01003C21.7887 5.40003 21.468 5.72003 21.0772 5.72003Z" fill="#424D52"/>
<path d="M10.3898 10.8233C10.9929 10.8233 11.2483 10.3918 11.2483 9.86798V7.89134H10.7376V9.82395C10.7376 10.2334 10.6011 10.3786 10.3326 10.3786C10.1565 10.3786 9.99802 10.2862 9.88356 10.0749L9.53138 10.3346C9.71187 10.656 9.98921 10.8233 10.3898 10.8233ZM13.045 10.8233C13.7142 10.8233 14.1324 10.4535 14.1324 9.50699V7.89134H13.6437V9.54661C13.6437 10.1717 13.3972 10.3786 13.045 10.3786C12.6972 10.3786 12.4639 10.1717 12.4639 9.54661V7.89134H11.9533V9.50699C11.9533 10.4535 12.3803 10.8233 13.045 10.8233ZM14.8512 10.7704H16.5593V10.339H15.3618V7.89134H14.8512V10.7704ZM17.1839 10.7704H17.6946V9.70069L18.5619 7.89134H18.0292L17.7166 8.62653C17.633 8.84224 17.5449 9.04034 17.4525 9.26046H17.4349C17.3424 9.04034 17.2632 8.84224 17.1795 8.62653L16.867 7.89134H16.3211L17.1839 9.70069V10.7704Z" fill="white"/>
<path d="M10.7329 26.1873H17.1527V24.7242H14.8237C14.3608 24.7242 13.7338 24.7839 13.2411 24.8287C15.1222 22.8431 16.6899 21.1112 16.6899 19.4242C16.6899 17.6625 15.5104 16.5129 13.689 16.5129C12.3901 16.5129 11.5242 17.0503 10.6583 17.976L11.6138 18.9315C12.1214 18.3642 12.7335 17.8715 13.4651 17.8715C14.4803 17.8715 15.0327 18.5135 15.0327 19.5137C15.0327 20.9619 13.3755 22.634 10.7329 25.187V26.1873Z" fill="#424C53"/>
</svg>
