<svg width="27" height="27" viewBox="0 0 27 27" fill="none" xmlns="http://www.w3.org/2000/svg">
<path d="M13.65 26.98C20.9843 26.98 26.93 21.0343 26.93 13.7C26.93 6.36564 20.9843 0.419983 13.65 0.419983C6.31565 0.419983 0.369995 6.36564 0.369995 13.7C0.369995 21.0343 6.31565 26.98 13.65 26.98Z" fill="#0093B1"/>
<path d="M13.65 25.69C20.2719 25.69 25.64 20.3219 25.64 13.7C25.64 7.07807 20.2719 1.70996 13.65 1.70996C7.02813 1.70996 1.66003 7.07807 1.66003 13.7C1.66003 20.3219 7.02813 25.69 13.65 25.69Z" fill="white"/>
<path d="M5.42999 22.43C10.25 26.96 17.85 26.73 22.38 21.92C26.91 17.11 26.68 9.49997 21.87 4.96997L5.42999 22.43Z" fill="#BCE6FB"/>
<path d="M17.84 20.05C17.51 20.05 17.18 19.92 16.93 19.67L12.11 14.85V5.98996C12.11 5.27996 12.69 4.70996 13.39 4.70996C14.1 4.70996 14.67 5.28996 14.67 5.98996V13.79L18.73 17.85C19.23 18.35 19.23 19.17 18.73 19.67C18.49 19.92 18.16 20.05 17.84 20.05Z" fill="#0093B1"/>
</svg>
