<?xml version="1.0" encoding="UTF-8"?>
<svg xmlns="http://www.w3.org/2000/svg" xmlns:xlink="http://www.w3.org/1999/xlink" width="23px" height="23px" viewBox="0 0 23 23" version="1.1">
<g id="surface1">
<path style=" stroke:none;fill-rule:evenodd;fill:rgb(99.215686%,98.823529%,98.823529%);fill-opacity:1;" d="M 2.445312 8.480469 C 2.058594 8.480469 1.675781 8.480469 1.292969 8.480469 C 1.101562 8.480469 0.910156 8.480469 0.71875 8.480469 C 0.84375 7.652344 1.132812 6.886719 1.582031 6.179688 C 1.851562 6.488281 1.945312 6.871094 1.867188 7.332031 C 3.691406 7.378906 5.511719 7.332031 7.332031 7.1875 C 6.660156 6.515625 5.988281 5.847656 5.320312 5.175781 C 8.585938 2.371094 12.132812 1.988281 15.957031 4.023438 C 20.476562 7.625 21.195312 11.890625 18.113281 16.820312 C 14.378906 20.472656 10.308594 20.902344 5.894531 18.113281 C 3.152344 15.667969 2.195312 12.652344 3.019531 9.054688 C 2.949219 8.707031 2.757812 8.515625 2.445312 8.480469 Z M 2.445312 8.480469 "/>
<path style=" stroke:none;fill-rule:evenodd;fill:rgb(79.607843%,29.803922%,29.411765%);fill-opacity:1;" d="M 0.71875 8.480469 C 0.910156 8.480469 1.101562 8.480469 1.292969 8.480469 C 0.253906 16.015625 3.464844 20.421875 10.925781 21.707031 C 16.488281 21.511719 20.035156 18.730469 21.5625 13.367188 C 22.136719 7.664062 19.789062 3.6875 14.519531 1.4375 C 10.417969 0.378906 6.824219 1.289062 3.738281 4.167969 C 3.28125 4.027344 2.945312 3.742188 2.730469 3.304688 C 2.445312 4.441406 2.351562 5.589844 2.445312 6.757812 C 3.609375 6.847656 4.757812 6.753906 5.894531 6.46875 C 5.355469 6.167969 4.972656 5.738281 4.742188 5.175781 C 8.273438 1.726562 12.199219 1.246094 16.53125 3.738281 C 20.363281 6.703125 21.464844 10.492188 19.835938 15.09375 C 17.625 19.316406 14.128906 21.089844 9.34375 20.414062 C 3.753906 18.386719 1.453125 14.410156 2.445312 8.480469 C 2.757812 8.515625 2.949219 8.707031 3.019531 9.054688 C 2.195312 12.652344 3.152344 15.667969 5.894531 18.113281 C 10.308594 20.902344 14.378906 20.472656 18.113281 16.820312 C 21.195312 11.890625 20.476562 7.625 15.957031 4.023438 C 12.132812 1.988281 8.585938 2.371094 5.320312 5.175781 C 5.988281 5.847656 6.660156 6.515625 7.332031 7.1875 C 5.511719 7.332031 3.691406 7.378906 1.867188 7.332031 C 1.945312 6.871094 1.851562 6.488281 1.582031 6.179688 C 1.808594 4.671875 1.949219 3.136719 2.011719 1.582031 C 2.585938 2.15625 3.164062 2.730469 3.738281 3.304688 C 7.28125 0.335938 11.257812 -0.382812 15.667969 1.148438 C 21.617188 4.332031 23.582031 9.171875 21.5625 15.667969 C 18.378906 21.617188 13.539062 23.582031 7.042969 21.5625 C 1.660156 18.800781 -0.445312 14.441406 0.71875 8.480469 Z M 0.71875 8.480469 "/>
<path style=" stroke:none;fill-rule:evenodd;fill:rgb(95.686275%,54.117647%,54.117647%);fill-opacity:1;" d="M 1.292969 8.480469 C 1.675781 8.480469 2.058594 8.480469 2.445312 8.480469 C 1.453125 14.410156 3.753906 18.386719 9.34375 20.414062 C 14.128906 21.089844 17.625 19.316406 19.835938 15.09375 C 21.464844 10.492188 20.363281 6.703125 16.53125 3.738281 C 12.199219 1.246094 8.273438 1.726562 4.742188 5.175781 C 4.972656 5.738281 5.355469 6.167969 5.894531 6.46875 C 4.757812 6.753906 3.609375 6.847656 2.445312 6.757812 C 2.351562 5.589844 2.445312 4.441406 2.730469 3.304688 C 2.945312 3.742188 3.28125 4.027344 3.738281 4.167969 C 6.824219 1.289062 10.417969 0.378906 14.519531 1.4375 C 19.789062 3.6875 22.136719 7.664062 21.5625 13.367188 C 20.035156 18.730469 16.488281 21.511719 10.925781 21.707031 C 3.464844 20.421875 0.253906 16.015625 1.292969 8.480469 Z M 1.292969 8.480469 "/>
<path style=" stroke:none;fill-rule:evenodd;fill:rgb(21.568627%,25.490196%,30.588235%);fill-opacity:1;" d="M 11.355469 8.195312 C 11.644531 8.195312 11.929688 8.195312 12.21875 8.195312 C 12.21875 10.300781 12.21875 12.410156 12.21875 14.519531 C 11.835938 14.519531 11.453125 14.519531 11.070312 14.519531 C 11.164062 12.878906 11.066406 11.25 10.78125 9.632812 C 10.425781 9.84375 10.042969 9.941406 9.632812 9.917969 C 9.632812 9.535156 9.632812 9.152344 9.632812 8.769531 C 10.265625 8.738281 10.839844 8.546875 11.355469 8.195312 Z M 11.355469 8.195312 "/>
<path style=" stroke:none;fill-rule:evenodd;fill:rgb(49.019608%,51.372549%,54.901961%);fill-opacity:1;" d="M 11.355469 8.195312 C 11.664062 7.925781 12.046875 7.828125 12.507812 7.90625 C 12.601562 10.164062 12.503906 12.367188 12.21875 14.519531 C 12.21875 12.410156 12.21875 10.300781 12.21875 8.195312 C 11.929688 8.195312 11.644531 8.195312 11.355469 8.195312 Z M 11.355469 8.195312 "/>
</g>
</svg>
