<svg width="27" height="28" viewBox="0 0 27 28" fill="none" xmlns="http://www.w3.org/2000/svg">
<g clip-path="url(#clip0_65_6428)">
<path d="M8.13392 23.6599C7.39392 23.9799 6.69392 24.3599 6.01392 24.8199C7.32392 25.6999 8.81392 26.3599 10.4039 26.7299C9.53392 25.9899 8.77392 24.9399 8.13392 23.6599Z" fill="#5B82C2"/>
<path d="M16.3438 26.7199C17.9438 26.3499 19.4237 25.6999 20.7437 24.8099C20.0637 24.3499 19.3538 23.9699 18.6138 23.6399C17.9738 24.9399 17.2138 25.9799 16.3438 26.7199Z" fill="#5B82C2"/>
<path d="M18.9739 22.8701C19.8439 23.2501 20.6839 23.7301 21.4639 24.2901C24.4639 21.9601 26.4239 18.3601 26.5539 14.3101H20.6039C20.5639 17.5901 19.9539 20.5601 18.9739 22.8701Z" fill="#5B82C2"/>
<path d="M6.14385 14.3101H0.193848C0.323848 18.3601 2.29385 21.9601 5.28385 24.2901C6.06385 23.7301 6.89385 23.2601 7.77385 22.8801C6.79385 20.5601 6.18385 17.5901 6.14385 14.3101Z" fill="#5B82C2"/>
<path d="M10.4139 1.02002C8.81391 1.39002 7.33391 2.04002 6.00391 2.93002C6.68391 3.38002 7.39391 3.78002 8.12391 4.09002C8.77391 2.80002 9.54391 1.75002 10.4139 1.02002Z" fill="#5B82C2"/>
<path d="M18.6237 4.09002C19.3637 3.77002 20.0637 3.39002 20.7437 2.93002C19.4237 2.04002 17.9337 1.38002 16.3337 1.02002C17.2037 1.75002 17.9737 2.80002 18.6237 4.09002Z" fill="#5B82C2"/>
<path d="M20.6039 13.45H26.5539C26.4239 9.39997 24.4539 5.79997 21.4639 3.46997C20.6839 4.02997 19.8539 4.49997 18.9739 4.87997C19.9539 7.18997 20.5639 10.16 20.6039 13.45Z" fill="#5B82C2"/>
<path d="M7.77385 4.87997C6.90385 4.49997 6.06385 4.02997 5.28385 3.46997C2.29385 5.79997 0.323848 9.38997 0.193848 13.45H6.14385C6.18385 10.16 6.79385 7.18997 7.77385 4.87997Z" fill="#5B82C2"/>
<path d="M12.9438 27.0201V22.5701C11.5638 22.6101 10.2138 22.8701 8.93384 23.3301C9.98384 25.4401 11.3938 26.8201 12.9438 27.0201Z" fill="#5B82C2"/>
<path d="M13.804 22.5701V27.0201C15.354 26.8101 16.764 25.4401 17.814 23.3301C16.534 22.8801 15.184 22.6201 13.804 22.5701Z" fill="#5B82C2"/>
<path d="M19.744 14.3101H13.804V21.7201C15.314 21.7601 16.784 22.0501 18.174 22.5501C19.124 20.3301 19.704 17.4701 19.744 14.3101Z" fill="#5B82C2"/>
<path d="M8.57391 22.5601C9.96391 22.0401 11.4339 21.7601 12.9439 21.7201V14.3101H7.00391C7.04391 17.4701 7.63391 20.3401 8.57391 22.5601Z" fill="#5B82C2"/>
<path d="M8.93384 4.41997C10.2138 4.87997 11.5638 5.12997 12.9438 5.17997V0.719971C11.3838 0.929971 9.98384 2.29997 8.93384 4.41997Z" fill="#5B82C2"/>
<path d="M13.804 0.719971V5.17997C15.184 5.13997 16.534 4.87997 17.814 4.41997C16.764 2.29997 15.364 0.929971 13.804 0.719971Z" fill="#5B82C2"/>
<path d="M18.174 5.18994C16.784 5.70994 15.314 5.98994 13.804 6.02994V13.4399H19.744C19.704 10.2899 19.124 7.40994 18.174 5.18994Z" fill="#5B82C2"/>
<path d="M7.00391 13.45H12.9439V6.03995C11.4339 5.99995 9.96391 5.70995 8.57391 5.19995C7.63391 7.40995 7.04391 10.29 7.00391 13.45Z" fill="#5B82C2"/>
</g>
<defs>
<clipPath id="clip0_65_6428">
<rect width="26.36" height="26.3" fill="white" transform="translate(0.193848 0.719971)"/>
</clipPath>
</defs>
</svg>
