<svg width="22" height="23" viewBox="0 0 22 23" fill="none" xmlns="http://www.w3.org/2000/svg">
<path d="M16.97 0.640015H3.13998C1.52998 0.640015 0.22998 1.93999 0.22998 3.54999V19.38C0.22998 20.99 1.52998 22.29 3.13998 22.29H18.97C20.58 22.29 21.88 20.99 21.88 19.38V5.67001L16.97 0.640015Z" fill="#25BCB8"/>
<path d="M16.97 0.640015V4.32001C16.97 5.09001 17.59 5.70999 18.36 5.70999H21.88L16.97 0.640015Z" fill="#A7C1E5"/>
<path d="M7.56995 12.66V11.8H9.55997V13.57C9.17997 13.83 8.83996 14.01 8.54996 14.1C8.25996 14.19 7.90995 14.24 7.50995 14.24C7.01995 14.24 6.60996 14.16 6.29996 13.99C5.98996 13.82 5.74996 13.57 5.57996 13.24C5.40996 12.91 5.31995 12.53 5.31995 12.09C5.31995 11.64 5.40995 11.24 5.59995 10.9C5.78995 10.56 6.05995 10.31 6.41995 10.14C6.69995 10.01 7.07997 9.94 7.55997 9.94C8.01997 9.94 8.35997 9.98 8.58997 10.06C8.81997 10.14 9.00997 10.27 9.15997 10.45C9.30997 10.62 9.41997 10.85 9.49997 11.12L8.25995 11.34C8.20995 11.18 8.11997 11.06 7.99997 10.98C7.87997 10.9 7.71997 10.86 7.52997 10.86C7.24997 10.86 7.01995 10.96 6.85995 11.15C6.68995 11.35 6.60995 11.66 6.60995 12.08C6.60995 12.53 6.69995 12.85 6.85995 13.04C7.02995 13.23 7.25995 13.33 7.56995 13.33C7.70995 13.33 7.84995 13.31 7.97995 13.27C8.10995 13.23 8.25996 13.16 8.42996 13.06V12.67H7.56995V12.66ZM10.37 10.01H11.66V14.17H10.37V10.01ZM12.58 10.01H15.7599V10.9H13.87V11.63H15.4799V12.47H13.87V14.17H12.58V10.01Z" fill="white"/>
</svg>
