<svg width="22" height="22" viewBox="0 0 22 22" fill="none" xmlns="http://www.w3.org/2000/svg">
<path d="M16.97 0H3.13995C1.52995 0 0.22998 1.3 0.22998 2.91V18.74C0.22998 20.35 1.53995 21.65 3.13995 21.65H18.97C20.58 21.65 21.88 20.35 21.88 18.74V5.03L16.97 0Z" fill="#5B82C2"/>
<path d="M16.98 7.42004H5.79999V9.18002H16.98V7.42004Z" fill="white"/>
<path d="M17.03 12.75H5.84998V14.51H17.03V12.75Z" fill="white"/>
<path d="M17.03 9.98004H5.84998V11.74H17.03V9.98004Z" fill="white"/>
<path d="M12.46 15.44H5.84998V17.2H12.46V15.44Z" fill="white"/>
<path d="M16.97 0V3.67999C16.97 4.44999 17.59 5.07001 18.36 5.07001H21.88L16.97 0Z" fill="#A7C1E5"/>
</svg>
