<svg width="25" height="26" viewBox="0 0 25 26" fill="none" xmlns="http://www.w3.org/2000/svg">
<path d="M20.5839 25.8104H2.17389C1.07389 25.8104 0.183838 24.9204 0.183838 23.8204V5.4004C0.183838 4.3004 1.07389 3.4104 2.17389 3.4104H20.5839C21.6839 3.4104 22.5739 4.3004 22.5739 5.4004V23.8104C22.5739 24.9204 21.6839 25.8104 20.5839 25.8104Z" fill="#17A361"/>
<path d="M19.6237 25.8104L2.05371 25.6704L10.7737 16.9504L19.6237 25.8104Z" fill="#557EBF"/>
<path d="M22.5438 5.1703L23.4337 4.2803L21.2137 2.0603L19.8638 3.4103H20.5737C21.6037 3.4103 22.4338 4.1803 22.5438 5.1703Z" fill="#FEDE3E"/>
<path d="M8.55383 14.7302L0.173828 23.1102V23.8202C0.173828 24.8402 0.943777 25.6702 1.93378 25.7902L10.7638 16.9602L8.55383 14.7302Z" fill="#FEDE3E"/>
<path d="M12.9939 14.7304L22.554 5.1704C22.434 4.1804 21.6039 3.4104 20.5839 3.4104H19.8739L10.7739 12.5104L12.9939 14.7304Z" fill="#FEDE3E"/>
<path d="M22.5139 24.2602L12.9839 14.7302L10.7739 16.9502L19.6339 25.8102H20.5839C21.5239 25.8102 22.3139 25.1502 22.5139 24.2602Z" fill="white"/>
<path d="M10.7728 12.518L8.55249 14.7383L10.7728 16.9586L12.9931 14.7383L10.7728 12.518Z" fill="white"/>
<path d="M22.5638 5.2605L12.9138 14.8005L22.5738 24.3105L22.5638 5.2605Z" fill="#D2D2D2"/>
<path d="M5.39374 6.78039C4.33374 6.31039 3.19372 6.92039 2.87372 7.97039C2.40372 9.52039 4.66373 11.0304 5.88373 9.92039C5.95373 9.86039 6.34375 9.20039 6.34375 9.20039H4.60376V7.85039H7.83374C8.18374 9.79039 6.57376 11.7104 4.60376 11.7104C2.79376 11.7104 1.32373 10.2404 1.32373 8.43039C1.32373 6.62039 2.79376 5.15039 4.60376 5.15039C5.03376 5.15039 5.46376 5.23039 5.85376 5.40039C6.04376 5.48039 6.23375 5.58039 6.40375 5.69039C6.54375 5.78039 6.66373 5.91039 6.82373 5.98039L5.57373 7.08039C5.58373 7.08039 5.59374 6.87039 5.39374 6.78039Z" fill="white"/>
<path d="M24.1737 6.42042C24.2137 7.76042 23.6437 8.92042 22.9837 10.0404C22.1737 11.4304 21.2937 12.7704 20.5637 14.1904C19.6837 15.9004 19.2137 17.7504 19.0437 19.6604C19.0237 19.9204 18.9737 20.1804 18.6037 20.2004C18.2837 20.2204 18.1337 20.0604 18.1037 19.7804C17.8337 16.5004 16.5037 13.6104 14.6737 10.9004C14.0337 9.94042 13.4237 8.96042 13.1237 7.83042C12.3137 4.75042 14.1737 1.72042 17.2737 1.04042C20.8837 0.260421 24.1737 2.82042 24.1737 6.42042ZM18.5538 8.73042C19.9638 8.73042 21.0137 7.75042 21.0137 6.44042C21.0137 5.15042 19.9637 4.02042 18.7837 4.04042C17.1737 4.06042 16.1537 4.98042 16.1537 6.40042C16.1537 7.75042 17.1638 8.73042 18.5538 8.73042Z" fill="#DC473B"/>
<path d="M18.5539 8.73035C17.1639 8.73035 16.1539 7.75035 16.1539 6.40035C16.1439 4.98035 17.1739 4.06035 18.7839 4.04035C19.9639 4.03035 21.0139 5.16035 21.0139 6.44035C21.0039 7.75035 19.9539 8.72035 18.5539 8.73035Z" fill="#7D2621"/>
</svg>
