<svg width="32" height="31" viewBox="0 0 32 31" fill="none" xmlns="http://www.w3.org/2000/svg">
<path d="M28.7409 17.9993C30.1 10.938 25.4774 4.11195 18.4161 2.7529C11.3547 1.39385 4.52869 6.01645 3.16964 13.0778C1.81059 20.1391 6.43318 26.9651 13.4945 28.3242C20.5558 29.6832 27.3818 25.0606 28.7409 17.9993Z" fill="#EE5E5E"/>
<path d="M20.62 10.13C19.08 9.45002 17.26 9.68999 15.92 10.73C14.57 9.68999 12.76 9.45002 11.22 10.13C9.47004 10.9 8.37004 12.71 8.47004 14.65C8.50004 14.49 8.64004 14.37 8.81004 14.37H9.16004C9.18004 12.81 10.09 11.39 11.5 10.77C12.88 10.16 14.53 10.43 15.7 11.44C15.83 11.55 16.03 11.55 16.16 11.44C17.32 10.42 18.97 10.16 20.36 10.77C21.33 11.19 22.07 11.98 22.44 12.98C22.82 13.99 22.78 15.09 22.35 16.08C21.52 17.97 16.94 21.35 15.93 22.07C14.93 21.35 10.35 17.97 9.51004 16.08C9.44004 15.92 9.27004 15.84 9.11004 15.88C9.09004 15.88 9.07004 15.89 9.05004 15.9C8.87004 15.98 8.79004 16.18 8.87004 16.36C9.88004 18.65 15.48 22.61 15.72 22.78C15.78 22.82 15.85 22.84 15.92 22.84H15.93C16 22.84 16.07 22.82 16.13 22.78C16.37 22.61 21.97 18.66 22.98 16.36C23.49 15.2 23.53 13.91 23.09 12.73C22.63 11.55 21.76 10.63 20.62 10.13Z" fill="white"/>
<path d="M10.54 14.96L10.75 14.75L11.48 14.02L11.74 14.77L12.49 16.99C12.53 17.12 12.65 17.21 12.79 17.22C12.8 17.22 12.81 17.22 12.82 17.22C12.95 17.22 13.07 17.15 13.13 17.04L14.32 14.82L15.14 13.29L15.81 14.85L15.9 15.05C15.95 15.18 16.08 15.26 16.22 15.26H18.21C18.18 15.16 18.17 15.06 18.17 14.95C18.17 14.82 18.19 14.69 18.23 14.57H16.44L15.49 12.35C15.44 12.23 15.32 12.15 15.19 12.14C15.06 12.13 14.93 12.21 14.87 12.32L13.54 14.8L12.9 16L12.48 14.78L11.96 13.26C11.92 13.15 11.83 13.06 11.71 13.03C11.59 13 11.47 13.04 11.39 13.12L10.16 14.35H9.16001H8.80001C8.63001 14.35 8.49001 14.47 8.46001 14.63C8.46001 14.65 8.45001 14.67 8.45001 14.7C8.45001 14.89 8.61001 15.05 8.80001 15.05H8.90001H10.29C10.38 15.06 10.47 15.02 10.54 14.96Z" fill="white"/>
<path d="M18.15 14.95C18.15 15.06 18.17 15.16 18.19 15.26C18.33 15.75 18.78 16.12 19.32 16.12C19.97 16.12 20.49 15.6 20.49 14.95C20.49 14.3 19.97 13.78 19.32 13.78C18.81 13.78 18.37 14.11 18.21 14.57C18.18 14.69 18.15 14.82 18.15 14.95ZM19.32 14.48C19.58 14.48 19.8 14.69 19.8 14.96C19.8 15.22 19.59 15.44 19.32 15.44C19.06 15.44 18.84 15.23 18.84 14.96C18.85 14.69 19.06 14.48 19.32 14.48Z" fill="white"/>
</svg>
