<svg width="28" height="28" viewBox="0 0 28 28" fill="none" xmlns="http://www.w3.org/2000/svg">
<g clip-path="url(#clip0_65_6460)">
<path d="M21.0778 0.240234H3.83298C1.82559 0.240234 0.193848 1.87197 0.193848 3.87936V23.6011C0.193848 25.6085 1.82559 27.2402 3.83298 27.2402H23.5547C25.5621 27.2402 27.1938 25.6085 27.1938 23.6011V6.50893L21.0778 0.240234Z" fill="#AFB436"/>
<path d="M21.0779 0.240234V4.83023C21.0779 5.7811 21.8527 6.56763 22.8153 6.56763H27.194L21.0779 0.240234Z" fill="#DADCA0"/>
<path fill-rule="evenodd" clip-rule="evenodd" d="M3.50428 10.8054H23.4256C24.3178 10.8054 25.0456 11.5332 25.0456 12.4254V20.995C25.0456 21.8872 24.3178 22.615 23.4256 22.615H3.50428C2.6121 22.615 1.88428 21.8872 1.88428 20.995V12.4254C1.88428 11.5332 2.6121 10.8054 3.50428 10.8054Z" fill="#686B2D"/>
<path fill-rule="evenodd" clip-rule="evenodd" d="M7.78895 19.105V14.3154H6.30982V15.9941H4.68982V14.3154H3.21069V19.105H4.68982V17.168H6.30982V19.105H7.78895Z" fill="white"/>
<path fill-rule="evenodd" clip-rule="evenodd" d="M8.44629 15.5011H9.9489V19.105H11.428V15.5011H12.9424V14.3154H8.44629V15.5011Z" fill="white"/>
<path fill-rule="evenodd" clip-rule="evenodd" d="M13.5999 14.3154V19.105H14.809V15.4541L15.7481 19.105H16.8399L17.779 15.4541V19.105H18.9881V14.3154H17.0512L16.2999 17.2267L15.5485 14.3154H13.5999Z" fill="white"/>
<path fill-rule="evenodd" clip-rule="evenodd" d="M19.939 14.3154V19.105H23.7307V17.9311H21.4181V14.3154H19.939Z" fill="white"/>
</g>
<defs>
<clipPath id="clip0_65_6460">
<rect width="27" height="27" fill="white" transform="translate(0.193848 0.240234)"/>
</clipPath>
</defs>
</svg>
