<svg width="30" height="29" viewBox="0 0 30 29" fill="none" xmlns="http://www.w3.org/2000/svg">
<path d="M3.00001 25.1699L22.33 28.75C23.8 29.02 25.21 28.0499 25.48 26.5799L29.06 7.24996C29.33 5.77996 28.36 4.36997 26.89 4.09997L7.56001 0.519951C6.09001 0.24995 4.68001 1.21996 4.41001 2.68996L0.83001 22.02C0.56001 23.4799 1.53001 24.8999 3.00001 25.1699Z" fill="#505D73"/>
<path d="M5.11 27.17H24.76C26.25 27.17 27.46 25.96 27.46 24.47V4.82001C27.46 3.33001 26.25 2.12 24.76 2.12H5.11C3.62 2.12 2.41 3.33001 2.41 4.82001V24.47C2.41 25.95 3.62 27.17 5.11 27.17Z" fill="white"/>
<path d="M24.77 25.69H5.11001C4.43001 25.69 3.88 25.14 3.88 24.46V22.86L9.56001 17.18L12.61 20.23C12.9 20.52 13.36 20.52 13.65 20.23L20.01 13.87L25.98 19.84V24.45C26 25.14 25.45 25.69 24.77 25.69Z" fill="#505D73"/>
<path d="M5.11002 3.57996H24.76C25.44 3.57996 25.99 4.12997 25.99 4.80997V17.77L20.54 12.32C20.25 12.03 19.79 12.03 19.5 12.32L13.14 18.68L10.09 15.63C9.81002 15.35 9.32001 15.35 9.05001 15.63L3.89001 20.79V4.81998C3.89001 4.12998 4.44002 3.57996 5.11002 3.57996Z" fill="#E19A5E"/>
</svg>
