<svg xmlns="http://www.w3.org/2000/svg" width="256" height="256" viewBox="0 0 256 256" version="1.1"><path d="M 64 202.435 C 64 227.866, 64.378 242.869, 65.064 244.685 C 66.511 248.516, 70.826 252.958, 74.718 254.623 C 81.473 257.514, 91.527 255.501, 96.212 250.320 C 100.758 245.292, 101 243.014, 101 205.157 C 101 185.408, 100.719 167.844, 100.375 166.125 L 99.750 163 81.875 163 L 64 163 64 202.435 M 182.494 167.250 C 182.148 169.588, 182.007 187.475, 182.182 207 C 182.522 245.010, 182.453 244.484, 187.872 250.339 C 191.696 254.470, 195.240 256, 200.990 256 C 207.651 256, 213.251 253.088, 216.749 247.805 L 219.500 243.650 219.806 206.575 C 219.974 186.184, 219.841 168.037, 219.510 166.250 L 218.909 163 201.016 163 L 183.123 163 182.494 167.250" stroke="none" fill="#c86fe9" fill-rule="evenodd"/><path d="M 40.750 1.080 C 36.103 3.787, 36 4.970, 36 55.836 L 36 103.772 38.802 109.135 C 42.064 115.379, 49.120 120.842, 58.196 124.152 L 64 126.268 64 144.634 L 64 163 81.930 163 C 99.730 163, 99.864 163.016, 100.294 165.250 C 100.533 166.488, 100.789 158.224, 100.864 146.886 L 101 126.272 105.750 124.505 C 115.512 120.875, 122.735 115.294, 126.088 108.790 C 127.896 105.282, 128 102.357, 128 55.176 L 128 5.273 125.364 2.636 C 122.513 -0.214, 117.527 -0.888, 113.850 1.080 C 109.312 3.509, 109 6.490, 109 47.468 C 109 84.501, 108.923 86.077, 107.025 87.975 C 102.934 92.066, 95.568 91.382, 93.137 86.684 C 92.366 85.193, 91.927 71.852, 91.754 44.663 L 91.500 4.825 88.694 2.413 C 84.781 -0.952, 79.175 -0.879, 75.924 2.579 L 73.500 5.158 73 45.667 L 72.500 86.175 69.694 88.588 C 66.108 91.671, 61.891 91.671, 58.306 88.587 L 55.500 86.175 55.218 45.691 L 54.935 5.208 52.331 2.604 C 49.551 -0.176, 44.131 -0.889, 40.750 1.080 M 203.084 2.184 C 196.077 4.875, 183.926 16.763, 178.136 26.594 C 163.565 51.333, 154.986 89.521, 155.017 129.500 C 155.032 148.544, 153.788 147, 169.117 147 L 182 147 182.136 157.250 C 182.211 162.887, 182.467 166.488, 182.706 165.250 C 183.136 163.017, 183.273 163, 200.996 163 C 217.162 163, 218.897 163.166, 219.311 164.750 C 219.562 165.713, 219.820 129.037, 219.884 83.250 L 220 0 214.250 0.052 C 210.949 0.082, 206.193 0.990, 203.084 2.184" stroke="none" fill="#de4eb1" fill-rule="evenodd"/></svg>