<svg width="27" height="27" viewBox="0 0 27 27" fill="none" xmlns="http://www.w3.org/2000/svg">
<path d="M13.05 26.58C20.2242 26.58 26.04 20.7641 26.04 13.59C26.04 6.41579 20.2242 0.599976 13.05 0.599976C5.87581 0.599976 0.0599976 6.41579 0.0599976 13.59C0.0599976 20.7641 5.87581 26.58 13.05 26.58Z" fill="#E93F24"/>
<path d="M19.81 13.5899C19.81 15.6499 19.8 17.7 19.82 19.76C19.82 20.2 19.69 20.4 19.26 20.51C18.01 20.84 16.78 21.24 15.53 21.55C15.17 21.64 14.72 21.6299 14.38 21.4999C11.88 20.5999 9.39999 19.65 6.89999 18.74C6.45999 18.58 6.28 18.3699 6.28 17.8799C6.3 15.0099 6.3 12.13 6.28 9.25995C6.28 8.84995 6.39998 8.66996 6.78998 8.51996C9.35998 7.57996 11.91 6.59996 14.48 5.66996C14.81 5.54996 15.24 5.54996 15.58 5.63996C16.85 5.96996 18.09 6.37995 19.35 6.71995C19.73 6.81995 19.81 7.01994 19.8 7.36994C19.8 9.43994 19.81 11.5199 19.81 13.5899ZM14.93 19.61C14.93 15.74 14.93 11.9599 14.93 8.11994C13.04 8.56994 11.18 9.00997 9.31 9.45997C9.31 11.92 9.29998 14.3299 9.31998 16.7499C9.31998 17.1999 9.20998 17.42 8.75998 17.57C8.07998 17.79 7.42998 18.0999 6.75998 18.3699C6.76998 18.4099 6.77998 18.45 6.78998 18.49C9.46998 18.86 12.16 19.23 14.93 19.61Z" fill="white"/>
</svg>
