<svg width="30" height="27" viewBox="0 0 30 27" fill="none" xmlns="http://www.w3.org/2000/svg">
<path d="M3.19787 26.77H26.807C28.1598 26.77 29.2521 25.68 29.2521 24.33V2.84997C29.2521 1.49997 28.1598 0.409973 26.807 0.409973H3.19787C1.84505 0.409973 0.752777 1.49997 0.752777 2.84997V24.33C0.752777 25.68 1.84505 26.77 3.19787 26.77Z" fill="#E6E7E8"/>
<path d="M22.468 7.70999C21.6263 7.41999 21.0751 6.94999 21.0751 6.20999C21.0751 5.33999 21.7966 4.67999 22.9991 4.67999C23.5703 4.67999 23.9912 4.79999 24.3018 4.93999L24.0413 5.87C23.8409 5.77 23.4801 5.63 22.9791 5.63C22.478 5.63 22.2375 5.86 22.2375 6.12C22.2375 6.44 22.5281 6.59 23.1795 6.84C24.0814 7.17 24.5023 7.63999 24.5023 8.34999C24.5023 9.19999 23.8409 9.91999 22.448 9.91999C21.8668 9.91999 21.2956 9.76999 21.005 9.60999L21.2355 8.66C21.5461 8.82 22.0171 8.98 22.5081 8.98C23.0392 8.98 23.3198 8.75999 23.3198 8.42999C23.3198 8.10999 23.0793 7.92999 22.468 7.70999Z" fill="#0192CB"/>
<path d="M15.4033 4.75994L15.7841 6.84994C15.8943 7.44994 16.0046 8.10994 16.0847 8.61994H16.1048C16.1849 8.06994 16.3052 7.45994 16.4355 6.82994L16.8664 4.74994H18.0889L18.4998 6.88994C18.61 7.48994 18.7002 8.02994 18.7703 8.58994H18.7904C18.8705 8.02994 18.9808 7.42994 19.081 6.82994L19.4918 4.74994H20.6643L19.3515 9.82994H18.1089L17.678 7.64994C17.5778 7.13994 17.4977 6.65994 17.4375 6.07994H17.4175C17.3273 6.64994 17.2472 7.13994 17.1269 7.64994L16.6459 9.82994H15.3833L14.1707 4.74994H15.4033V4.75994Z" fill="#0192CB"/>
<path d="M10.4731 4.75995H13.6096V5.69995H11.6255V6.75995H13.4994V7.68995H11.6255V8.89995H13.7198V9.83995H10.4731V4.75995Z" fill="#0192CB"/>
<path d="M5.26216 4.75995H6.60495L7.65714 6.61995C7.95777 7.14995 8.2584 7.78995 8.48888 8.35995H8.50892C8.42875 7.68995 8.40871 6.99995 8.40871 6.23995V4.75995H9.4609V9.83995H8.24838L7.1561 7.87995C6.85548 7.33995 6.52479 6.67995 6.27426 6.08995L6.25422 6.09995C6.28428 6.76995 6.30433 7.48995 6.30433 8.30995V9.83995H5.25214V4.75995H5.26216Z" fill="#0192CB"/>
<path d="M5.7632 13.03H14.7419C14.8922 13.03 15.0024 13.37 15.0024 13.79C15.0024 14.21 14.8822 14.55 14.7419 14.55H5.7632C5.61289 14.55 5.50266 14.21 5.50266 13.79C5.49264 13.37 5.61289 13.03 5.7632 13.03Z" fill="#0192CB"/>
<path d="M16.4555 18.36H25.4341C25.5845 18.36 25.6947 18.7 25.6947 19.12C25.6947 19.54 25.5744 19.88 25.4341 19.88H16.4555C16.3051 19.88 16.1949 19.54 16.1949 19.12C16.1949 18.7 16.3051 18.36 16.4555 18.36Z" fill="#0192CB"/>
<path d="M6.05381 21.33H25.1235C25.4342 21.33 25.6847 21.67 25.6847 22.09C25.6847 22.51 25.4342 22.85 25.1235 22.85H6.05381C5.74317 22.85 5.49265 22.51 5.49265 22.09C5.49265 21.67 5.74317 21.33 6.05381 21.33Z" fill="#0192CB"/>
<path d="M25.6846 12.9H16.1849V16.46H25.6846V12.9Z" fill="#0192CB"/>
<path d="M14.9924 16.46H5.49265V20.02H14.9924V16.46Z" fill="#0192CB"/>
</svg>
