<svg width="31" height="32" viewBox="0 0 31 32" fill="none" xmlns="http://www.w3.org/2000/svg">
<path d="M15.24 31.47C23.6568 31.47 30.48 24.5439 30.48 16C30.48 7.45619 23.6568 0.530029 15.24 0.530029C6.82318 0.530029 0 7.45619 0 16C0 24.5439 6.82318 31.47 15.24 31.47Z" fill="white"/>
<path d="M15.24 29.55C22.6627 29.55 28.68 23.4835 28.68 16C28.68 8.51656 22.6627 2.45001 15.24 2.45001C7.81728 2.45001 1.79999 8.51656 1.79999 16C1.79999 23.4835 7.81728 29.55 15.24 29.55Z" fill="#8ECEA9"/>
<path d="M13.41 11.9301H8.20003C7.83003 11.9301 7.53003 12.24 7.53003 12.62V16.5C7.53003 16.88 7.83003 17.19 8.20003 17.19H11.34C10.87 18.76 9.60003 20.07 7.54003 21.12L8.45003 22.09C12.81 21.38 13.84 17.7 14.04 16.73C14.07 16.66 14.08 16.58 14.08 16.5V12.62C14.07 12.24 13.77 11.9301 13.41 11.9301Z" fill="white"/>
<path d="M21.75 11.9301H16.54C16.17 11.9301 15.87 12.24 15.87 12.62V16.5C15.87 16.88 16.17 17.19 16.54 17.19H19.68C19.21 18.76 17.94 20.07 15.88 21.12L16.79 22.09C21.15 21.38 22.18 17.7 22.38 16.73C22.41 16.66 22.42 16.58 22.42 16.5V12.62C22.41 12.24 22.11 11.9301 21.75 11.9301Z" fill="white"/>
</svg>
