<svg width="54" height="24" viewBox="0 0 54 24" fill="none" xmlns="http://www.w3.org/2000/svg">
<path d="M54 24H8.29C3.71 24 0 20.29 0 15.71V8.29C0 3.71 3.71 0 8.29 0H54V24Z" fill="#16B269"/>
<path d="M16.9908 13.1861C17.9993 13.1861 18.6297 12.6287 18.6297 11.2021V8.76702H17.8932V11.2619C17.8932 12.2041 17.5216 12.5159 16.9908 12.5159C16.4666 12.5159 16.115 12.2041 16.115 11.2619V8.76702H15.3453V11.2021C15.3453 12.6287 15.9889 13.1861 16.9908 13.1861ZM19.6467 14.3937H20.4097V13.3719L20.3898 12.8278C20.6552 13.0534 20.9406 13.1861 21.2259 13.1861C21.9491 13.1861 22.6193 12.5425 22.6193 11.4277C22.6193 10.4192 22.1482 9.76894 21.3387 9.76894C20.9804 9.76894 20.6287 9.96136 20.3567 10.1936H20.3301L20.277 9.84856H19.6467V14.3937ZM21.0666 12.5557C20.8742 12.5557 20.6486 12.4827 20.4097 12.2837V10.7642C20.6619 10.5187 20.8875 10.3993 21.1263 10.3993C21.6173 10.3993 21.8297 10.7841 21.8297 11.4344C21.8297 12.1709 21.4979 12.5557 21.0666 12.5557ZM24.5266 14.5463C25.5882 14.5463 26.265 14.042 26.265 13.3984C26.265 12.8344 25.8536 12.5955 25.0707 12.5955H24.4934C24.0953 12.5955 23.9626 12.4827 23.9626 12.297C23.9626 12.151 24.0223 12.0714 24.1218 11.9851C24.2678 12.0448 24.427 12.0714 24.5664 12.0714C25.2564 12.0714 25.8005 11.6865 25.8005 10.9633C25.8005 10.7377 25.7209 10.5386 25.6147 10.4126H26.2119V9.84856H25.0441C24.9114 9.80212 24.7455 9.76894 24.5664 9.76894C23.883 9.76894 23.2792 10.187 23.2792 10.9367C23.2792 11.3216 23.4848 11.6334 23.7038 11.7993V11.8259C23.518 11.9586 23.3455 12.1775 23.3455 12.4297C23.3455 12.6951 23.4716 12.8676 23.6375 12.9737V13.0003C23.3389 13.1861 23.173 13.4249 23.173 13.697C23.173 14.2676 23.7503 14.5463 24.5266 14.5463ZM24.5664 11.5936C24.2479 11.5936 23.9958 11.3548 23.9958 10.9367C23.9958 10.5254 24.2479 10.2931 24.5664 10.2931C24.8849 10.2931 25.1304 10.532 25.1304 10.9367C25.1304 11.3548 24.8782 11.5936 24.5664 11.5936ZM24.646 14.0486C24.1285 14.0486 23.81 13.8761 23.81 13.5842C23.81 13.4316 23.8896 13.2856 24.0621 13.1529C24.1882 13.1861 24.3275 13.1993 24.5067 13.1993H24.9512C25.3228 13.1993 25.5285 13.2723 25.5285 13.5245C25.5285 13.8031 25.1702 14.0486 24.646 14.0486ZM26.8391 13.1064H27.6022V11.1159C27.8013 10.6249 28.1131 10.4457 28.3719 10.4457C28.5112 10.4457 28.5975 10.4656 28.7103 10.4988L28.843 9.83529C28.7434 9.78885 28.6373 9.76894 28.4714 9.76894C28.1264 9.76894 27.7813 10.0012 27.5491 10.4258H27.5226L27.4695 9.84856H26.8391V13.1064ZM29.929 13.1861C30.3139 13.1861 30.6456 12.9936 30.9376 12.7481H30.9641L31.0172 13.1064H31.6475V11.1756C31.6475 10.2666 31.2428 9.76894 30.4333 9.76894C29.9158 9.76894 29.4513 9.968 29.093 10.1936L29.3717 10.7045C29.6636 10.532 29.9688 10.386 30.2873 10.386C30.7319 10.386 30.8712 10.678 30.8845 11.023C29.5442 11.169 28.9669 11.5339 28.9669 12.2306C28.9669 12.8012 29.3584 13.1861 29.929 13.1861ZM30.1745 12.5889C29.9025 12.5889 29.7034 12.4628 29.7034 12.1709C29.7034 11.8458 29.9954 11.6135 30.8845 11.5007V12.2306C30.639 12.4562 30.4399 12.5889 30.1745 12.5889ZM33.702 13.1861C34.0536 13.1861 34.3854 12.9936 34.6243 12.7548H34.6508L34.7039 13.1064H35.3342V8.42199H34.5712V9.60306L34.5977 10.1272C34.3456 9.90828 34.1133 9.76894 33.7418 9.76894C33.0318 9.76894 32.3617 10.4192 32.3617 11.4808C32.3617 12.5557 32.8858 13.1861 33.702 13.1861ZM33.8877 12.5557C33.4167 12.5557 33.1512 12.1775 33.1512 11.4742C33.1512 10.7908 33.4896 10.3993 33.9077 10.3993C34.1266 10.3993 34.3456 10.4723 34.5712 10.6713V12.1908C34.3522 12.4429 34.1399 12.5557 33.8877 12.5557ZM37.6994 13.1861C38.1107 13.1861 38.5022 13.0401 38.8141 12.8344L38.5553 12.3567C38.3164 12.5093 38.0776 12.5955 37.7989 12.5955C37.2747 12.5955 36.9031 12.2638 36.8368 11.6865H38.907C38.9269 11.6069 38.9401 11.4609 38.9401 11.3149C38.9401 10.4059 38.4757 9.76894 37.5932 9.76894C36.8302 9.76894 36.0936 10.4192 36.0936 11.4808C36.0936 12.5557 36.797 13.1861 37.6994 13.1861ZM36.8302 11.169C36.8965 10.6448 37.2283 10.3595 37.6131 10.3595C38.0577 10.3595 38.2766 10.6647 38.2766 11.169H36.8302Z" fill="white"/>
</svg>
