<svg width="54" height="24" viewBox="0 0 54 24" fill="none" xmlns="http://www.w3.org/2000/svg">
<path d="M54 24H8.29C3.71 24 0 20.29 0 15.71V8.29C0 3.71 3.71 0 8.29 0H54V24Z" fill="#16B269"/>
<path d="M7.3326 13.1861C8.34115 13.1861 8.97149 12.6287 8.97149 11.2021V8.76702H8.23498V11.2619C8.23498 12.2041 7.86341 12.5159 7.3326 12.5159C6.80841 12.5159 6.45675 12.2041 6.45675 11.2619V8.76702H5.68707V11.2021C5.68707 12.6287 6.33068 13.1861 7.3326 13.1861ZM9.98849 14.3937H10.7515V13.3719L10.7316 12.8278C10.997 13.0534 11.2824 13.1861 11.5677 13.1861C12.2909 13.1861 12.9611 12.5425 12.9611 11.4277C12.9611 10.4192 12.49 9.76894 11.6805 9.76894C11.3222 9.76894 10.9705 9.96136 10.6985 10.1936H10.6719L10.6188 9.84856H9.98849V14.3937ZM11.4084 12.5557C11.216 12.5557 10.9904 12.4827 10.7515 12.2837V10.7642C11.0037 10.5187 11.2293 10.3993 11.4681 10.3993C11.9591 10.3993 12.1715 10.7841 12.1715 11.4344C12.1715 12.1709 11.8397 12.5557 11.4084 12.5557ZM14.8684 14.5463C15.93 14.5463 16.6068 14.042 16.6068 13.3984C16.6068 12.8344 16.1954 12.5955 15.4125 12.5955H14.8352C14.4371 12.5955 14.3044 12.4827 14.3044 12.297C14.3044 12.151 14.3641 12.0714 14.4636 11.9851C14.6096 12.0448 14.7688 12.0714 14.9082 12.0714C15.5982 12.0714 16.1423 11.6865 16.1423 10.9633C16.1423 10.7377 16.0627 10.5386 15.9565 10.4126H16.5537V9.84856H15.3859C15.2532 9.80212 15.0873 9.76894 14.9082 9.76894C14.2248 9.76894 13.621 10.187 13.621 10.9367C13.621 11.3216 13.8266 11.6334 14.0456 11.7993V11.8259C13.8598 11.9586 13.6873 12.1775 13.6873 12.4297C13.6873 12.6951 13.8134 12.8676 13.9793 12.9737V13.0003C13.6807 13.1861 13.5148 13.4249 13.5148 13.697C13.5148 14.2676 14.0921 14.5463 14.8684 14.5463ZM14.9082 11.5936C14.5897 11.5936 14.3376 11.3548 14.3376 10.9367C14.3376 10.5254 14.5897 10.2931 14.9082 10.2931C15.2267 10.2931 15.4722 10.532 15.4722 10.9367C15.4722 11.3548 15.22 11.5936 14.9082 11.5936ZM14.9878 14.0486C14.4703 14.0486 14.1518 13.8761 14.1518 13.5842C14.1518 13.4316 14.2314 13.2856 14.4039 13.1529C14.53 13.1861 14.6693 13.1993 14.8485 13.1993H15.293C15.6646 13.1993 15.8703 13.2723 15.8703 13.5245C15.8703 13.8031 15.512 14.0486 14.9878 14.0486ZM17.1809 13.1064H17.944V11.1159C18.143 10.6249 18.4549 10.4457 18.7137 10.4457C18.853 10.4457 18.9393 10.4656 19.0521 10.4988L19.1848 9.83529C19.0852 9.78885 18.9791 9.76894 18.8132 9.76894C18.4682 9.76894 18.1231 10.0012 17.8909 10.4258H17.8644L17.8113 9.84856H17.1809V13.1064ZM20.2708 13.1861C20.6557 13.1861 20.9874 12.9936 21.2794 12.7481H21.3059L21.359 13.1064H21.9893V11.1756C21.9893 10.2666 21.5846 9.76894 20.7751 9.76894C20.2576 9.76894 19.7931 9.968 19.4348 10.1936L19.7135 10.7045C20.0054 10.532 20.3106 10.386 20.6291 10.386C21.0737 10.386 21.213 10.678 21.2263 11.023C19.886 11.169 19.3087 11.5339 19.3087 12.2306C19.3087 12.8012 19.7002 13.1861 20.2708 13.1861ZM20.5163 12.5889C20.2443 12.5889 20.0452 12.4628 20.0452 12.1709C20.0452 11.8458 20.3372 11.6135 21.2263 11.5007V12.2306C20.9808 12.4562 20.7817 12.5889 20.5163 12.5889ZM24.0438 13.1861C24.3954 13.1861 24.7272 12.9936 24.9661 12.7548H24.9926L25.0457 13.1064H25.676V8.42199H24.913V9.60306L24.9395 10.1272C24.6874 9.90828 24.4551 9.76894 24.0836 9.76894C23.3736 9.76894 22.7035 10.4192 22.7035 11.4808C22.7035 12.5557 23.2276 13.1861 24.0438 13.1861ZM24.2295 12.5557C23.7584 12.5557 23.493 12.1775 23.493 11.4742C23.493 10.7908 23.8314 10.3993 24.2495 10.3993C24.4684 10.3993 24.6874 10.4723 24.913 10.6713V12.1908C24.694 12.4429 24.4817 12.5557 24.2295 12.5557ZM28.0412 13.1861C28.4525 13.1861 28.844 13.0401 29.1559 12.8344L28.8971 12.3567C28.6582 12.5093 28.4194 12.5955 28.1407 12.5955C27.6165 12.5955 27.2449 12.2638 27.1786 11.6865H29.2488C29.2687 11.6069 29.2819 11.4609 29.2819 11.3149C29.2819 10.4059 28.8175 9.76894 27.935 9.76894C27.1719 9.76894 26.4354 10.4192 26.4354 11.4808C26.4354 12.5557 27.1388 13.1861 28.0412 13.1861ZM27.1719 11.169C27.2383 10.6448 27.5701 10.3595 27.9549 10.3595C28.3995 10.3595 28.6184 10.6647 28.6184 11.169H27.1719ZM32.4869 13.1861C32.7457 13.1861 32.9713 13.1264 33.1505 13.0666L33.0178 12.5026C32.9249 12.5425 32.7922 12.5756 32.6794 12.5756C32.3675 12.5756 32.2215 12.3898 32.2215 12.005V10.4524H33.0509V9.84856H32.2215V8.95945H31.5846L31.4917 9.84856L30.9874 9.88174V10.4524H31.4519V12.005C31.4519 12.7083 31.7305 13.1861 32.4869 13.1861ZM34.9665 13.1861C35.7827 13.1861 36.5192 12.5624 36.5192 11.4808C36.5192 10.3926 35.7827 9.76894 34.9665 9.76894C34.1571 9.76894 33.4205 10.3926 33.4205 11.4808C33.4205 12.5624 34.1571 13.1861 34.9665 13.1861ZM34.9665 12.5624C34.4888 12.5624 34.2035 12.1311 34.2035 11.4808C34.2035 10.8239 34.4888 10.3926 34.9665 10.3926C35.4443 10.3926 35.7362 10.8239 35.7362 11.4808C35.7362 12.1311 35.4443 12.5624 34.9665 12.5624ZM38.6691 13.1064H39.4388V11.514H40.0625C40.9981 11.514 41.7147 11.0694 41.7147 10.1073C41.7147 9.09878 40.9981 8.76702 40.036 8.76702H38.6691V13.1064ZM39.4388 10.8969V9.3841H39.9763C40.6199 9.3841 40.9583 9.56325 40.9583 10.1073C40.9583 10.6382 40.6464 10.8969 40.0028 10.8969H39.4388ZM42.4647 13.1064H43.2277V11.1159C43.4268 10.6249 43.7386 10.4457 43.9974 10.4457C44.1368 10.4457 44.223 10.4656 44.3358 10.4988L44.4685 9.83529C44.369 9.78885 44.2628 9.76894 44.0969 9.76894C43.7519 9.76894 43.4069 10.0012 43.1746 10.4258H43.1481L43.095 9.84856H42.4647V13.1064ZM46.2088 13.1861C47.0249 13.1861 47.7614 12.5624 47.7614 11.4808C47.7614 10.3926 47.0249 9.76894 46.2088 9.76894C45.3993 9.76894 44.6628 10.3926 44.6628 11.4808C44.6628 12.5624 45.3993 13.1861 46.2088 13.1861ZM46.2088 12.5624C45.7311 12.5624 45.4458 12.1311 45.4458 11.4808C45.4458 10.8239 45.7311 10.3926 46.2088 10.3926C46.6865 10.3926 46.9785 10.8239 46.9785 11.4808C46.9785 12.1311 46.6865 12.5624 46.2088 12.5624Z" fill="white"/>
</svg>
