<svg width="54" height="24" viewBox="0 0 54 24" fill="none" xmlns="http://www.w3.org/2000/svg">
<path d="M54 24H8.29C3.71 24 0 20.29 0 15.71V8.29C0 3.71 3.71 0 8.29 0H54V24Z" fill="#16B269"/>
<path d="M26.54 17.38L23.57 18.94C22.92 19.28 22.15 18.73 22.27 18L22.84 14.7C22.89 14.41 22.79 14.11 22.58 13.91L20.18 11.57C19.65 11.05 19.94 10.15 20.67 10.05L24 9.56C24.29 9.52 24.54 9.34 24.67 9.07L26.15 6.06C26.48 5.4 27.42 5.4 27.75 6.06L29.23 9.07C29.36 9.33 29.61 9.52 29.9 9.56L33.22 10.04C33.95 10.15 34.24 11.05 33.71 11.56L31.31 13.9C31.1 14.11 31 14.4 31.05 14.69L31.62 17.99C31.75 18.72 30.98 19.28 30.32 18.93L27.35 17.37C27.12 17.24 26.8 17.24 26.54 17.38Z" fill="white"/>
</svg>
