<svg id="svg" version="1.1" xmlns="http://www.w3.org/2000/svg" xmlns:xlink="http://www.w3.org/1999/xlink" width="400" height="400" viewBox="0, 0, 400,400"><g id="svgg"><path id="path0" d="M151.600 62.808 C 151.600 63.049,151.167 63.107,150.538 62.949 C 149.752 62.751,149.321 62.880,148.884 63.441 C 148.375 64.094,148.326 64.103,148.534 63.500 C 148.883 62.486,146.960 62.553,146.414 63.574 C 145.887 64.559,145.879 66.278,146.400 66.600 C 146.620 66.736,146.800 67.027,146.800 67.247 C 146.800 67.467,146.624 67.538,146.408 67.405 C 145.902 67.092,146.003 70.819,146.519 71.500 C 146.767 71.828,146.744 72.000,146.452 72.000 C 146.130 72.000,146.011 77.450,146.023 91.600 C 146.034 105.291,146.168 111.200,146.468 111.200 C 146.747 111.200,146.765 111.375,146.519 111.700 C 145.947 112.454,145.922 116.000,146.489 116.000 C 146.846 116.000,146.844 116.116,146.480 116.480 C 145.500 117.460,146.200 120.400,147.414 120.400 C 147.736 120.400,148.000 120.209,148.000 119.976 C 148.000 119.743,147.832 119.656,147.628 119.783 C 147.423 119.909,147.125 119.802,146.966 119.545 C 146.785 119.252,146.850 119.184,147.138 119.362 C 147.392 119.519,147.600 119.457,147.600 119.224 C 147.600 118.991,147.390 118.800,147.133 118.800 C 146.877 118.800,146.782 118.684,146.924 118.543 C 147.332 118.134,148.400 119.223,148.400 120.049 C 148.400 120.679,148.706 120.799,150.300 120.794 C 151.764 120.789,152.062 120.689,151.600 120.356 C 151.115 120.007,151.153 119.975,151.800 120.190 C 153.643 120.803,154.831 120.872,155.399 120.401 C 155.816 120.055,156.000 120.040,156.000 120.352 C 156.000 120.852,375.753 120.937,377.600 120.438 C 378.748 120.127,379.280 118.400,378.228 118.400 C 377.883 118.400,377.645 118.562,377.700 118.760 C 377.755 118.958,377.627 119.125,377.416 119.130 C 377.204 119.136,376.902 119.469,376.744 119.870 C 376.490 120.514,376.453 120.520,376.428 119.920 C 376.413 119.547,377.030 118.760,377.799 118.173 L 379.199 117.106 379.147 113.353 C 379.118 111.289,378.932 109.600,378.733 109.600 C 378.527 109.600,378.538 109.289,378.758 108.878 C 378.993 108.439,379.143 99.894,379.140 87.101 L 379.136 66.046 377.668 64.945 C 376.861 64.340,376.048 63.594,375.861 63.288 C 375.646 62.936,375.171 62.821,374.561 62.974 C 374.017 63.111,373.600 63.038,373.600 62.808 C 373.600 62.570,372.435 62.400,370.800 62.400 C 369.137 62.400,368.000 62.568,368.000 62.814 C 368.000 63.084,367.699 63.067,367.134 62.765 C 366.577 62.467,365.472 62.399,364.034 62.575 C 362.805 62.725,361.530 62.810,361.200 62.762 C 358.925 62.433,158.400 62.504,158.400 62.834 C 158.400 63.086,158.121 63.079,157.626 62.814 C 156.619 62.275,151.600 62.270,151.600 62.808 M376.400 63.171 C 376.400 63.975,378.589 65.333,378.733 64.619 C 378.806 64.257,378.649 63.700,378.384 63.381 C 377.851 62.739,376.400 62.585,376.400 63.171 M147.822 64.365 C 147.674 64.604,147.248 64.797,146.876 64.794 C 146.293 64.789,146.283 64.734,146.800 64.400 C 147.130 64.187,147.254 64.009,147.076 64.006 C 146.898 64.003,146.874 63.804,147.022 63.565 C 147.201 63.275,147.424 63.264,147.690 63.530 C 147.910 63.750,147.969 64.126,147.822 64.365 M148.808 171.712 C 148.531 172.400,148.445 172.442,148.425 171.900 C 148.391 170.944,146.937 170.997,146.414 171.974 C 145.858 173.012,145.890 174.530,146.480 175.120 C 146.815 175.455,146.825 175.600,146.512 175.600 C 146.004 175.600,146.019 179.094,146.530 179.900 C 146.709 180.183,146.666 180.400,146.431 180.400 C 146.149 180.400,146.016 186.702,146.016 200.000 C 146.016 213.298,146.149 219.600,146.431 219.600 C 146.660 219.600,146.710 219.822,146.542 220.093 C 146.066 220.865,145.944 224.482,146.404 224.198 C 146.622 224.063,146.800 224.133,146.800 224.353 C 146.800 224.573,146.620 224.864,146.400 225.000 C 145.879 225.322,145.887 227.041,146.414 228.026 C 146.937 229.003,148.391 229.056,148.425 228.100 C 148.445 227.565,148.536 227.613,148.813 228.302 C 149.193 229.248,157.200 229.659,157.200 228.733 C 157.200 228.535,157.548 228.558,157.974 228.786 C 158.503 229.069,193.087 229.196,267.006 229.188 L 375.263 229.175 377.195 227.243 L 379.126 225.312 379.136 204.610 C 379.141 193.162,378.983 183.482,378.783 182.954 C 378.583 182.430,378.572 182.000,378.757 182.000 C 378.943 182.000,379.117 180.370,379.145 178.378 L 379.195 174.757 377.219 172.781 L 375.243 170.805 371.622 170.855 C 369.630 170.883,368.000 171.068,368.000 171.267 C 368.000 171.466,367.653 171.442,367.229 171.215 C 366.703 170.934,331.756 170.806,257.811 170.813 L 149.166 170.824 148.808 171.712 M376.795 171.991 C 377.449 173.212,378.800 173.821,378.800 172.894 C 378.800 171.955,378.045 171.200,377.106 171.200 C 376.499 171.200,376.445 171.337,376.795 171.991 M147.822 172.765 C 147.399 173.449,146.857 173.273,147.005 172.500 C 147.078 172.115,147.153 171.719,147.169 171.620 C 147.186 171.521,147.400 171.640,147.645 171.885 C 147.890 172.130,147.969 172.526,147.822 172.765 M377.390 227.390 C 376.334 228.447,376.284 228.597,376.947 228.729 C 377.358 228.810,377.961 228.611,378.286 228.286 C 378.611 227.961,378.810 227.358,378.729 226.947 C 378.597 226.284,378.447 226.334,377.390 227.390 M147.800 227.533 C 147.800 228.305,147.085 228.256,146.970 227.477 C 146.910 227.070,147.068 226.823,147.332 226.911 C 147.589 226.996,147.800 227.277,147.800 227.533 M148.400 279.958 C 148.400 280.975,147.302 281.862,146.740 281.300 C 146.439 280.999,146.528 280.893,147.042 280.937 C 147.447 280.972,147.833 280.690,147.914 280.300 C 148.113 279.337,146.938 279.395,146.414 280.374 C 145.846 281.436,145.894 283.090,146.500 283.336 C 146.865 283.484,146.878 283.629,146.548 283.870 C 145.920 284.329,145.787 328.000,146.414 328.000 C 146.656 328.000,146.712 328.218,146.542 328.493 C 146.066 329.265,145.944 332.882,146.404 332.598 C 146.622 332.463,146.800 332.533,146.800 332.753 C 146.800 332.973,146.620 333.264,146.400 333.400 C 145.879 333.722,145.887 335.441,146.414 336.426 C 146.960 337.447,148.883 337.514,148.534 336.500 C 148.326 335.897,148.375 335.906,148.884 336.559 C 149.321 337.120,149.752 337.249,150.538 337.051 C 151.167 336.893,151.600 336.951,151.600 337.192 C 151.600 337.730,156.619 337.725,157.626 337.186 C 158.187 336.886,158.400 336.901,158.400 337.241 C 158.400 337.580,159.097 337.635,160.900 337.436 C 162.275 337.285,163.670 337.199,164.000 337.244 C 166.371 337.569,366.400 337.491,366.400 337.165 C 366.400 336.914,366.680 336.922,367.174 337.186 C 368.145 337.706,373.200 337.734,373.200 337.219 C 373.200 336.999,374.140 336.925,375.429 337.044 C 377.839 337.266,378.800 336.837,378.800 335.537 C 378.800 334.886,378.676 334.838,377.969 335.217 C 377.420 335.510,377.225 335.889,377.393 336.331 C 377.583 336.831,377.532 336.885,377.191 336.547 C 376.623 335.984,377.417 334.541,378.443 334.273 C 379.236 334.065,379.542 292.586,378.760 291.126 C 378.540 290.714,378.528 290.400,378.733 290.400 C 379.632 290.400,379.243 282.875,378.311 282.222 C 377.548 281.688,377.523 281.600,378.139 281.600 C 379.391 281.600,378.787 279.904,377.404 279.536 C 374.440 278.748,148.400 279.164,148.400 279.958 M147.250 334.400 C 147.348 335.184,147.416 335.406,147.689 335.833 C 147.840 336.072,147.711 336.267,147.400 336.267 C 147.089 336.267,146.928 336.117,147.041 335.933 C 147.155 335.750,147.012 335.586,146.724 335.568 C 146.300 335.543,146.299 335.497,146.717 335.330 C 147.113 335.170,147.125 334.992,146.768 334.561 C 146.432 334.156,146.427 334.000,146.751 334.000 C 146.998 334.000,147.222 334.180,147.250 334.400 " stroke="none" fill="#14dce4" fill-rule="evenodd"></path><path id="path1" d="M95.880 54.397 C 89.072 54.845,88.000 55.577,88.000 59.776 C 88.000 63.230,87.712 63.804,85.712 64.339 C 83.363 64.967,81.357 66.951,80.971 69.028 C 80.810 69.893,80.346 70.835,79.939 71.123 C 79.309 71.568,79.200 72.204,79.200 75.423 L 79.200 79.200 75.876 79.200 C 71.254 79.200,71.036 79.406,70.862 83.929 L 70.723 87.523 67.147 87.662 C 63.006 87.822,62.844 87.952,62.745 91.200 L 62.678 93.400 62.439 90.885 C 62.142 87.767,61.913 87.614,57.549 87.606 L 54.098 87.600 53.926 84.011 C 53.832 82.037,53.644 80.311,53.509 80.176 C 52.211 78.877,21.902 78.688,21.214 79.974 C 20.648 81.031,20.675 101.333,21.248 105.636 C 22.051 111.671,22.362 111.868,31.700 112.270 L 37.600 112.524 37.606 115.962 C 37.614 120.587,37.600 120.572,42.145 120.737 L 45.921 120.875 46.060 124.223 C 46.277 129.414,44.731 129.000,63.914 129.000 C 86.332 129.000,86.451 128.974,86.974 123.965 C 87.459 119.323,87.458 119.325,89.275 119.034 C 91.440 118.688,93.407 116.721,94.019 114.288 C 94.273 113.280,94.733 112.358,95.041 112.240 C 95.459 112.079,95.600 111.171,95.600 108.645 C 95.600 103.841,95.464 104.000,99.563 104.000 C 103.964 104.000,104.000 103.962,104.000 99.320 L 104.000 95.600 107.500 95.594 C 112.198 95.586,112.172 95.611,112.339 91.015 L 112.477 87.200 115.594 87.200 C 118.067 87.200,118.907 87.042,119.656 86.436 L 120.600 85.671 120.730 70.386 C 120.811 60.900,120.713 54.953,120.473 54.713 C 119.957 54.197,102.369 53.970,95.880 54.397 M94.299 162.808 C 89.053 163.309,88.000 164.212,88.000 168.210 C 88.000 171.600,87.680 172.285,85.969 172.559 C 83.884 172.892,81.736 174.837,81.132 176.937 C 80.870 177.852,80.327 178.922,79.927 179.316 C 79.326 179.907,79.200 180.686,79.200 183.816 L 79.200 187.600 75.700 187.606 C 71.032 187.614,71.073 187.575,70.872 192.173 L 70.705 196.000 67.526 196.000 C 63.160 196.000,62.814 196.240,62.739 199.314 L 62.678 201.800 62.437 199.400 C 62.095 195.989,62.111 196.000,57.825 196.000 L 54.098 196.000 53.926 192.397 C 53.825 190.284,53.548 188.588,53.257 188.297 C 52.556 187.595,22.197 187.338,21.367 188.027 C 20.148 189.039,20.731 214.710,22.050 218.066 C 22.751 219.849,26.793 220.762,34.100 220.788 L 37.600 220.800 37.606 224.300 C 37.614 228.963,37.580 228.927,42.134 229.126 L 45.922 229.292 46.061 232.678 C 46.171 235.370,46.348 236.172,46.919 236.591 C 47.965 237.355,58.935 237.749,71.379 237.470 C 86.149 237.139,86.530 237.008,86.989 232.094 C 87.391 227.791,87.373 227.827,89.426 227.278 C 91.788 226.646,93.439 224.993,94.023 222.676 C 94.275 221.674,94.733 220.758,95.041 220.640 C 95.459 220.479,95.600 219.571,95.600 217.045 C 95.600 212.279,95.504 212.400,99.269 212.400 C 103.935 212.400,104.000 212.336,104.000 207.786 L 104.000 204.000 107.400 204.000 C 112.020 204.000,112.400 203.623,112.400 199.041 L 112.400 195.682 115.786 195.541 C 120.990 195.324,120.577 196.740,120.729 178.587 L 120.859 163.203 119.803 162.801 C 118.597 162.343,99.119 162.348,94.299 162.808 M29.900 271.232 C 28.813 271.865,28.813 345.066,29.900 345.513 C 30.815 345.888,102.385 345.888,103.300 345.513 C 104.328 345.090,104.395 271.437,103.367 271.043 C 102.227 270.605,30.660 270.790,29.900 271.232 M79.200 308.400 L 79.200 320.800 66.600 320.800 L 54.000 320.800 54.000 308.400 L 54.000 296.000 66.600 296.000 L 79.200 296.000 79.200 308.400 " stroke="none" fill="#344464" fill-rule="evenodd"></path><path id="path2" d="M163.500 62.695 C 164.655 62.776,166.545 62.776,167.700 62.695 C 168.855 62.614,167.910 62.548,165.600 62.548 C 163.290 62.548,162.345 62.614,163.500 62.695 M355.254 62.587 C 355.540 62.873,362.806 62.928,363.087 62.646 C 363.222 62.511,361.473 62.400,359.200 62.400 C 356.927 62.400,355.151 62.484,355.254 62.587 M375.196 63.248 C 374.675 63.609,374.674 63.641,375.192 63.500 C 375.518 63.411,376.236 63.757,376.788 64.269 C 377.340 64.781,377.959 65.200,378.163 65.200 C 378.366 65.200,378.457 65.155,378.365 65.100 C 378.272 65.045,377.655 64.513,376.994 63.917 C 376.084 63.097,375.647 62.935,375.196 63.248 M147.023 64.233 C 146.374 64.707,146.354 64.800,146.900 64.800 C 147.259 64.800,147.671 64.608,147.816 64.373 C 148.240 63.687,147.861 63.620,147.023 64.233 M377.454 118.429 C 376.874 118.885,376.403 119.470,376.406 119.729 C 376.410 120.042,376.526 120.021,376.751 119.666 C 376.937 119.372,377.204 119.147,377.345 119.166 C 377.485 119.185,377.588 119.094,377.573 118.964 C 377.559 118.834,377.874 118.479,378.273 118.176 C 378.673 117.873,378.889 117.620,378.754 117.613 C 378.619 117.606,378.034 117.973,377.454 118.429 M147.100 118.665 C 147.375 118.776,147.600 119.042,147.600 119.257 C 147.600 119.472,147.375 119.518,147.100 119.359 C 146.825 119.201,146.740 119.226,146.912 119.414 C 147.309 119.851,148.400 120.020,148.400 119.645 C 148.400 119.200,147.486 118.397,147.020 118.432 C 146.789 118.449,146.825 118.554,147.100 118.665 M376.486 171.971 C 376.801 172.505,377.495 173.199,378.029 173.514 C 378.745 173.937,378.832 173.945,378.360 173.544 C 378.008 173.245,377.693 172.865,377.660 172.700 C 377.627 172.535,377.518 172.445,377.417 172.500 C 377.317 172.555,376.937 172.240,376.573 171.800 C 375.941 171.035,375.937 171.042,376.486 171.971 M146.933 172.678 C 146.933 172.977,147.117 173.161,147.342 173.086 C 147.979 172.874,148.085 172.133,147.478 172.133 C 147.178 172.133,146.933 172.378,146.933 172.678 M377.692 226.621 C 377.205 226.962,376.613 227.637,376.376 228.121 L 375.946 229.000 376.673 228.112 C 377.073 227.623,377.760 226.954,378.200 226.625 C 379.261 225.830,378.825 225.827,377.692 226.621 M146.768 334.561 C 147.081 334.939,147.096 335.168,146.813 335.262 C 146.581 335.340,146.773 335.640,147.238 335.931 C 147.939 336.369,148.026 336.369,147.748 335.930 C 147.418 335.409,147.350 335.200,147.250 334.400 C 147.222 334.180,146.998 334.000,146.751 334.000 C 146.427 334.000,146.432 334.156,146.768 334.561 M377.296 335.195 C 376.571 336.355,376.689 336.511,377.600 335.600 C 378.448 334.752,378.593 334.400,378.096 334.400 C 377.929 334.400,377.569 334.758,377.296 335.195 M162.717 337.260 C 162.213 337.403,163.600 337.511,165.800 337.500 C 169.764 337.480,169.733 337.335,165.717 337.114 C 164.572 337.051,163.222 337.117,162.717 337.260 M357.100 337.495 C 358.255 337.576,360.145 337.576,361.300 337.495 C 362.455 337.414,361.510 337.348,359.200 337.348 C 356.890 337.348,355.945 337.414,357.100 337.495 " stroke="none" fill="#24b4e8" fill-rule="evenodd"></path><path id="path3" d="M163.500 62.695 C 164.655 62.776,166.545 62.776,167.700 62.695 C 168.855 62.614,167.910 62.548,165.600 62.548 C 163.290 62.548,162.345 62.614,163.500 62.695 M355.254 62.587 C 355.540 62.873,362.806 62.928,363.087 62.646 C 363.222 62.511,361.473 62.400,359.200 62.400 C 356.927 62.400,355.151 62.484,355.254 62.587 M375.196 63.248 C 374.675 63.609,374.674 63.641,375.192 63.500 C 375.518 63.411,376.236 63.757,376.788 64.269 C 377.340 64.781,377.959 65.200,378.163 65.200 C 378.366 65.200,378.457 65.155,378.365 65.100 C 378.272 65.045,377.655 64.513,376.994 63.917 C 376.084 63.097,375.647 62.935,375.196 63.248 M147.023 64.233 C 146.374 64.707,146.354 64.800,146.900 64.800 C 147.259 64.800,147.671 64.608,147.816 64.373 C 148.240 63.687,147.861 63.620,147.023 64.233 M377.454 118.429 C 376.874 118.885,376.403 119.470,376.406 119.729 C 376.410 120.042,376.526 120.021,376.751 119.666 C 376.937 119.372,377.204 119.147,377.345 119.166 C 377.485 119.185,377.588 119.094,377.573 118.964 C 377.559 118.834,377.874 118.479,378.273 118.176 C 378.673 117.873,378.889 117.620,378.754 117.613 C 378.619 117.606,378.034 117.973,377.454 118.429 M147.100 118.665 C 147.375 118.776,147.600 119.042,147.600 119.257 C 147.600 119.472,147.375 119.518,147.100 119.359 C 146.825 119.201,146.740 119.226,146.912 119.414 C 147.309 119.851,148.400 120.020,148.400 119.645 C 148.400 119.200,147.486 118.397,147.020 118.432 C 146.789 118.449,146.825 118.554,147.100 118.665 M376.486 171.971 C 376.801 172.505,377.495 173.199,378.029 173.514 C 378.745 173.937,378.832 173.945,378.360 173.544 C 378.008 173.245,377.693 172.865,377.660 172.700 C 377.627 172.535,377.518 172.445,377.417 172.500 C 377.317 172.555,376.937 172.240,376.573 171.800 C 375.941 171.035,375.937 171.042,376.486 171.971 M146.933 172.678 C 146.933 172.977,147.117 173.161,147.342 173.086 C 147.979 172.874,148.085 172.133,147.478 172.133 C 147.178 172.133,146.933 172.378,146.933 172.678 M377.692 226.621 C 377.205 226.962,376.613 227.637,376.376 228.121 L 375.946 229.000 376.673 228.112 C 377.073 227.623,377.760 226.954,378.200 226.625 C 379.261 225.830,378.825 225.827,377.692 226.621 M146.768 334.561 C 147.081 334.939,147.096 335.168,146.813 335.262 C 146.581 335.340,146.773 335.640,147.238 335.931 C 147.939 336.369,148.026 336.369,147.748 335.930 C 147.418 335.409,147.350 335.200,147.250 334.400 C 147.222 334.180,146.998 334.000,146.751 334.000 C 146.427 334.000,146.432 334.156,146.768 334.561 M377.296 335.195 C 376.571 336.355,376.689 336.511,377.600 335.600 C 378.448 334.752,378.593 334.400,378.096 334.400 C 377.929 334.400,377.569 334.758,377.296 335.195 M162.717 337.260 C 162.213 337.403,163.600 337.511,165.800 337.500 C 169.764 337.480,169.733 337.335,165.717 337.114 C 164.572 337.051,163.222 337.117,162.717 337.260 M357.100 337.495 C 358.255 337.576,360.145 337.576,361.300 337.495 C 362.455 337.414,361.510 337.348,359.200 337.348 C 356.890 337.348,355.945 337.414,357.100 337.495 " stroke="none" fill="#24b4e8" fill-rule="evenodd"></path><path id="path4" d="M163.500 62.695 C 164.655 62.776,166.545 62.776,167.700 62.695 C 168.855 62.614,167.910 62.548,165.600 62.548 C 163.290 62.548,162.345 62.614,163.500 62.695 M355.254 62.587 C 355.540 62.873,362.806 62.928,363.087 62.646 C 363.222 62.511,361.473 62.400,359.200 62.400 C 356.927 62.400,355.151 62.484,355.254 62.587 M375.196 63.248 C 374.675 63.609,374.674 63.641,375.192 63.500 C 375.518 63.411,376.236 63.757,376.788 64.269 C 377.340 64.781,377.959 65.200,378.163 65.200 C 378.366 65.200,378.457 65.155,378.365 65.100 C 378.272 65.045,377.655 64.513,376.994 63.917 C 376.084 63.097,375.647 62.935,375.196 63.248 M147.023 64.233 C 146.374 64.707,146.354 64.800,146.900 64.800 C 147.259 64.800,147.671 64.608,147.816 64.373 C 148.240 63.687,147.861 63.620,147.023 64.233 M377.454 118.429 C 376.874 118.885,376.403 119.470,376.406 119.729 C 376.410 120.042,376.526 120.021,376.751 119.666 C 376.937 119.372,377.204 119.147,377.345 119.166 C 377.485 119.185,377.588 119.094,377.573 118.964 C 377.559 118.834,377.874 118.479,378.273 118.176 C 378.673 117.873,378.889 117.620,378.754 117.613 C 378.619 117.606,378.034 117.973,377.454 118.429 M147.100 118.665 C 147.375 118.776,147.600 119.042,147.600 119.257 C 147.600 119.472,147.375 119.518,147.100 119.359 C 146.825 119.201,146.740 119.226,146.912 119.414 C 147.309 119.851,148.400 120.020,148.400 119.645 C 148.400 119.200,147.486 118.397,147.020 118.432 C 146.789 118.449,146.825 118.554,147.100 118.665 M376.486 171.971 C 376.801 172.505,377.495 173.199,378.029 173.514 C 378.745 173.937,378.832 173.945,378.360 173.544 C 378.008 173.245,377.693 172.865,377.660 172.700 C 377.627 172.535,377.518 172.445,377.417 172.500 C 377.317 172.555,376.937 172.240,376.573 171.800 C 375.941 171.035,375.937 171.042,376.486 171.971 M146.933 172.678 C 146.933 172.977,147.117 173.161,147.342 173.086 C 147.979 172.874,148.085 172.133,147.478 172.133 C 147.178 172.133,146.933 172.378,146.933 172.678 M377.692 226.621 C 377.205 226.962,376.613 227.637,376.376 228.121 L 375.946 229.000 376.673 228.112 C 377.073 227.623,377.760 226.954,378.200 226.625 C 379.261 225.830,378.825 225.827,377.692 226.621 M146.768 334.561 C 147.081 334.939,147.096 335.168,146.813 335.262 C 146.581 335.340,146.773 335.640,147.238 335.931 C 147.939 336.369,148.026 336.369,147.748 335.930 C 147.418 335.409,147.350 335.200,147.250 334.400 C 147.222 334.180,146.998 334.000,146.751 334.000 C 146.427 334.000,146.432 334.156,146.768 334.561 M377.296 335.195 C 376.571 336.355,376.689 336.511,377.600 335.600 C 378.448 334.752,378.593 334.400,378.096 334.400 C 377.929 334.400,377.569 334.758,377.296 335.195 M162.717 337.260 C 162.213 337.403,163.600 337.511,165.800 337.500 C 169.764 337.480,169.733 337.335,165.717 337.114 C 164.572 337.051,163.222 337.117,162.717 337.260 M357.100 337.495 C 358.255 337.576,360.145 337.576,361.300 337.495 C 362.455 337.414,361.510 337.348,359.200 337.348 C 356.890 337.348,355.945 337.414,357.100 337.495 " stroke="none" fill="#24b4e8" fill-rule="evenodd"></path></g></svg>