<svg xmlns="http://www.w3.org/2000/svg" width="58" height="48" viewBox="0 0 58 48" version="1.1"><path d="M 50 21.500 C 50 21.775, 50.225 22, 50.500 22 C 50.775 22, 51 21.775, 51 21.500 C 51 21.225, 50.775 21, 50.500 21 C 50.225 21, 50 21.225, 50 21.500 M 21 24.500 C 21 24.775, 21.225 25, 21.500 25 C 21.775 25, 22 24.775, 22 24.500 C 22 24.225, 21.775 24, 21.500 24 C 21.225 24, 21 24.225, 21 24.500 M 22 36.500 C 22 36.775, 22.225 37, 22.500 37 C 22.775 37, 23 36.775, 23 36.500 C 23 36.225, 22.775 36, 22.500 36 C 22.225 36, 22 36.225, 22 36.500" stroke="none" fill="#607cfc" fill-rule="evenodd"/><path d="M 22.558 3.248 C 16.567 4.831, 9.610 12.289, 8.047 18.806 C 6.443 25.491, 7.940 32.258, 12.154 37.370 C 14.888 40.688, 20.673 44.660, 21.526 43.807 C 21.713 43.620, 22.170 40.253, 22.541 36.326 C 23.163 29.727, 23.055 29.100, 21.107 28.057 C 19.363 27.124, 19 25.998, 19 21.524 C 19 18.551, 19.450 15.840, 20 15.500 C 20.610 15.123, 21 16.637, 21 19.382 C 21 21.857, 21.450 24.160, 22 24.500 C 22.616 24.881, 23 23.177, 23 20.059 C 23 17.277, 23.450 15, 24 15 C 24.550 15, 25 16.998, 25 19.441 C 25 21.884, 25.450 24.160, 26 24.500 C 26.616 24.881, 27 23.177, 27 20.059 C 27 17.277, 27.450 15, 28 15 C 29.666 15, 29.221 26.571, 27.500 28 C 26.383 28.927, 26 31.403, 26 37.686 L 26 46.127 29.250 45.813 L 32.500 45.500 32.776 30.250 C 32.928 21.863, 33.422 15, 33.874 15 C 35.204 15, 37.965 22.186, 38.196 26.246 C 38.313 28.306, 37.866 30.534, 37.204 31.196 C 35.910 32.490, 35.502 44.002, 36.750 43.996 C 38.529 43.987, 43.969 39.905, 46.292 36.835 C 50.139 31.751, 51.344 25.976, 49.955 19.283 C 48.435 11.963, 41.828 4.949, 34.779 3.175 C 29.388 1.817, 27.941 1.826, 22.558 3.248" stroke="none" fill="#5c7cfc" fill-rule="evenodd"/></svg>