<svg width="28" height="27" viewBox="0 0 28 27" fill="none" xmlns="http://www.w3.org/2000/svg">
<path d="M27.1839 23.3547C27.1839 25.6047 26.0039 26.7747 23.7439 26.7747C17.1239 26.7747 10.5139 26.7747 3.89391 26.7747C2.87391 26.7747 1.95395 26.5447 1.24395 25.7447C0.663946 25.1047 0.483937 24.3347 0.483937 23.4947C0.483937 16.7747 0.473937 10.0447 0.483937 3.32475C0.483937 1.27475 1.71397 0.0747472 3.76397 0.0647472C7.11397 0.0547472 10.464 0.0647472 13.814 0.0647472C17.124 0.0647472 20.4339 0.0647472 23.7339 0.0647472C25.9939 0.0647472 27.1739 1.23475 27.1739 3.49475C27.1939 10.1147 27.1939 16.7347 27.1839 23.3547Z" fill="#167BC0"/>
<path d="M10.564 3.20466C8.77402 3.14466 6.97401 3.15466 5.18401 3.20466C4.06401 3.23466 3.39397 4.00467 3.39397 5.12467C3.38397 10.4247 3.38397 15.7147 3.39397 21.0147C3.39397 22.2047 4.17401 22.9547 5.36401 22.9647C6.98401 22.9747 8.614 22.9647 10.234 22.9647C11.654 22.9647 12.374 22.2747 12.374 20.8647C12.384 18.2647 12.374 15.6547 12.374 13.0547C12.374 10.4247 12.384 7.80466 12.374 5.17466C12.374 3.99466 11.724 3.24466 10.564 3.20466Z" fill="white"/>
<path d="M11.7339 20.7948C11.7339 21.8448 11.274 22.3048 10.204 22.3148C8.64398 22.3248 7.09394 22.3248 5.53394 22.3148C4.51394 22.3048 4.04395 21.8248 4.04395 20.8148C4.04395 15.6548 4.04395 10.4948 4.04395 5.33475C4.04395 4.33475 4.50395 3.87476 5.48395 3.87476C7.08395 3.87476 8.68394 3.87476 10.2839 3.87476C11.2839 3.87476 11.7339 4.32476 11.7339 5.31476C11.7339 7.91476 11.7339 10.5148 11.7339 13.1248C11.7339 15.6748 11.7339 18.2348 11.7339 20.7948Z" fill="white"/>
<path d="M22.434 3.19473C20.664 3.14473 18.894 3.14473 17.124 3.19473C15.964 3.23473 15.304 3.98473 15.294 5.14473C15.284 6.63473 15.294 8.13473 15.294 9.62473C15.294 11.0947 15.284 12.5647 15.294 14.0347C15.304 15.3447 16.004 16.0547 17.294 16.0547C18.954 16.0647 20.624 16.0647 22.284 16.0547C23.544 16.0547 24.274 15.3347 24.274 14.0847C24.284 11.1247 24.284 8.15473 24.274 5.19473C24.284 3.99473 23.624 3.23473 22.434 3.19473Z" fill="white"/>
<path d="M23.6439 13.9947C23.6439 14.9247 23.1539 15.4047 22.2239 15.4147C20.6039 15.4247 18.9839 15.4247 17.3639 15.4147C16.4339 15.4147 15.9639 14.9347 15.9639 13.9847C15.9539 12.5347 15.9639 11.0847 15.9639 9.63469C15.9639 8.18469 15.9539 6.73469 15.9639 5.28469C15.9639 4.33469 16.424 3.87469 17.384 3.87469C19.004 3.86469 20.6239 3.86469 22.2439 3.87469C23.1739 3.87469 23.6539 4.35469 23.6539 5.30469C23.6439 8.19469 23.6439 11.0947 23.6439 13.9947Z" fill="white"/>
</svg>
