<svg width="31" height="25" viewBox="0 0 31 25" fill="none" xmlns="http://www.w3.org/2000/svg">
<path d="M21.7692 3.99687C21.6261 3.99687 21.5161 3.88682 21.5161 3.74374V0.893263C21.5161 0.750189 21.6261 0.640137 21.7692 0.640137C21.9123 0.640137 22.0223 0.750189 22.0223 0.893263V3.74374C22.0333 3.88682 21.9123 3.99687 21.7692 3.99687Z" fill="#B3D236"/>
<path d="M29.7924 9.30155H26.8209C26.6778 9.30155 26.5677 9.1915 26.5677 9.04842C26.5677 8.90535 26.6778 8.79529 26.8209 8.79529H29.7924C29.9355 8.79529 30.0456 8.90535 30.0456 9.04842C30.0566 9.18049 29.9355 9.30155 29.7924 9.30155Z" fill="#B3D236"/>
<path d="M25.3461 5.60375C25.2801 5.60375 25.214 5.58174 25.159 5.52671C25.06 5.42766 25.06 5.26258 25.159 5.16353L26.7548 3.5677C26.8539 3.46865 27.019 3.46865 27.118 3.5677C27.2171 3.66675 27.2171 3.83184 27.118 3.93089L25.5222 5.52671C25.4782 5.57073 25.4122 5.60375 25.3461 5.60375Z" fill="#B3D236"/>
<path d="M27.4812 14.5953C27.5473 14.5953 27.6133 14.5733 27.6683 14.5183C27.7674 14.4192 27.7674 14.2541 27.6683 14.1551L26.0725 12.5593C25.9735 12.4602 25.8083 12.4602 25.7093 12.5593C25.6102 12.6583 25.6102 12.8234 25.7093 12.9225L27.3051 14.5183C27.3492 14.5733 27.4152 14.5953 27.4812 14.5953Z" fill="#B3D236"/>
<path d="M17.6751 5.53767C17.6091 5.53767 17.543 5.51566 17.488 5.46063L15.9472 3.91983C15.8482 3.82078 15.8482 3.6557 15.9472 3.55665C16.0463 3.4576 16.2114 3.4576 16.3104 3.55665L17.8512 5.09744C17.9503 5.19649 17.9503 5.36158 17.8512 5.46063C17.8072 5.51566 17.7411 5.53767 17.6751 5.53767Z" fill="#B3D236"/>
<path d="M11.4789 8.80627C13.3718 8.80627 14.7916 9.84081 15.4739 10.4681C16.9487 11.8108 17.3889 13.4507 17.521 14.3091L17.7081 15.5308L18.7976 14.9585C19.0288 14.8374 19.2819 14.7383 19.524 14.6503C19.557 14.6393 20.2174 14.4412 20.8997 14.4412C23.4861 14.4412 25.5992 16.5433 25.5992 19.1406C25.5992 20.0981 25.313 21.0226 24.7738 21.804C24.2455 22.5744 23.5081 23.1577 22.6386 23.4989H22.6276H22.6166C22.1214 23.708 21.6041 23.818 21.0758 23.818H4.80941C3.76387 23.818 2.78438 23.4108 2.03599 22.6624C1.2876 21.9141 0.880371 20.9345 0.880371 19.889C0.880371 18.8435 1.2876 17.864 2.03599 17.1156C2.78438 16.3672 3.76387 15.96 4.80941 15.96H4.98551H5.95401L5.85497 14.9915C5.83295 14.8044 5.82195 14.6173 5.82195 14.4302C5.82195 11.3486 8.36425 8.80627 11.4789 8.80627Z" fill="white"/>
<path d="M11.4789 7.64014C7.86906 7.64014 4.95256 10.5677 4.95256 14.1665C4.95256 14.3866 4.96357 14.6067 4.98558 14.8159H4.80948C2.16812 14.8159 0 16.973 0 19.6253C0 22.2667 2.15711 24.4348 4.80948 24.4348H21.0759C21.7472 24.4348 22.3856 24.2918 22.9689 24.0386C25.0269 23.2242 26.4907 21.2102 26.4907 18.8549C26.4907 15.7733 23.9924 13.2751 20.9108 13.2751C20.0634 13.2751 19.271 13.5172 19.271 13.5172C18.9078 13.6382 18.5996 13.7703 18.3905 13.8804C18.2915 13.253 17.8953 11.184 16.0683 9.52212C15.6501 9.14792 13.9332 7.64014 11.4789 7.64014Z" fill="#41ABC9"/>
<path d="M21.274 5.59271C23.5302 5.59271 25.3571 7.43066 25.3571 9.67582C25.3571 10.3362 25.203 10.9745 24.8949 11.5578C24.6858 11.954 24.4107 12.3172 24.0805 12.6364C23.2 11.954 22.1215 11.5798 20.9879 11.5798C20.4046 11.5798 19.8433 11.6789 19.304 11.866C19.0509 10.5673 18.3575 9.37867 17.334 8.52022C17.8513 6.80333 19.4471 5.59271 21.274 5.59271Z" fill="#B3D236"/>
<path d="M21.2739 4.89917C18.9407 4.89917 16.9927 6.58304 16.5745 8.79519C17.8622 9.70866 18.7096 11.2054 18.7316 12.9003C19.392 12.4931 20.1734 12.262 20.9988 12.262C22.1984 12.262 23.288 12.7462 24.0804 13.5276C25.269 12.6582 26.0504 11.2495 26.0504 9.66464C26.0504 7.03428 23.9153 4.89917 21.2739 4.89917Z" fill="#B3D236"/>
</svg>
