<svg width="33" height="24" viewBox="0 0 33 24" fill="none" xmlns="http://www.w3.org/2000/svg">
<path d="M32.8839 7.45002C32.8839 3.49002 29.6738 0.27002 25.7038 0.27002H7.35382C3.39382 0.27002 0.173828 3.48002 0.173828 7.45002V15.99C0.173828 19.95 3.38382 23.17 7.35382 23.17H25.7038C29.6638 23.17 32.8839 19.96 32.8839 15.99V7.45002Z" fill="#D72727"/>
<path d="M12.4438 7.64993V16.0099C12.4438 16.3799 13.5438 16.6099 13.8638 16.4399L20.2438 13.2799L13.3839 7.17993C12.9539 7.20993 12.4438 7.39993 12.4438 7.64993Z" fill="white"/>
<path d="M21.7538 11.51L13.8738 7.22001C13.7738 7.16001 13.5838 7.15001 13.3838 7.17001L20.2438 13.27L22.0938 12.36C22.4237 12.18 22.0838 11.7 21.7538 11.51Z" fill="#E6E6E6"/>
</svg>
