<svg width="48" height="44" viewBox="0 0 48 44" fill="none" xmlns="http://www.w3.org/2000/svg">
<path d="M5.79056 43.051C4.87896 43.051 3.99481 42.9046 3.1607 42.616L1.26123 41.9588L2.72077 40.5768C4.65258 38.7475 5.14011 36.6375 5.17184 35.0571C1.83296 31.3552 2.59342e-08 26.7368 2.59342e-08 22C-0.000610149 10.3926 10.7659 0.948975 23.9994 0.948975C37.2329 0.948975 48 10.3926 48 22C48 33.6067 37.2329 43.0498 23.9994 43.0498C20.0595 43.0498 16.1727 42.1962 12.7087 40.5743C11.4036 41.4987 8.76699 43.051 5.79056 43.051ZM12.4225 37.7089L13.123 38.0635C16.4161 39.7286 20.1773 40.6097 23.9988 40.6097C35.8868 40.6097 45.5587 32.2613 45.5587 22.0006C45.5587 11.7387 35.8868 3.39028 23.9988 3.39028C12.1107 3.39028 2.43948 11.7387 2.43948 22C2.43948 26.2645 4.15651 30.4338 7.27511 33.7391L7.5924 34.0754L7.60705 34.5373C7.66074 36.1963 7.36298 38.446 5.88819 40.6091C8.71451 40.564 11.3126 38.5968 11.8093 38.1995L12.4225 37.7089Z" fill="white"/>
<path d="M15 16.125V22.5H19.25C19.25 24.8428 17.3449 26.75 15 26.75V28.875C18.5153 28.875 21.375 26.0153 21.375 22.5V16.125H15Z" fill="white"/>
<path d="M25.625 16.125V22.5H29.875C29.875 24.8428 27.9699 26.75 25.625 26.75V28.875C29.1403 28.875 32 26.0153 32 22.5V16.125H25.625Z" fill="white"/>
</svg>
