<svg width="200" height="173" viewBox="0 0 200 173" fill="none" xmlns="http://www.w3.org/2000/svg">
<g clip-path="url(#clip0)">
<path d="M153.006 24.9964L91.9591 0L77.169 36.3732L138.216 61.3696L153.006 24.9964Z" fill="#3F3D56"/>
<path d="M104.058 41.502C112.251 41.502 118.893 34.8369 118.893 26.6152C118.893 18.3934 112.251 11.7284 104.058 11.7284C95.8648 11.7284 89.2229 18.3934 89.2229 26.6152C89.2229 34.8369 95.8648 41.502 104.058 41.502Z" fill="#38D39F"/>
<path d="M131.785 23.0063L127.206 21.1315L125.338 25.726L129.916 27.6008L131.785 23.0063Z" fill="#38D39F"/>
<path opacity="0.5" d="M137.508 25.3497L132.929 23.475L131.061 28.0695L135.64 29.9442L137.508 25.3497Z" fill="#38D39F"/>
<path opacity="0.2" d="M143.231 27.6931L138.652 25.8184L136.784 30.4129L141.363 32.2876L143.231 27.6931Z" fill="#38D39F"/>
<path d="M129.449 28.7494L124.871 26.8747L123.003 31.4692L127.581 33.3439L129.449 28.7494Z" fill="#2F2E41"/>
<path opacity="0.5" d="M135.172 31.0928L130.594 29.2181L128.726 33.8126L133.304 35.6873L135.172 31.0928Z" fill="#2F2E41"/>
<path opacity="0.2" d="M140.896 33.4363L136.317 31.5615L134.449 36.156L139.027 38.0308L140.896 33.4363Z" fill="#2F2E41"/>
<path d="M127.114 34.4925L122.535 32.6178L120.667 37.2123L125.246 39.087L127.114 34.4925Z" fill="#FF6584"/>
<path opacity="0.5" d="M132.837 36.836L128.259 34.9612L126.39 39.5557L130.969 41.4305L132.837 36.836Z" fill="#FF6584"/>
<path opacity="0.2" d="M138.56 39.1794L133.982 37.3046L132.114 41.8991L136.692 43.7739L138.56 39.1794Z" fill="#FF6584"/>
<path opacity="0.5" d="M109.663 12.8317L98.4533 40.3987C106.039 43.5049 115.08 40.008 118.175 32.3956C121.271 24.7832 117.249 15.9378 109.663 12.8317Z" fill="#3F3D56"/>
<path d="M44.9212 43.2292L33.921 61.2715C36.8919 63.2079 38.9924 66.2314 39.7753 69.6985C40.5583 73.1655 39.9619 76.8023 38.113 79.8348C36.2642 82.8672 33.3089 85.0558 29.8762 85.9347C26.4436 86.8136 22.8046 86.3134 19.734 84.5405L8.03786 103.724L120.874 173L157.757 112.505L44.9212 43.2292Z" fill="#F2F2F2"/>
<path d="M197.831 126.493C197.831 131.138 195.079 132.761 191.684 132.761C191.605 132.761 191.527 132.76 191.448 132.758C191.291 132.755 191.135 132.747 190.981 132.737C187.917 132.519 185.537 130.813 185.537 126.493C185.537 122.022 191.231 116.38 191.659 115.962L191.659 115.961C191.676 115.945 191.684 115.937 191.684 115.937C191.684 115.937 197.831 121.847 197.831 126.493Z" fill="#38D39F"/>
<path d="M191.46 132.05L193.708 128.897L191.454 132.396L191.448 132.758C191.291 132.755 191.135 132.747 190.981 132.736L191.224 128.089L191.222 128.053L191.226 128.046L191.249 127.607L188.989 124.1L191.256 127.278L191.261 127.371L191.444 123.859L189.51 120.235L191.468 123.243L191.659 115.962L191.659 115.937V115.961L191.627 121.702L193.553 119.426L191.62 122.197L191.569 125.341L193.367 122.324L191.561 125.804L191.533 127.552L194.143 123.352L191.523 128.162L191.46 132.05Z" fill="#3F3D56"/>
<path d="M16.5125 101.7C17.8472 101.7 18.9293 100.614 18.9293 99.2745C18.9293 97.9352 17.8472 96.8494 16.5125 96.8494C15.1778 96.8494 14.0958 97.9352 14.0958 99.2745C14.0958 100.614 15.1778 101.7 16.5125 101.7Z" fill="#FF6584"/>
<path d="M35.5644 125.674V98.0611" stroke="#3F3D56" stroke-width="2" stroke-miterlimit="10"/>
<path d="M35.5644 101.966C37.7135 101.966 39.4557 100.218 39.4557 98.0611C39.4557 95.9045 37.7135 94.1562 35.5644 94.1562C33.4153 94.1562 31.6731 95.9045 31.6731 98.0611C31.6731 100.218 33.4153 101.966 35.5644 101.966Z" fill="#3F3D56"/>
<path d="M27.9007 113.522C22.2799 122.171 23.82 133.173 23.82 133.173C23.82 133.173 34.4732 130.15 40.0939 121.5C45.7147 112.851 44.1746 101.849 44.1746 101.849C44.1746 101.849 33.5215 104.872 27.9007 113.522Z" fill="#3F3D56"/>
<path d="M23.7901 133.072C23.7901 133.072 23.6532 133.05 23.4014 132.999C23.2005 132.958 22.924 132.9 22.5862 132.82C19.5672 132.105 11.5407 129.691 6.29304 123.342C-0.274901 115.393 0.00166871 104.287 0.00166871 104.287C0.00166871 104.287 10.0443 105.925 16.6617 113.063C16.9485 113.37 17.2275 113.688 17.4987 114.017C23.2136 120.934 23.7464 130.24 23.7886 132.541C23.7944 132.885 23.7901 133.072 23.7901 133.072Z" fill="#38D39F"/>
<path d="M19.7393 113.522C25.3601 122.171 23.82 133.173 23.82 133.173C23.82 133.173 13.1668 130.15 7.54604 121.5C1.92527 112.851 3.46536 101.849 3.46536 101.849C3.46536 101.849 14.1185 104.872 19.7393 113.522Z" stroke="#3F3D56" stroke-width="2" stroke-miterlimit="10"/>
<path opacity="0.1" d="M23.7886 132.541C23.6401 132.72 23.5091 132.874 23.4014 132.999C23.1627 133.272 23.0273 133.416 23.0273 133.416C23.0273 133.416 22.8628 133.208 22.5862 132.82C21.068 130.696 16.1842 123.144 16.5612 114.42C16.5816 113.963 16.6151 113.511 16.6617 113.063C16.9485 113.37 17.2275 113.688 17.4987 114.017C23.2136 120.934 23.7464 130.24 23.7886 132.541Z" fill="black"/>
<path d="M32.1227 115.051C31.6785 125.368 24.0468 133.416 24.0468 133.416C24.0468 133.416 17.1354 124.737 17.5797 114.42C18.024 104.104 25.6557 96.0557 25.6557 96.0557C25.6557 96.0557 32.567 104.734 32.1227 115.051Z" fill="#38D39F"/>
<path d="M24.0468 133.124L25.7246 96.4766" stroke="#3F3D56" stroke-width="2" stroke-miterlimit="10"/>
<path d="M0.962486 132.259V172.164H18.7852C18.7852 159.603 25.8883 149.42 34.6505 149.42C43.4127 149.42 50.5158 159.603 50.5158 172.164H62.6724C62.6724 159.603 69.7755 149.42 78.5377 149.42C87.2999 149.42 94.403 159.603 94.403 172.164H106.56C106.56 159.603 113.663 149.42 122.425 149.42C131.187 149.42 138.29 159.603 138.29 172.164H150.447C150.447 159.603 157.55 149.42 166.312 149.42C175.074 149.42 182.177 159.603 182.177 172.164H200V132.259H0.962486Z" fill="#3F3D56"/>
<path d="M28.1602 81.6027C33.0533 81.6027 37.02 77.6222 37.02 72.712C37.02 67.8017 33.0533 63.8212 28.1602 63.8212C23.267 63.8212 19.3003 67.8017 19.3003 72.712C19.3003 77.6222 23.267 81.6027 28.1602 81.6027Z" fill="#FF6584"/>
<path d="M106.072 61.6114C109.416 61.6114 112.127 58.8912 112.127 55.5358C112.127 52.1803 109.416 49.4601 106.072 49.4601C102.729 49.4601 100.018 52.1803 100.018 55.5358C100.018 58.8912 102.729 61.6114 106.072 61.6114Z" fill="#2F2E41"/>
<path d="M103.182 58.6052C103.182 58.6052 101.21 62.9872 100.647 63.1285C100.083 63.2699 105.295 65.8142 105.295 65.8142C105.295 65.8142 106.281 60.4428 106.704 60.1601C107.126 59.8774 103.182 58.6052 103.182 58.6052Z" fill="#FFB9B9"/>
<path opacity="0.1" d="M103.182 58.6052C103.182 58.6052 101.21 62.9872 100.647 63.1285C100.083 63.2699 105.295 65.8142 105.295 65.8142C105.295 65.8142 106.281 60.4428 106.704 60.1601C107.126 59.8774 103.182 58.6052 103.182 58.6052Z" fill="black"/>
<path d="M91.4907 94.5086L87.8283 104.827L91.7724 106.382L98.5337 92.9538L91.4907 94.5086Z" fill="#FFB9B9"/>
<path d="M104.309 94.7915C104.309 94.7915 111.634 105.11 112.056 105.252C112.479 105.393 115.437 102.849 115.437 102.849C115.437 102.849 111.775 93.9434 110.648 93.5193C109.521 93.0952 104.309 94.7915 104.309 94.7915Z" fill="#FFB9B9"/>
<path d="M87.2648 102.99L81.4895 118.115C81.4895 118.115 81.9121 118.963 81.4895 119.104C81.0669 119.245 80.0809 121.507 80.0809 121.648C80.0809 121.79 79.0948 121.931 79.0948 122.355C79.0948 122.779 78.2497 126.172 78.2497 126.172C78.2497 126.172 79.7991 129.564 80.7852 128.575C81.7712 127.585 82.1938 125.606 82.1938 125.606L83.6024 121.931C83.6024 121.931 83.4615 119.952 84.4476 119.669C85.4336 119.387 85.997 115.853 85.997 115.853C85.997 115.853 87.5465 114.298 87.8282 113.874C88.11 113.45 93.0401 105.958 92.6175 105.817C92.1949 105.676 87.2648 102.99 87.2648 102.99Z" fill="#2F2E41"/>
<path d="M111.211 104.969L115.437 102.142C115.437 102.142 122.762 115.57 122.762 115.853C122.762 116.136 122.48 116.984 122.762 117.266C123.044 117.549 125.438 122.072 126.988 122.497C128.537 122.921 128.819 124.617 127.551 124.9C126.283 125.182 124.593 125.889 124.171 124.9C123.923 124.317 123.641 123.751 123.325 123.203C123.325 123.203 121.917 123.627 121.776 123.345C121.613 122.928 121.472 122.504 121.353 122.072C121.353 122.072 120.226 120.094 120.226 119.387C120.222 119.186 120.15 118.993 120.022 118.839C119.894 118.685 119.718 118.579 119.522 118.539C119.522 118.539 117.973 114.863 116.987 114.298C116.001 113.733 115.155 110.906 115.155 110.906L111.211 104.969Z" fill="#2F2E41"/>
<path d="M106.14 61.8563C108.396 61.8563 110.225 60.021 110.225 57.7571C110.225 55.4931 108.396 53.6578 106.14 53.6578C103.884 53.6578 102.055 55.4931 102.055 57.7571C102.055 60.021 103.884 61.8563 106.14 61.8563Z" fill="#FFB9B9"/>
<path d="M94.0261 82.6351C94.0261 82.6351 90.082 95.4982 90.9272 95.4982C91.7724 95.4982 111.352 96.0636 112.056 94.9328C112.761 93.802 107.69 85.7449 107.408 85.6035C107.126 85.4622 94.0261 82.6351 94.0261 82.6351Z" fill="#2F2E41"/>
<path d="M87.9691 48.9933L83.7433 42.491C83.7433 42.491 84.7883 35.6702 83.3797 36.9423C81.971 38.2145 81.5253 43.3519 81.5253 43.3519L86.4196 50.8308L87.9691 48.9933Z" fill="#FFB9B9"/>
<path d="M126.283 60.8669L130.087 60.5842C130.087 60.5842 134.594 55.7782 134.876 57.3331C135.158 58.8879 131.214 62.2804 131.214 62.2804L126.002 62.8458L126.283 60.8669Z" fill="#FFB9B9"/>
<path d="M98.5337 62.2804V60.8668C98.5337 60.8668 94.8713 58.4639 95.0122 58.0398C95.153 57.6157 94.7305 57.333 94.7305 57.333C94.7305 57.333 94.3079 56.7676 94.3079 56.6263C94.3079 56.4849 93.7444 56.3436 93.7444 56.3436L90.2229 52.2443C90.2229 52.2443 88.2508 48.2865 87.8282 48.4278C87.4057 48.5692 85.1519 49.4173 85.4336 49.9827C85.7153 50.5481 93.6036 62.7044 93.6036 62.7044C93.6036 62.7044 94.0262 65.3901 94.7305 65.3901C95.4348 65.3901 98.5337 62.2804 98.5337 62.2804Z" fill="#3F3D56"/>
<path d="M107.971 63.9766C107.971 63.9766 111.07 63.8353 111.211 63.9766C111.352 64.118 113.324 63.9766 113.324 63.9766C113.324 63.9766 118.677 62.7044 119.099 62.2804C119.522 61.8563 126.565 60.0187 126.847 60.8668C127.129 61.715 127.833 63.4112 127.129 63.6939C126.424 63.9766 107.408 68.7826 107.408 68.7826L107.971 63.9766Z" fill="#3F3D56"/>
<path d="M103.954 51.6552C105.338 51.6552 106.46 50.5297 106.46 49.1412C106.46 47.7527 105.338 46.6271 103.954 46.6271C102.571 46.6271 101.449 47.7527 101.449 49.1412C101.449 50.5297 102.571 51.6552 103.954 51.6552Z" fill="#2F2E41"/>
<path d="M100.614 47.7794C100.614 47.158 100.843 46.5586 101.258 46.0969C101.672 45.6351 102.242 45.3438 102.858 45.279C102.772 45.2699 102.684 45.2654 102.597 45.2654C101.933 45.2654 101.296 45.5303 100.826 46.0017C100.356 46.4732 100.092 47.1127 100.092 47.7794C100.092 48.4462 100.356 49.0857 100.826 49.5571C101.296 50.0286 101.933 50.2935 102.597 50.2935C102.684 50.2935 102.772 50.2889 102.858 50.2799C102.242 50.2151 101.672 49.9237 101.258 49.462C100.843 49.0003 100.614 48.4009 100.614 47.7794Z" fill="#2F2E41"/>
<path d="M106.777 56.7616C109.083 56.7616 110.952 55.636 110.952 54.2476C110.952 52.8591 109.083 51.7335 106.777 51.7335C104.471 51.7335 102.601 52.8591 102.601 54.2476C102.601 55.636 104.471 56.7616 106.777 56.7616Z" fill="#2F2E41"/>
<path d="M101.985 60.7962C101.985 60.7962 100.717 61.7857 100.435 61.927C100.154 62.0684 98.4633 60.6548 98.1816 60.6548C97.8999 60.6548 94.2375 64.8954 94.2375 64.8954C94.2375 64.8954 94.9181 65.6821 94.2375 69.7014C93.9822 71.2088 93.4758 77.6532 93.4758 78.5013C93.4758 79.3494 90.7159 81.4337 93.2514 83.2713C95.7869 85.1088 107.901 87.0878 108.042 85.9569C108.183 84.8261 106.633 81.8577 107.338 80.4442C108.042 79.0307 108.042 73.8006 108.042 73.8006L108.887 68.2879L109.591 63.906C109.591 63.906 106.281 62.9872 105.999 62.9872C105.718 62.9872 104.45 64.9661 101.985 60.7962Z" fill="#3F3D56"/>
</g>
<defs>
<clipPath id="clip0">
<rect width="200" height="173" fill="white"/>
</clipPath>
</defs>
</svg>
